<?xml version="1.0" encoding="UTF-8"?>
<svg xmlns="http://www.w3.org/2000/svg" xmlns:xlink="http://www.w3.org/1999/xlink" width="100px" height="100px" viewBox="0 0 100 100" version="1.1">
<defs>
<filter id="alpha" filterUnits="objectBoundingBox" x="0%" y="0%" width="100%" height="100%">
  <feColorMatrix type="matrix" in="SourceGraphic" values="0 0 0 0 1 0 0 0 0 1 0 0 0 0 1 0 0 0 1 0"/>
</filter>
<mask id="mask0">
  <g filter="url(#alpha)">
<rect x="0" y="0" width="100" height="100" style="fill:rgb(0%,0%,0%);fill-opacity:0.592157;stroke:none;"/>
  </g>
</mask>
<clipPath id="clip1">
  <rect x="0" y="0" width="100" height="100"/>
</clipPath>
<g id="surface5" clip-path="url(#clip1)">
<path style=" stroke:none;fill-rule:evenodd;fill:rgb(20.392157%,18.823529%,50.588235%);fill-opacity:1;" d="M 34.898438 83.699219 C 35.074219 83.671875 35.207031 83.742188 35.300781 83.898438 C 32.234375 84.101562 29.167969 84.167969 26.101562 84.101562 C 29.035156 83.964844 31.964844 83.832031 34.898438 83.699219 Z M 34.898438 83.699219 "/>
</g>
<mask id="mask1">
  <g filter="url(#alpha)">
<rect x="0" y="0" width="100" height="100" style="fill:rgb(0%,0%,0%);fill-opacity:0.619608;stroke:none;"/>
  </g>
</mask>
<clipPath id="clip2">
  <rect x="0" y="0" width="100" height="100"/>
</clipPath>
<g id="surface8" clip-path="url(#clip2)">
<path style=" stroke:none;fill-rule:evenodd;fill:rgb(22.745098%,21.960784%,52.941176%);fill-opacity:1;" d="M 65.5 83.699219 C 68.300781 83.832031 71.101562 83.964844 73.898438 84.101562 C 71.101562 84.101562 68.300781 84.101562 65.5 84.101562 C 65.234375 83.964844 65.234375 83.832031 65.5 83.699219 Z M 65.5 83.699219 "/>
</g>
<mask id="mask2">
  <g filter="url(#alpha)">
<rect x="0" y="0" width="100" height="100" style="fill:rgb(0%,0%,0%);fill-opacity:0.956863;stroke:none;"/>
  </g>
</mask>
<clipPath id="clip3">
  <rect x="0" y="0" width="100" height="100"/>
</clipPath>
<g id="surface11" clip-path="url(#clip3)">
<path style=" stroke:none;fill-rule:evenodd;fill:rgb(73.333333%,73.333333%,82.352941%);fill-opacity:1;" d="M 74.898438 84.300781 C 75.769531 84.265625 76.636719 84.300781 77.5 84.398438 C 78.03125 84.878906 77.964844 85.277344 77.300781 85.601562 C 74.320312 86.148438 71.320312 86.546875 68.300781 86.800781 C 56.167969 87.429688 44.035156 87.460938 31.898438 86.898438 C 33.066406 86.765625 34.265625 86.699219 35.5 86.699219 C 45.765625 87.105469 56.429688 87.105469 67.5 86.699219 C 69.011719 86.394531 70.511719 86.058594 72 85.699219 C 72.367188 85.964844 72.46875 85.933594 72.300781 85.601562 C 72.820312 85.570312 73.289062 85.402344 73.699219 85.101562 C 74.574219 85.632812 75.441406 85.632812 76.300781 85.101562 C 76.910156 85.429688 77.175781 85.230469 77.101562 84.5 C 76.324219 84.5625 75.59375 84.496094 74.898438 84.300781 Z M 74.898438 84.300781 "/>
</g>
</defs>
<g id="surface1">
<path style=" stroke:none;fill-rule:evenodd;fill:rgb(24.313725%,19.607843%,27.058824%);fill-opacity:1;" d="M 68.699219 65.898438 C 68.519531 65.199219 68.386719 64.46875 68.300781 63.699219 C 68.300781 63.566406 68.300781 63.433594 68.300781 63.300781 C 68.933594 61.421875 69.398438 59.488281 69.699219 57.5 C 70.132812 56.625 70.464844 55.691406 70.699219 54.699219 C 71.289062 54.535156 71.890625 54.4375 72.5 54.398438 C 73.296875 53.824219 73.230469 53.390625 72.300781 53.101562 C 69.734375 52.902344 67.136719 52.835938 64.5 52.898438 C 64.527344 52.558594 64.59375 52.222656 64.699219 51.898438 C 64.800781 51.203125 64.933594 50.535156 65.101562 49.898438 C 65.152344 49.078125 65.085938 48.28125 64.898438 47.5 C 67.433594 47.5 69.964844 47.5 72.5 47.5 C 72.535156 47.234375 72.46875 47.003906 72.300781 46.800781 C 69.769531 46.699219 67.234375 46.667969 64.699219 46.699219 C 64.5 45.894531 64.300781 45.097656 64.101562 44.300781 C 65.035156 44.300781 65.964844 44.300781 66.898438 44.300781 C 66.96875 43.902344 66.835938 43.636719 66.5 43.5 C 66.070312 43.367188 65.605469 43.300781 65.101562 43.300781 C 64.546875 43.304688 64.078125 43.4375 63.699219 43.699219 C 63.289062 42.9375 62.957031 42.136719 62.699219 41.300781 C 65.96875 41.332031 69.234375 41.300781 72.5 41.199219 C 72.996094 40.839844 72.996094 40.539062 72.5 40.300781 C 68.894531 40.167969 65.359375 40.304688 61.898438 40.699219 C 61.363281 39.695312 60.695312 38.761719 59.898438 37.898438 C 64.066406 37.964844 68.203125 37.898438 72.300781 37.699219 C 72.566406 37.5 72.566406 37.300781 72.300781 37.101562 C 68.066406 36.867188 63.800781 36.835938 59.5 37 C 59.347656 37.132812 59.28125 37.300781 59.300781 37.5 C 58.5 36.566406 57.632812 35.699219 56.699219 34.898438 C 59.367188 34.933594 62.035156 34.898438 64.699219 34.800781 C 64.960938 34.476562 64.960938 34.175781 64.699219 33.898438 C 63.203125 33.765625 61.667969 33.699219 60.101562 33.699219 C 58.492188 33.699219 56.960938 33.832031 55.5 34.101562 C 54.171875 33.035156 52.703125 32.234375 51.101562 31.699219 C 54.566406 31.734375 58.035156 31.699219 61.5 31.601562 C 61.796875 31.449219 61.996094 31.21875 62.101562 30.898438 C 62.050781 30.65625 61.917969 30.523438 61.699219 30.5 C 61.679688 30.375 61.609375 30.277344 61.5 30.199219 C 53.734375 30.035156 46 30.066406 38.300781 30.300781 C 38.101562 30.28125 37.933594 30.347656 37.800781 30.5 C 37.703125 30.828125 37.667969 31.160156 37.699219 31.5 C 37.898438 31.5 38.101562 31.5 38.300781 31.5 C 41.464844 31.699219 44.664062 31.765625 47.898438 31.699219 C 46.96875 32.359375 45.96875 32.925781 44.898438 33.398438 C 44.585938 33.679688 44.320312 33.980469 44.101562 34.300781 C 44.101562 34.101562 44.101562 33.898438 44.101562 33.699219 C 41.265625 33.632812 38.464844 33.699219 35.699219 33.898438 C 35.511719 34.113281 35.445312 34.378906 35.5 34.699219 C 38.035156 34.699219 40.566406 34.699219 43.101562 34.699219 C 42.496094 35.472656 41.796875 36.136719 41 36.699219 C 41.03125 37.367188 40.730469 37.769531 40.101562 37.898438 C 40.167969 37.765625 40.234375 37.632812 40.300781 37.5 C 40.496094 37.4375 40.628906 37.304688 40.699219 37.101562 C 36.535156 36.835938 32.402344 36.835938 28.300781 37.101562 C 28.300781 37.367188 28.300781 37.632812 28.300781 37.898438 C 32.167969 37.898438 36.035156 37.898438 39.898438 37.898438 C 39.144531 38.785156 38.476562 39.71875 37.898438 40.699219 C 37.898438 40.566406 37.898438 40.433594 37.898438 40.300781 C 36.9375 40.070312 35.9375 40.035156 34.898438 40.199219 C 34.589844 40.609375 34.65625 40.910156 35.101562 41.101562 C 35.898438 41.101562 36.699219 41.101562 37.5 41.101562 C 36.957031 42.003906 36.488281 42.9375 36.101562 43.898438 C 33.574219 43.503906 30.976562 43.371094 28.300781 43.5 C 28.109375 43.785156 28.042969 44.117188 28.101562 44.5 C 30.632812 44.5 33.167969 44.5 35.699219 44.5 C 35.441406 45.214844 35.242188 45.949219 35.101562 46.699219 C 32.832031 46.699219 30.566406 46.699219 28.300781 46.699219 C 28.109375 46.984375 28.042969 47.316406 28.101562 47.699219 C 30.269531 47.765625 32.402344 47.699219 34.5 47.5 C 34.632812 47.5 34.765625 47.5 34.898438 47.5 C 34.554688 49.335938 34.6875 51.136719 35.300781 52.898438 C 32.964844 52.867188 30.632812 52.898438 28.300781 53 C 27.773438 53.335938 27.773438 53.636719 28.300781 53.898438 C 28.367188 54.066406 28.5 54.132812 28.699219 54.101562 C 29.054688 54.292969 29.453125 54.359375 29.898438 54.300781 C 30.484375 57.1875 31.152344 60.054688 31.898438 62.898438 C 31.898438 63.101562 31.898438 63.300781 31.898438 63.5 C 31.808594 64.175781 31.675781 64.84375 31.5 65.5 C 21.90625 56.804688 18.941406 46.203125 22.601562 33.699219 C 26.84375 22.925781 34.675781 16.558594 46.101562 14.601562 C 58.503906 13.484375 68.070312 18.121094 74.800781 28.5 C 78.867188 35.777344 79.800781 43.445312 77.601562 51.5 C 75.957031 56.875 73.023438 61.40625 68.800781 65.101562 C 68.703125 65.359375 68.667969 65.625 68.699219 65.898438 Z M 68.699219 65.898438 "/>
<path style=" stroke:none;fill-rule:evenodd;fill:rgb(21.568627%,20.784314%,23.921569%);fill-opacity:1;" d="M 38.300781 30.300781 C 46 30.066406 53.734375 30.035156 61.5 30.199219 C 61.609375 30.277344 61.679688 30.375 61.699219 30.5 C 61.566406 30.5 61.433594 30.5 61.300781 30.5 C 53.667969 30.300781 46 30.234375 38.300781 30.300781 Z M 38.300781 30.300781 "/>
<path style=" stroke:none;fill-rule:evenodd;fill:rgb(22.745098%,34.509804%,21.568627%);fill-opacity:1;" d="M 35.101562 30.699219 C 32.832031 30.699219 30.566406 30.699219 28.300781 30.699219 C 28.300781 30.898438 28.300781 31.101562 28.300781 31.300781 C 30.566406 31.300781 32.832031 31.300781 35.101562 31.300781 C 34.042969 31.566406 32.910156 31.699219 31.699219 31.699219 C 30.566406 31.667969 29.433594 31.632812 28.300781 31.601562 C 27.859375 31.265625 27.792969 30.867188 28.101562 30.398438 C 29.265625 30.367188 30.433594 30.332031 31.601562 30.300781 C 32.839844 30.300781 34.007812 30.433594 35.101562 30.699219 Z M 35.101562 30.699219 "/>
<path style=" stroke:none;fill-rule:evenodd;fill:rgb(17.647059%,23.921569%,17.647059%);fill-opacity:1;" d="M 38.300781 30.300781 C 46 30.234375 53.667969 30.300781 61.300781 30.5 C 53.632812 30.464844 45.964844 30.5 38.300781 30.601562 C 38.054688 30.898438 38.054688 31.199219 38.300781 31.5 C 38.101562 31.5 37.898438 31.5 37.699219 31.5 C 37.667969 31.160156 37.703125 30.828125 37.800781 30.5 C 37.933594 30.347656 38.101562 30.28125 38.300781 30.300781 Z M 38.300781 30.300781 "/>
<path style=" stroke:none;fill-rule:evenodd;fill:rgb(45.098039%,87.058824%,37.254902%);fill-opacity:1;" d="M 35.101562 30.699219 C 35.367188 30.898438 35.367188 31.101562 35.101562 31.300781 C 32.832031 31.300781 30.566406 31.300781 28.300781 31.300781 C 28.300781 31.101562 28.300781 30.898438 28.300781 30.699219 C 30.566406 30.699219 32.832031 30.699219 35.101562 30.699219 Z M 35.101562 30.699219 "/>
<path style=" stroke:none;fill-rule:evenodd;fill:rgb(39.607843%,75.686275%,33.333333%);fill-opacity:1;" d="M 61.300781 30.5 C 61.546875 30.800781 61.546875 31.101562 61.300781 31.398438 C 53.632812 31.5 45.96875 31.535156 38.300781 31.5 C 38.054688 31.199219 38.054688 30.898438 38.300781 30.601562 C 45.964844 30.5 53.632812 30.464844 61.300781 30.5 Z M 61.300781 30.5 "/>
<path style=" stroke:none;fill-rule:evenodd;fill:rgb(45.882353%,87.058824%,37.647059%);fill-opacity:1;" d="M 72.300781 30.699219 C 72.566406 30.898438 72.566406 31.101562 72.300781 31.300781 C 70.300781 31.300781 68.300781 31.300781 66.300781 31.300781 C 66.300781 31.101562 66.300781 30.898438 66.300781 30.699219 C 68.300781 30.699219 70.300781 30.699219 72.300781 30.699219 Z M 72.300781 30.699219 "/>
<path style=" stroke:none;fill-rule:evenodd;fill:rgb(18.823529%,24.705882%,20.392157%);fill-opacity:1;" d="M 61.300781 30.5 C 61.433594 30.5 61.566406 30.5 61.699219 30.5 C 61.917969 30.523438 62.050781 30.65625 62.101562 30.898438 C 61.996094 31.21875 61.796875 31.449219 61.5 31.601562 C 58.035156 31.699219 54.566406 31.734375 51.101562 31.699219 C 50.035156 31.699219 48.964844 31.699219 47.898438 31.699219 C 44.664062 31.765625 41.464844 31.699219 38.300781 31.5 C 45.96875 31.535156 53.632812 31.5 61.300781 31.398438 C 61.546875 31.101562 61.546875 30.800781 61.300781 30.5 Z M 61.300781 30.5 "/>
<path style=" stroke:none;fill-rule:evenodd;fill:rgb(23.137255%,34.901961%,21.568627%);fill-opacity:1;" d="M 72.300781 30.699219 C 70.300781 30.699219 68.300781 30.699219 66.300781 30.699219 C 66.300781 30.898438 66.300781 31.101562 66.300781 31.300781 C 68.300781 31.300781 70.300781 31.300781 72.300781 31.300781 C 71.375 31.566406 70.375 31.699219 69.300781 31.699219 C 68.300781 31.667969 67.300781 31.632812 66.300781 31.601562 C 66.035156 31.199219 66.035156 30.800781 66.300781 30.398438 C 68.234375 30.265625 70.167969 30.265625 72.101562 30.398438 C 72.210938 30.476562 72.277344 30.578125 72.300781 30.699219 Z M 72.300781 30.699219 "/>
<path style=" stroke:none;fill-rule:evenodd;fill:rgb(30.588235%,49.019608%,28.235294%);fill-opacity:1;" d="M 64.699219 33.898438 C 61.699219 33.867188 58.699219 33.898438 55.699219 34 C 55.8125 34.078125 55.878906 34.175781 55.898438 34.300781 C 55.703125 34.335938 55.570312 34.269531 55.5 34.101562 C 56.960938 33.832031 58.492188 33.699219 60.101562 33.699219 C 61.667969 33.699219 63.203125 33.765625 64.699219 33.898438 Z M 64.699219 33.898438 "/>
<path style=" stroke:none;fill-rule:evenodd;fill:rgb(40.784314%,80%,33.72549%);fill-opacity:1;" d="M 32.101562 33.898438 C 32.101562 34.101562 32.101562 34.300781 32.101562 34.5 C 30.832031 34.5 29.566406 34.5 28.300781 34.5 C 28.300781 34.234375 28.300781 33.964844 28.300781 33.699219 C 29.605469 33.636719 30.871094 33.703125 32.101562 33.898438 Z M 32.101562 33.898438 "/>
<path style=" stroke:none;fill-rule:evenodd;fill:rgb(40.784314%,80.392157%,33.72549%);fill-opacity:1;" d="M 44.101562 34.300781 C 43.921875 34.421875 43.722656 34.488281 43.5 34.5 C 40.898438 34.5 38.300781 34.5 35.699219 34.5 C 35.699219 34.300781 35.699219 34.101562 35.699219 33.898438 C 38.464844 33.699219 41.265625 33.632812 44.101562 33.699219 C 44.101562 33.898438 44.101562 34.101562 44.101562 34.300781 Z M 44.101562 34.300781 "/>
<path style=" stroke:none;fill-rule:evenodd;fill:rgb(43.137255%,88.235294%,35.294118%);fill-opacity:1;" d="M 64.699219 33.898438 C 64.746094 34.15625 64.679688 34.359375 64.5 34.5 C 61.625 34.558594 58.757812 34.492188 55.898438 34.300781 C 55.878906 34.175781 55.8125 34.078125 55.699219 34 C 58.699219 33.898438 61.699219 33.867188 64.699219 33.898438 Z M 64.699219 33.898438 "/>
<path style=" stroke:none;fill-rule:evenodd;fill:rgb(40.784314%,81.960784%,32.941176%);fill-opacity:1;" d="M 67.101562 33.898438 C 68.898438 33.898438 70.699219 33.898438 72.5 33.898438 C 72.535156 34.164062 72.46875 34.398438 72.300781 34.601562 C 70.566406 34.699219 68.835938 34.734375 67.101562 34.699219 C 67.101562 34.433594 67.101562 34.167969 67.101562 33.898438 Z M 67.101562 33.898438 "/>
<path style=" stroke:none;fill-rule:evenodd;fill:rgb(29.411765%,57.647059%,25.490196%);fill-opacity:1;" d="M 32.101562 33.898438 C 32.285156 34.113281 32.355469 34.378906 32.300781 34.699219 C 30.929688 34.765625 29.597656 34.699219 28.300781 34.5 C 29.566406 34.5 30.832031 34.5 32.101562 34.5 C 32.101562 34.300781 32.101562 34.101562 32.101562 33.898438 Z M 32.101562 33.898438 "/>
<path style=" stroke:none;fill-rule:evenodd;fill:rgb(29.803922%,57.254902%,25.490196%);fill-opacity:1;" d="M 35.699219 33.898438 C 35.699219 34.101562 35.699219 34.300781 35.699219 34.5 C 38.300781 34.5 40.898438 34.5 43.5 34.5 C 43.429688 34.667969 43.296875 34.734375 43.101562 34.699219 C 40.566406 34.699219 38.035156 34.699219 35.5 34.699219 C 35.445312 34.378906 35.511719 34.113281 35.699219 33.898438 Z M 35.699219 33.898438 "/>
<path style=" stroke:none;fill-rule:evenodd;fill:rgb(29.019608%,57.254902%,25.490196%);fill-opacity:1;" d="M 55.898438 34.300781 C 58.757812 34.492188 61.625 34.558594 64.5 34.5 C 61.800781 34.699219 59.070312 34.765625 56.300781 34.699219 C 56.101562 34.632812 55.964844 34.5 55.898438 34.300781 Z M 55.898438 34.300781 "/>
<path style=" stroke:none;fill-rule:evenodd;fill:rgb(18.039216%,24.313725%,18.823529%);fill-opacity:1;" d="M 64.699219 33.898438 C 64.960938 34.175781 64.960938 34.476562 64.699219 34.800781 C 62.035156 34.898438 59.367188 34.933594 56.699219 34.898438 C 56.5 34.933594 56.367188 34.867188 56.300781 34.699219 C 59.070312 34.765625 61.800781 34.699219 64.5 34.5 C 64.679688 34.359375 64.746094 34.15625 64.699219 33.898438 Z M 64.699219 33.898438 "/>
<path style=" stroke:none;fill-rule:evenodd;fill:rgb(23.921569%,40.784314%,23.137255%);fill-opacity:1;" d="M 28.300781 37.101562 C 32.402344 36.835938 36.535156 36.835938 40.699219 37.101562 C 40.628906 37.304688 40.496094 37.4375 40.300781 37.5 C 36.371094 37.101562 32.371094 36.96875 28.300781 37.101562 Z M 28.300781 37.101562 "/>
<path style=" stroke:none;fill-rule:evenodd;fill:rgb(40.784314%,84.705882%,32.54902%);fill-opacity:1;" d="M 28.300781 37.101562 C 32.371094 36.96875 36.371094 37.101562 40.300781 37.5 C 40.234375 37.632812 40.167969 37.765625 40.101562 37.898438 C 40.035156 37.898438 39.964844 37.898438 39.898438 37.898438 C 36.035156 37.898438 32.167969 37.898438 28.300781 37.898438 C 28.300781 37.632812 28.300781 37.367188 28.300781 37.101562 Z M 28.300781 37.101562 "/>
<path style=" stroke:none;fill-rule:evenodd;fill:rgb(42.745098%,89.411765%,33.333333%);fill-opacity:1;" d="M 72.300781 37.101562 C 72.566406 37.300781 72.566406 37.5 72.300781 37.699219 C 68.167969 37.734375 64.03125 37.699219 59.898438 37.601562 C 59.808594 37.515625 59.742188 37.417969 59.699219 37.300781 C 63.898438 37.101562 68.097656 37.035156 72.300781 37.101562 Z M 72.300781 37.101562 "/>
<path style=" stroke:none;fill-rule:evenodd;fill:rgb(25.490196%,28.627451%,46.27451%);fill-opacity:1;" d="M 52.5 33.101562 C 58.429688 36.332031 62.332031 41.199219 64.199219 47.699219 C 64.300781 48.765625 64.332031 49.832031 64.300781 50.898438 C 63.960938 51.585938 63.691406 52.320312 63.5 53.101562 C 63.28125 53.074219 63.148438 52.941406 63.101562 52.699219 C 63.917969 50.101562 63.78125 47.566406 62.699219 45.101562 C 62.183594 43.746094 61.515625 42.480469 60.699219 41.300781 C 59.363281 38.898438 57.363281 37.367188 54.699219 36.699219 C 55.070312 36.746094 55.238281 36.613281 55.199219 36.300781 C 54.152344 35.332031 53.253906 34.265625 52.5 33.101562 Z M 52.5 33.101562 "/>
<path style=" stroke:none;fill-rule:evenodd;fill:rgb(31.372549%,58.039216%,27.843137%);fill-opacity:1;" d="M 72.300781 37.101562 C 68.097656 37.035156 63.898438 37.101562 59.699219 37.300781 C 59.742188 37.417969 59.808594 37.515625 59.898438 37.601562 C 64.03125 37.699219 68.167969 37.734375 72.300781 37.699219 C 68.203125 37.898438 64.066406 37.964844 59.898438 37.898438 C 59.699219 37.765625 59.5 37.632812 59.300781 37.5 C 59.28125 37.300781 59.347656 37.132812 59.5 37 C 63.800781 36.835938 68.066406 36.867188 72.300781 37.101562 Z M 72.300781 37.101562 "/>
<path style=" stroke:none;fill-rule:evenodd;fill:rgb(21.960784%,33.72549%,20%);fill-opacity:1;" d="M 37.898438 40.300781 C 36.964844 40.300781 36.035156 40.300781 35.101562 40.300781 C 35.101562 40.566406 35.101562 40.832031 35.101562 41.101562 C 34.65625 40.910156 34.589844 40.609375 34.898438 40.199219 C 35.9375 40.035156 36.9375 40.070312 37.898438 40.300781 Z M 37.898438 40.300781 "/>
<path style=" stroke:none;fill-rule:evenodd;fill:rgb(42.745098%,84.705882%,36.470588%);fill-opacity:1;" d="M 37.898438 40.300781 C 37.898438 40.433594 37.898438 40.566406 37.898438 40.699219 C 37.699219 40.765625 37.566406 40.898438 37.5 41.101562 C 36.699219 41.101562 35.898438 41.101562 35.101562 41.101562 C 35.101562 40.832031 35.101562 40.566406 35.101562 40.300781 C 36.035156 40.300781 36.964844 40.300781 37.898438 40.300781 Z M 37.898438 40.300781 "/>
<path style=" stroke:none;fill-rule:evenodd;fill:rgb(41.176471%,77.254902%,35.294118%);fill-opacity:1;" d="M 28.300781 40.300781 C 29.570312 40.265625 30.835938 40.300781 32.101562 40.398438 C 32.367188 40.601562 32.367188 40.800781 32.101562 41 C 30.835938 41.101562 29.570312 41.132812 28.300781 41.101562 C 28.300781 40.832031 28.300781 40.566406 28.300781 40.300781 Z M 28.300781 40.300781 "/>
<path style=" stroke:none;fill-rule:evenodd;fill:rgb(39.607843%,91.372549%,30.588235%);fill-opacity:1;" d="M 28.5 40.5 C 29.640625 40.433594 30.773438 40.5 31.898438 40.699219 C 31.332031 40.765625 30.765625 40.832031 30.199219 40.898438 C 29.550781 40.894531 28.984375 40.761719 28.5 40.5 Z M 28.5 40.5 "/>
<path style=" stroke:none;fill-rule:evenodd;fill:rgb(41.960784%,78.431373%,36.078431%);fill-opacity:1;" d="M 72.5 40.300781 C 72.535156 40.5625 72.46875 40.796875 72.300781 41 C 68.96875 41.101562 65.632812 41.132812 62.300781 41.101562 C 62.167969 40.964844 62.035156 40.832031 61.898438 40.699219 C 65.359375 40.304688 68.894531 40.167969 72.5 40.300781 Z M 72.5 40.300781 "/>
<path style=" stroke:none;fill-rule:evenodd;fill:rgb(39.607843%,91.372549%,30.196078%);fill-opacity:1;" d="M 62.300781 40.699219 C 65.535156 40.433594 68.800781 40.433594 72.101562 40.699219 C 68.820312 40.964844 65.554688 40.964844 62.300781 40.699219 Z M 62.300781 40.699219 "/>
<path style=" stroke:none;fill-rule:evenodd;fill:rgb(18.039216%,27.058824%,17.254902%);fill-opacity:1;" d="M 28.300781 40.300781 C 29.597656 40.070312 30.929688 40.035156 32.300781 40.199219 C 32.566406 40.535156 32.566406 40.867188 32.300781 41.199219 C 30.929688 41.363281 29.597656 41.332031 28.300781 41.101562 C 29.570312 41.132812 30.835938 41.101562 32.101562 41 C 32.367188 40.800781 32.367188 40.601562 32.101562 40.398438 C 30.835938 40.300781 29.570312 40.265625 28.300781 40.300781 Z M 28.300781 40.300781 "/>
<path style=" stroke:none;fill-rule:evenodd;fill:rgb(16.862745%,24.705882%,16.470588%);fill-opacity:1;" d="M 72.5 40.300781 C 72.996094 40.539062 72.996094 40.839844 72.5 41.199219 C 69.234375 41.300781 65.96875 41.332031 62.699219 41.300781 C 62.5 41.335938 62.367188 41.269531 62.300781 41.101562 C 65.632812 41.132812 68.96875 41.101562 72.300781 41 C 72.46875 40.796875 72.535156 40.5625 72.5 40.300781 Z M 72.5 40.300781 "/>
<path style=" stroke:none;fill-rule:evenodd;fill:rgb(19.215686%,29.019608%,16.470588%);fill-opacity:1;" d="M 66.5 43.5 C 65.632812 43.5 64.765625 43.5 63.898438 43.5 C 63.898438 43.699219 63.898438 43.898438 63.898438 44.101562 C 63.730469 44.03125 63.664062 43.898438 63.699219 43.699219 C 64.078125 43.4375 64.546875 43.304688 65.101562 43.300781 C 65.605469 43.300781 66.070312 43.367188 66.5 43.5 Z M 66.5 43.5 "/>
<path style=" stroke:none;fill-rule:evenodd;fill:rgb(16.470588%,26.666667%,16.862745%);fill-opacity:1;" d="M 69.101562 43.5 C 70.195312 43.269531 71.332031 43.238281 72.5 43.398438 C 72.808594 43.808594 72.742188 44.109375 72.300781 44.300781 C 72.535156 44.0625 72.535156 43.828125 72.300781 43.601562 C 71.234375 43.5 70.167969 43.46875 69.101562 43.5 Z M 69.101562 43.5 "/>
<path style=" stroke:none;fill-rule:evenodd;fill:rgb(47.058824%,81.176471%,40%);fill-opacity:1;" d="M 69.101562 43.5 C 70.167969 43.46875 71.234375 43.5 72.300781 43.601562 C 72.535156 43.828125 72.535156 44.0625 72.300781 44.300781 C 71.230469 44.332031 70.164062 44.300781 69.101562 44.199219 C 68.863281 43.972656 68.863281 43.738281 69.101562 43.5 Z M 69.101562 43.5 "/>
<path style=" stroke:none;fill-rule:evenodd;fill:rgb(39.607843%,91.372549%,27.45098%);fill-opacity:1;" d="M 69.300781 43.699219 C 70.242188 43.632812 71.175781 43.703125 72.101562 43.898438 C 71.632812 43.964844 71.167969 44.035156 70.699219 44.101562 C 70.144531 44.09375 69.679688 43.960938 69.300781 43.699219 Z M 69.300781 43.699219 "/>
<path style=" stroke:none;fill-rule:evenodd;fill:rgb(45.098039%,82.745098%,38.039216%);fill-opacity:1;" d="M 28.300781 43.5 C 30.976562 43.371094 33.574219 43.503906 36.101562 43.898438 C 36.035156 44.101562 35.898438 44.234375 35.699219 44.300781 C 33.234375 44.300781 30.765625 44.300781 28.300781 44.300781 C 28.300781 44.035156 28.300781 43.765625 28.300781 43.5 Z M 28.300781 43.5 "/>
<path style=" stroke:none;fill-rule:evenodd;fill:rgb(38.823529%,91.764706%,27.45098%);fill-opacity:1;" d="M 28.5 43.699219 C 30.902344 43.632812 33.304688 43.699219 35.699219 43.898438 C 34.5 43.964844 33.300781 44.035156 32.101562 44.101562 C 30.824219 44.097656 29.625 43.964844 28.5 43.699219 Z M 28.5 43.699219 "/>
<path style=" stroke:none;fill-rule:evenodd;fill:rgb(43.529412%,85.098039%,36.862745%);fill-opacity:1;" d="M 66.5 43.5 C 66.835938 43.636719 66.96875 43.902344 66.898438 44.300781 C 65.964844 44.300781 65.035156 44.300781 64.101562 44.300781 C 63.964844 44.300781 63.898438 44.234375 63.898438 44.101562 C 63.898438 43.898438 63.898438 43.699219 63.898438 43.5 C 64.765625 43.5 65.632812 43.5 66.5 43.5 Z M 66.5 43.5 "/>
<path style=" stroke:none;fill-rule:evenodd;fill:rgb(16.078431%,25.882353%,16.470588%);fill-opacity:1;" d="M 28.300781 43.5 C 28.300781 43.765625 28.300781 44.035156 28.300781 44.300781 C 30.765625 44.300781 33.234375 44.300781 35.699219 44.300781 C 35.699219 44.367188 35.699219 44.433594 35.699219 44.5 C 33.167969 44.5 30.632812 44.5 28.101562 44.5 C 28.042969 44.117188 28.109375 43.785156 28.300781 43.5 Z M 28.300781 43.5 "/>
<path style=" stroke:none;fill-rule:evenodd;fill:rgb(16.078431%,25.098039%,15.686275%);fill-opacity:1;" d="M 69.101562 43.5 C 68.863281 43.738281 68.863281 43.972656 69.101562 44.199219 C 70.164062 44.300781 71.230469 44.332031 72.300781 44.300781 C 71.203125 44.53125 70.070312 44.5625 68.898438 44.398438 C 68.589844 43.992188 68.65625 43.691406 69.101562 43.5 Z M 69.101562 43.5 "/>
<path style=" stroke:none;fill-rule:evenodd;fill:rgb(18.039216%,20.784314%,43.529412%);fill-opacity:1;" d="M 60.699219 41.300781 C 61.515625 42.480469 62.183594 43.746094 62.699219 45.101562 C 62.773438 45.902344 62.871094 46.703125 63 47.5 C 63.203125 47.257812 63.304688 47.324219 63.300781 47.699219 C 63.269531 48.546875 63.234375 49.414062 63.199219 50.300781 C 63.132812 50.035156 63.066406 49.765625 63 49.5 C 62.9375 49.660156 62.839844 49.796875 62.699219 49.898438 C 62.496094 49.628906 62.230469 49.496094 61.898438 49.5 C 62.140625 50.59375 62.140625 51.664062 61.898438 52.699219 C 61.949219 52.019531 61.882812 51.351562 61.699219 50.699219 C 61.386719 50.316406 60.984375 50.117188 60.5 50.101562 C 60.976562 47.320312 60.707031 44.652344 59.699219 42.101562 C 60.035156 42.101562 60.367188 42.101562 60.699219 42.101562 C 60.699219 41.832031 60.699219 41.566406 60.699219 41.300781 Z M 60.699219 41.300781 "/>
<path style=" stroke:none;fill-rule:evenodd;fill:rgb(6.27451%,3.137255%,39.607843%);fill-opacity:1;" d="M 47.898438 31.699219 C 48.964844 31.699219 50.035156 31.699219 51.101562 31.699219 C 52.703125 32.234375 54.171875 33.035156 55.5 34.101562 C 55.570312 34.269531 55.703125 34.335938 55.898438 34.300781 C 55.964844 34.5 56.101562 34.632812 56.300781 34.699219 C 56.367188 34.867188 56.5 34.933594 56.699219 34.898438 C 57.632812 35.699219 58.5 36.566406 59.300781 37.5 C 59.5 37.632812 59.699219 37.765625 59.898438 37.898438 C 60.695312 38.761719 61.363281 39.695312 61.898438 40.699219 C 62.035156 40.832031 62.167969 40.964844 62.300781 41.101562 C 62.367188 41.269531 62.5 41.335938 62.699219 41.300781 C 62.957031 42.136719 63.289062 42.9375 63.699219 43.699219 C 63.664062 43.898438 63.730469 44.03125 63.898438 44.101562 C 63.898438 44.234375 63.964844 44.300781 64.101562 44.300781 C 64.300781 45.097656 64.5 45.894531 64.699219 46.699219 C 64.644531 47.019531 64.714844 47.285156 64.898438 47.5 C 65.085938 48.28125 65.152344 49.078125 65.101562 49.898438 C 64.933594 50.535156 64.800781 51.203125 64.699219 51.898438 C 64.347656 51.691406 64.214844 51.355469 64.300781 50.898438 C 64.332031 49.832031 64.300781 48.765625 64.199219 47.699219 C 62.332031 41.199219 58.429688 36.332031 52.5 33.101562 C 52.136719 32.875 51.738281 32.742188 51.300781 32.699219 C 49.527344 32.25 47.863281 32.546875 46.300781 33.601562 C 44.292969 34.871094 42.460938 36.371094 40.800781 38.101562 C 40.699219 38.300781 40.601562 38.5 40.5 38.699219 C 40.949219 38.894531 41.414062 38.960938 41.898438 38.898438 C 41.753906 38.148438 42.019531 37.613281 42.699219 37.300781 C 43.398438 37.429688 43.898438 37.828125 44.199219 38.5 C 45.980469 36.894531 48.082031 36.09375 50.5 36.101562 C 51.917969 36.191406 53.320312 36.390625 54.699219 36.699219 C 57.363281 37.367188 59.363281 38.898438 60.699219 41.300781 C 60.699219 41.566406 60.699219 41.832031 60.699219 42.101562 C 60.367188 42.101562 60.035156 42.101562 59.699219 42.101562 C 60.707031 44.652344 60.976562 47.320312 60.5 50.101562 C 60.984375 50.117188 61.386719 50.316406 61.699219 50.699219 C 61.882812 51.351562 61.949219 52.019531 61.898438 52.699219 C 61.546875 53.613281 61.082031 54.480469 60.5 55.300781 C 59.996094 55.707031 59.464844 56.042969 58.898438 56.300781 C 58.546875 56.089844 58.414062 55.757812 58.5 55.300781 C 58.757812 54.003906 58.425781 52.9375 57.5 52.101562 C 57.480469 51.644531 57.347656 51.242188 57.101562 50.898438 C 57.085938 50.359375 57.019531 49.824219 56.898438 49.300781 C 56.898438 49.035156 56.898438 48.765625 56.898438 48.5 C 53.171875 49.3125 49.804688 48.578125 46.800781 46.300781 C 47.007812 46.792969 47.175781 47.324219 47.300781 47.898438 C 45.804688 48.019531 44.605469 47.484375 43.699219 46.300781 C 43.46875 47.949219 43.070312 49.546875 42.5 51.101562 C 42.222656 51.378906 42.023438 51.714844 41.898438 52.101562 C 41.703125 52.359375 41.503906 52.625 41.300781 52.898438 C 41.136719 53.394531 41.035156 53.925781 41 54.5 C 40.964844 53.859375 40.863281 53.261719 40.699219 52.699219 C 40.480469 52.0625 40.214844 51.460938 39.898438 50.898438 C 39.898438 50.832031 39.898438 50.765625 39.898438 50.699219 C 39.566406 50.566406 39.234375 50.433594 38.898438 50.300781 C 39.113281 50.113281 39.378906 50.046875 39.699219 50.101562 C 39.183594 48.023438 39.183594 45.957031 39.699219 43.898438 C 40.042969 43.253906 40.507812 42.6875 41.101562 42.199219 C 40.421875 41.863281 39.824219 41.429688 39.300781 40.898438 C 39.242188 40.742188 39.144531 40.609375 39 40.5 C 36.503906 43.59375 35.367188 47.128906 35.601562 51.101562 C 35.773438 51.679688 36.007812 52.214844 36.300781 52.699219 C 36.484375 53.472656 36.785156 54.207031 37.199219 54.898438 C 37.804688 55.574219 38.304688 56.308594 38.699219 57.101562 C 38.699219 57.300781 38.699219 57.5 38.699219 57.699219 C 38.289062 57.703125 37.890625 57.769531 37.5 57.898438 C 37.257812 57.851562 37.125 57.71875 37.101562 57.5 C 37.328125 57.417969 37.527344 57.285156 37.699219 57.101562 C 36.917969 55.9375 36.253906 54.738281 35.699219 53.5 C 35.699219 53.367188 35.632812 53.300781 35.5 53.300781 C 35.5 53.234375 35.5 53.167969 35.5 53.101562 C 35.5 52.964844 35.433594 52.898438 35.300781 52.898438 C 34.6875 51.136719 34.554688 49.335938 34.898438 47.5 C 35.085938 47.285156 35.152344 47.019531 35.101562 46.699219 C 35.242188 45.949219 35.441406 45.214844 35.699219 44.5 C 35.699219 44.433594 35.699219 44.367188 35.699219 44.300781 C 35.898438 44.234375 36.035156 44.101562 36.101562 43.898438 C 36.488281 42.9375 36.957031 42.003906 37.5 41.101562 C 37.566406 40.898438 37.699219 40.765625 37.898438 40.699219 C 38.476562 39.71875 39.144531 38.785156 39.898438 37.898438 C 39.964844 37.898438 40.035156 37.898438 40.101562 37.898438 C 40.730469 37.769531 41.03125 37.367188 41 36.699219 C 41.796875 36.136719 42.496094 35.472656 43.101562 34.699219 C 43.296875 34.734375 43.429688 34.667969 43.5 34.5 C 43.722656 34.488281 43.921875 34.421875 44.101562 34.300781 C 44.320312 33.980469 44.585938 33.679688 44.898438 33.398438 C 45.96875 32.925781 46.96875 32.359375 47.898438 31.699219 Z M 47.898438 31.699219 "/>
<path style=" stroke:none;fill-rule:evenodd;fill:rgb(47.45098%,17.254902%,35.686275%);fill-opacity:1;" d="M 58.699219 42.300781 C 58.878906 42.457031 59.011719 42.65625 59.101562 42.898438 C 59.742188 45.324219 59.875 47.792969 59.5 50.300781 C 59.421875 50.9375 59.222656 51.539062 58.898438 52.101562 C 58.535156 52.3125 58.300781 52.179688 58.199219 51.699219 C 57.988281 50.746094 57.753906 49.8125 57.5 48.898438 C 57.496094 48.101562 57.898438 47.765625 58.699219 47.898438 C 58.699219 47.699219 58.699219 47.5 58.699219 47.300781 C 58.300781 47.300781 57.898438 47.300781 57.5 47.300781 C 55.460938 47.695312 53.390625 47.792969 51.300781 47.601562 C 51.023438 47.320312 50.859375 47.019531 50.800781 46.699219 C 49.714844 47.175781 49.347656 46.910156 49.699219 45.898438 C 49.5 45.898438 49.300781 45.898438 49.101562 45.898438 C 49.101562 45.699219 49.101562 45.5 49.101562 45.300781 C 51.074219 45.734375 53.074219 46.066406 55.101562 46.300781 C 55.894531 46.125 56.695312 45.992188 57.5 45.898438 C 58.253906 44.84375 58.652344 43.644531 58.699219 42.300781 Z M 58.699219 42.300781 "/>
<path style=" stroke:none;fill-rule:evenodd;fill:rgb(78.823529%,59.215686%,72.156863%);fill-opacity:1;" d="M 41.898438 42.5 C 42.007812 42.511719 42.074219 42.578125 42.101562 42.699219 C 40.539062 44.324219 39.972656 46.257812 40.398438 48.5 C 40.503906 49.1875 40.671875 49.855469 40.898438 50.5 C 41.058594 50.9375 41.058594 51.339844 40.898438 51.699219 C 40.222656 49.753906 39.925781 47.753906 40 45.699219 C 40.070312 44.289062 40.707031 43.222656 41.898438 42.5 Z M 41.898438 42.5 "/>
<path style=" stroke:none;fill-rule:evenodd;fill:rgb(60%,22.352941%,34.901961%);fill-opacity:1;" d="M 47.5 44.898438 C 46.855469 44.964844 46.1875 44.996094 45.5 45 C 45.203125 45.542969 45.269531 46.042969 45.699219 46.5 C 45.535156 46.675781 45.335938 46.742188 45.101562 46.699219 C 44.484375 46.257812 44.082031 45.65625 43.898438 44.898438 C 44.539062 44.964844 44.738281 44.730469 44.5 44.199219 C 45.730469 43.625 46.730469 43.859375 47.5 44.898438 Z M 47.5 44.898438 "/>
<path style=" stroke:none;fill-rule:evenodd;fill:rgb(62.745098%,32.54902%,47.45098%);fill-opacity:1;" d="M 44.5 39.300781 C 44.5 39.367188 44.5 39.433594 44.5 39.5 C 44.5 39.699219 44.5 39.898438 44.5 40.101562 C 44.214844 40.117188 43.945312 40.050781 43.699219 39.898438 C 43.507812 40.210938 43.441406 40.542969 43.5 40.898438 C 42.828125 40.957031 42.363281 40.691406 42.101562 40.101562 C 42.460938 40.347656 42.859375 40.480469 43.300781 40.5 C 43.128906 39.859375 42.929688 39.226562 42.699219 38.601562 C 42.808594 37.996094 43.042969 37.964844 43.398438 38.5 C 43.449219 38.886719 43.550781 39.253906 43.699219 39.601562 C 44.039062 39.695312 44.304688 39.597656 44.5 39.300781 Z M 44.5 39.300781 "/>
<path style=" stroke:none;fill-rule:evenodd;fill:rgb(67.058824%,24.313725%,32.156863%);fill-opacity:1;" d="M 56.5 38.300781 C 57.71875 38.816406 58.753906 39.613281 59.601562 40.699219 C 59.695312 40.890625 59.730469 41.089844 59.699219 41.300781 C 59.300781 41.300781 58.898438 41.300781 58.5 41.300781 C 58.527344 41.644531 58.59375 41.976562 58.699219 42.300781 C 58.652344 43.644531 58.253906 44.84375 57.5 45.898438 C 56.695312 45.992188 55.894531 46.125 55.101562 46.300781 C 53.074219 46.066406 51.074219 45.734375 49.101562 45.300781 C 48.601562 45.046875 48.066406 44.910156 47.5 44.898438 C 46.730469 43.859375 45.730469 43.625 44.5 44.199219 C 44.738281 44.730469 44.539062 44.964844 43.898438 44.898438 C 43.722656 44.777344 43.523438 44.710938 43.300781 44.699219 C 42.910156 44.453125 42.644531 44.589844 42.5 45.101562 C 42.265625 46.234375 42.03125 47.367188 41.800781 48.5 C 41.609375 49.230469 41.308594 49.898438 40.898438 50.5 C 40.671875 49.855469 40.503906 49.1875 40.398438 48.5 C 39.972656 46.257812 40.539062 44.324219 42.101562 42.699219 C 42.074219 42.578125 42.007812 42.511719 41.898438 42.5 C 42.148438 42.359375 42.246094 42.15625 42.199219 41.898438 C 41.488281 41.527344 40.789062 41.128906 40.101562 40.699219 C 39.78125 40.367188 39.648438 39.964844 39.699219 39.5 C 40.582031 39.40625 41.382812 39.605469 42.101562 40.101562 C 42.363281 40.691406 42.828125 40.957031 43.5 40.898438 C 43.441406 40.542969 43.507812 40.210938 43.699219 39.898438 C 43.945312 40.050781 44.214844 40.117188 44.5 40.101562 C 44.5 39.898438 44.5 39.699219 44.5 39.5 C 45.539062 38.496094 46.773438 37.832031 48.199219 37.5 C 48.542969 37.777344 48.945312 37.914062 49.398438 37.898438 C 50.066406 37.703125 50.730469 37.503906 51.398438 37.300781 C 53.117188 37.558594 54.816406 37.890625 56.5 38.300781 Z M 56.5 38.300781 "/>
<path style=" stroke:none;fill-rule:evenodd;fill:rgb(74.117647%,37.647059%,44.705882%);fill-opacity:1;" d="M 53.101562 43.699219 C 54.375 43.660156 55.640625 43.726562 56.898438 43.898438 C 56.953125 44.195312 56.886719 44.460938 56.699219 44.699219 C 55.449219 45.199219 54.183594 45.230469 52.898438 44.800781 C 52.632812 44.371094 52.699219 44.003906 53.101562 43.699219 Z M 53.101562 43.699219 "/>
<path style=" stroke:none;fill-rule:evenodd;fill:rgb(82.352941%,61.568627%,71.372549%);fill-opacity:1;" d="M 56.5 38.300781 C 54.816406 37.890625 53.117188 37.558594 51.398438 37.300781 C 50.730469 37.503906 50.066406 37.703125 49.398438 37.898438 C 48.945312 37.914062 48.542969 37.777344 48.199219 37.5 C 46.773438 37.832031 45.539062 38.496094 44.5 39.5 C 44.5 39.433594 44.5 39.367188 44.5 39.300781 C 45.441406 38.027344 46.710938 37.261719 48.300781 37 C 49.898438 36.867188 51.5 36.867188 53.101562 37 C 54.3125 37.285156 55.445312 37.71875 56.5 38.300781 Z M 56.5 38.300781 "/>
<path style=" stroke:none;fill-rule:evenodd;fill:rgb(62.745098%,65.098039%,75.294118%);fill-opacity:1;" d="M 51.300781 32.699219 C 49.921875 32.53125 48.65625 32.832031 47.5 33.601562 C 45.707031 34.59375 44.105469 35.828125 42.699219 37.300781 C 42.019531 37.613281 41.753906 38.148438 41.898438 38.898438 C 41.414062 38.960938 40.949219 38.894531 40.5 38.699219 C 40.601562 38.5 40.699219 38.300781 40.800781 38.101562 C 42.460938 36.371094 44.292969 34.871094 46.300781 33.601562 C 47.863281 32.546875 49.527344 32.25 51.300781 32.699219 Z M 51.300781 32.699219 "/>
<path style=" stroke:none;fill-rule:evenodd;fill:rgb(30.196078%,34.901961%,41.960784%);fill-opacity:1;" d="M 51.300781 32.699219 C 51.738281 32.742188 52.136719 32.875 52.5 33.101562 C 53.253906 34.265625 54.152344 35.332031 55.199219 36.300781 C 55.238281 36.613281 55.070312 36.746094 54.699219 36.699219 C 53.320312 36.390625 51.917969 36.191406 50.5 36.101562 C 48.082031 36.09375 45.980469 36.894531 44.199219 38.5 C 43.898438 37.828125 43.398438 37.429688 42.699219 37.300781 C 44.105469 35.828125 45.707031 34.59375 47.5 33.601562 C 48.65625 32.832031 49.921875 32.53125 51.300781 32.699219 Z M 51.300781 32.699219 "/>
<path style=" stroke:none;fill-rule:evenodd;fill:rgb(43.921569%,16.862745%,38.823529%);fill-opacity:1;" d="M 47.5 44.898438 C 48.066406 44.910156 48.601562 45.046875 49.101562 45.300781 C 49.101562 45.5 49.101562 45.699219 49.101562 45.898438 C 49.300781 45.898438 49.5 45.898438 49.699219 45.898438 C 49.347656 46.910156 49.714844 47.175781 50.800781 46.699219 C 50.859375 47.019531 51.023438 47.320312 51.300781 47.601562 C 53.390625 47.792969 55.460938 47.695312 57.5 47.300781 C 53.429688 48.828125 49.761719 48.125 46.5 45.199219 C 46.308594 45.101562 46.109375 45.070312 45.898438 45.101562 C 45.820312 45.785156 45.953125 46.417969 46.300781 47 C 45.824219 47.148438 45.421875 47.046875 45.101562 46.699219 C 45.335938 46.742188 45.535156 46.675781 45.699219 46.5 C 45.269531 46.042969 45.203125 45.542969 45.5 45 C 46.1875 44.996094 46.855469 44.964844 47.5 44.898438 Z M 47.5 44.898438 "/>
<path style=" stroke:none;fill-rule:evenodd;fill:rgb(38.823529%,16.470588%,41.568627%);fill-opacity:1;" d="M 59.101562 42.898438 C 59.816406 44.253906 60.148438 45.71875 60.101562 47.300781 C 60.171875 48.378906 59.972656 49.378906 59.5 50.300781 C 59.875 47.792969 59.742188 45.324219 59.101562 42.898438 Z M 59.101562 42.898438 "/>
<path style=" stroke:none;fill-rule:evenodd;fill:rgb(47.45098%,18.039216%,36.862745%);fill-opacity:1;" d="M 43.300781 44.699219 C 42.890625 46.421875 42.523438 48.152344 42.199219 49.898438 C 41.996094 50.550781 41.695312 51.152344 41.300781 51.699219 C 41.148438 51.953125 41.015625 51.953125 40.898438 51.699219 C 41.058594 51.339844 41.058594 50.9375 40.898438 50.5 C 41.308594 49.898438 41.609375 49.230469 41.800781 48.5 C 42.03125 47.367188 42.265625 46.234375 42.5 45.101562 C 42.644531 44.589844 42.910156 44.453125 43.300781 44.699219 Z M 43.300781 44.699219 "/>
<path style=" stroke:none;fill-rule:evenodd;fill:rgb(59.607843%,62.352941%,73.72549%);fill-opacity:1;" d="M 39.300781 40.898438 C 37.894531 42.980469 36.859375 45.246094 36.199219 47.699219 C 36.050781 49.375 36.085938 51.039062 36.300781 52.699219 C 36.007812 52.214844 35.773438 51.679688 35.601562 51.101562 C 35.367188 47.128906 36.503906 43.59375 39 40.5 C 39.144531 40.609375 39.242188 40.742188 39.300781 40.898438 Z M 39.300781 40.898438 "/>
<path style=" stroke:none;fill-rule:evenodd;fill:rgb(42.745098%,79.215686%,36.862745%);fill-opacity:1;" d="M 64.699219 46.699219 C 67.234375 46.667969 69.769531 46.699219 72.300781 46.800781 C 72.46875 47.003906 72.535156 47.234375 72.5 47.5 C 69.964844 47.5 67.433594 47.5 64.898438 47.5 C 64.714844 47.285156 64.644531 47.019531 64.699219 46.699219 Z M 64.699219 46.699219 "/>
<path style=" stroke:none;fill-rule:evenodd;fill:rgb(39.607843%,91.372549%,29.411765%);fill-opacity:1;" d="M 65.101562 46.898438 C 67.4375 46.832031 69.769531 46.898438 72.101562 47.101562 C 70.933594 47.167969 69.765625 47.234375 68.601562 47.300781 C 67.359375 47.300781 66.191406 47.164062 65.101562 46.898438 Z M 65.101562 46.898438 "/>
<path style=" stroke:none;fill-rule:evenodd;fill:rgb(43.921569%,81.960784%,38.039216%);fill-opacity:1;" d="M 28.300781 46.699219 C 30.566406 46.699219 32.832031 46.699219 35.101562 46.699219 C 35.152344 47.019531 35.085938 47.285156 34.898438 47.5 C 34.765625 47.5 34.632812 47.5 34.5 47.5 C 32.433594 47.5 30.367188 47.5 28.300781 47.5 C 28.300781 47.234375 28.300781 46.964844 28.300781 46.699219 Z M 28.300781 46.699219 "/>
<path style=" stroke:none;fill-rule:evenodd;fill:rgb(39.215686%,91.764706%,29.019608%);fill-opacity:1;" d="M 28.5 46.898438 C 30.503906 46.832031 32.503906 46.898438 34.5 47.101562 C 33.5 47.167969 32.5 47.234375 31.5 47.300781 C 30.421875 47.296875 29.421875 47.164062 28.5 46.898438 Z M 28.5 46.898438 "/>
<path style=" stroke:none;fill-rule:evenodd;fill:rgb(18.431373%,29.803922%,16.862745%);fill-opacity:1;" d="M 28.300781 46.699219 C 28.300781 46.964844 28.300781 47.234375 28.300781 47.5 C 30.367188 47.5 32.433594 47.5 34.5 47.5 C 32.402344 47.699219 30.269531 47.765625 28.101562 47.699219 C 28.042969 47.316406 28.109375 46.984375 28.300781 46.699219 Z M 28.300781 46.699219 "/>
<path style=" stroke:none;fill-rule:evenodd;fill:rgb(30.588235%,36.078431%,41.960784%);fill-opacity:1;" d="M 39.300781 40.898438 C 39.824219 41.429688 40.421875 41.863281 41.101562 42.199219 C 40.507812 42.6875 40.042969 43.253906 39.699219 43.898438 C 38.78125 45.449219 38.648438 47.117188 39.300781 48.898438 C 38.960938 49.046875 38.660156 49.246094 38.398438 49.5 C 38.316406 49.410156 38.21875 49.34375 38.101562 49.300781 C 37.835938 50.832031 37.601562 52.367188 37.398438 53.898438 C 37.234375 53.667969 37.066406 53.433594 36.898438 53.199219 C 37.175781 52.878906 37.308594 52.515625 37.300781 52.101562 C 37.101562 52.101562 36.898438 52.101562 36.699219 52.101562 C 36.742188 52.4375 36.609375 52.636719 36.300781 52.699219 C 36.085938 51.039062 36.050781 49.375 36.199219 47.699219 C 36.859375 45.246094 37.894531 42.980469 39.300781 40.898438 Z M 39.300781 40.898438 "/>
<path style=" stroke:none;fill-rule:evenodd;fill:rgb(68.235294%,50.980392%,56.078431%);fill-opacity:1;" d="M 56.898438 49.300781 C 56.488281 49.0625 56.023438 48.929688 55.5 48.898438 C 54.035156 49.050781 52.570312 49.117188 51.101562 49.101562 C 50.304688 48.835938 49.503906 48.566406 48.699219 48.300781 C 48.289062 48.503906 47.855469 48.636719 47.398438 48.699219 C 46.394531 48.578125 45.429688 48.308594 44.5 47.898438 C 44.3125 47.921875 44.144531 47.988281 44 48.101562 C 43.804688 49.121094 43.4375 50.054688 42.898438 50.898438 C 42.765625 50.964844 42.632812 51.035156 42.5 51.101562 C 43.070312 49.546875 43.46875 47.949219 43.699219 46.300781 C 44.605469 47.484375 45.804688 48.019531 47.300781 47.898438 C 47.175781 47.324219 47.007812 46.792969 46.800781 46.300781 C 49.804688 48.578125 53.171875 49.3125 56.898438 48.5 C 56.898438 48.765625 56.898438 49.035156 56.898438 49.300781 Z M 56.898438 49.300781 "/>
<path style=" stroke:none;fill-rule:evenodd;fill:rgb(97.647059%,74.117647%,57.647059%);fill-opacity:1;" d="M 51.101562 49.101562 C 52.339844 49.242188 53.605469 49.375 54.898438 49.5 C 55.371094 49.152344 55.902344 49.019531 56.5 49.101562 C 56.507812 49.925781 56.640625 50.726562 56.898438 51.5 C 56.570312 51.503906 56.304688 51.371094 56.101562 51.101562 C 55.398438 51.65625 54.796875 51.554688 54.300781 50.800781 C 54.523438 50.589844 54.792969 50.457031 55.101562 50.398438 C 54.898438 50.300781 54.699219 50.199219 54.5 50.101562 C 54.28125 50.34375 54.015625 50.511719 53.699219 50.601562 C 52.832031 50.667969 51.964844 50.734375 51.101562 50.800781 C 50.964844 50.933594 50.832031 51.066406 50.699219 51.199219 C 49.667969 51.246094 48.667969 51.277344 47.699219 51.300781 C 47.699219 51.101562 47.699219 50.898438 47.699219 50.699219 C 47.039062 50.523438 46.375 50.492188 45.699219 50.601562 C 45.394531 50.820312 45.257812 51.121094 45.300781 51.5 C 46.035156 51.5 46.765625 51.5 47.5 51.5 C 47.5 51.699219 47.5 51.898438 47.5 52.101562 C 47.039062 52 46.570312 51.933594 46.101562 51.898438 C 45.910156 51.769531 45.675781 51.703125 45.398438 51.699219 C 45.070312 51.734375 44.800781 51.867188 44.601562 52.101562 C 44.019531 51.796875 43.386719 51.59375 42.699219 51.5 C 42.824219 51.316406 42.890625 51.117188 42.898438 50.898438 C 43.4375 50.054688 43.804688 49.121094 44 48.101562 C 44.144531 47.988281 44.3125 47.921875 44.5 47.898438 C 45.429688 48.308594 46.394531 48.578125 47.398438 48.699219 C 47.855469 48.636719 48.289062 48.503906 48.699219 48.300781 C 49.503906 48.566406 50.304688 48.835938 51.101562 49.101562 Z M 51.101562 49.101562 "/>
<path style=" stroke:none;fill-rule:evenodd;fill:rgb(94.901961%,74.509804%,60%);fill-opacity:1;" d="M 56.898438 49.300781 C 57.019531 49.824219 57.085938 50.359375 57.101562 50.898438 C 57.382812 52.570312 57.347656 54.238281 57 55.898438 C 56.8125 56.171875 56.644531 56.4375 56.5 56.699219 C 56.195312 56.703125 55.964844 56.835938 55.800781 57.101562 C 55.734375 57.035156 55.667969 56.964844 55.601562 56.898438 C 55.667969 56.546875 55.769531 56.183594 55.898438 55.800781 C 55.832031 55.632812 55.765625 55.464844 55.699219 55.300781 C 55.5625 55.710938 55.328125 56.042969 55 56.300781 C 54.90625 56.179688 54.875 56.046875 54.898438 55.898438 C 55.214844 55.457031 55.414062 54.921875 55.5 54.300781 C 55.738281 54.09375 56.007812 53.925781 56.300781 53.800781 C 56.199219 53.699219 56.101562 53.601562 56 53.5 C 55.933594 52.964844 55.867188 52.433594 55.800781 51.898438 C 55.734375 51.964844 55.667969 52.035156 55.601562 52.101562 C 54.5625 51.589844 53.527344 51.589844 52.5 52.101562 C 52.433594 52.929688 51.964844 53.261719 51.101562 53.101562 C 51.046875 53.394531 51.113281 53.664062 51.300781 53.898438 C 51.742188 53.539062 52.207031 53.472656 52.699219 53.699219 C 52.394531 54.328125 52.0625 54.929688 51.699219 55.5 C 51.601562 55.0625 51.601562 54.664062 51.699219 54.300781 C 50.515625 54.390625 49.414062 54.457031 48.398438 54.5 C 48.132812 54.285156 47.835938 54.148438 47.5 54.101562 C 46.753906 53.746094 46.753906 53.414062 47.5 53.101562 C 47.757812 52.738281 47.757812 52.40625 47.5 52.101562 C 47.5 51.898438 47.5 51.699219 47.5 51.5 C 46.765625 51.5 46.035156 51.5 45.300781 51.5 C 45.257812 51.121094 45.394531 50.820312 45.699219 50.601562 C 46.375 50.492188 47.039062 50.523438 47.699219 50.699219 C 47.699219 50.898438 47.699219 51.101562 47.699219 51.300781 C 48.667969 51.277344 49.667969 51.246094 50.699219 51.199219 C 50.832031 51.066406 50.964844 50.933594 51.101562 50.800781 C 51.964844 50.734375 52.832031 50.667969 53.699219 50.601562 C 54.015625 50.511719 54.28125 50.34375 54.5 50.101562 C 54.699219 50.199219 54.898438 50.300781 55.101562 50.398438 C 54.792969 50.457031 54.523438 50.589844 54.300781 50.800781 C 54.796875 51.554688 55.398438 51.65625 56.101562 51.101562 C 56.304688 51.371094 56.570312 51.503906 56.898438 51.5 C 56.640625 50.726562 56.507812 49.925781 56.5 49.101562 C 55.902344 49.019531 55.371094 49.152344 54.898438 49.5 C 53.605469 49.375 52.339844 49.242188 51.101562 49.101562 C 52.570312 49.117188 54.035156 49.050781 55.5 48.898438 C 56.023438 48.929688 56.488281 49.0625 56.898438 49.300781 Z M 56.898438 49.300781 "/>
<path style=" stroke:none;fill-rule:evenodd;fill:rgb(41.568627%,78.431373%,36.862745%);fill-opacity:1;" d="M 28.101562 49.898438 C 29.566406 49.867188 31.035156 49.898438 32.5 50 C 32.667969 50.203125 32.734375 50.4375 32.699219 50.699219 C 31.167969 50.699219 29.632812 50.699219 28.101562 50.699219 C 28.101562 50.433594 28.101562 50.167969 28.101562 49.898438 Z M 28.101562 49.898438 "/>
<path style=" stroke:none;fill-rule:evenodd;fill:rgb(40.392157%,90.980392%,32.54902%);fill-opacity:1;" d="M 28.5 50.101562 C 29.773438 50.035156 31.039062 50.101562 32.300781 50.300781 C 31.667969 50.367188 31.035156 50.433594 30.398438 50.5 C 29.683594 50.496094 29.050781 50.363281 28.5 50.101562 Z M 28.5 50.101562 "/>
<path style=" stroke:none;fill-rule:evenodd;fill:rgb(43.529412%,81.176471%,40.784314%);fill-opacity:1;" d="M 65.101562 49.898438 C 65.789062 49.75 66.125 50.019531 66.101562 50.699219 C 65.765625 50.699219 65.433594 50.699219 65.101562 50.699219 C 65.101562 50.433594 65.101562 50.167969 65.101562 49.898438 Z M 65.101562 49.898438 "/>
<path style=" stroke:none;fill-rule:evenodd;fill:rgb(43.529412%,79.607843%,37.647059%);fill-opacity:1;" d="M 68.699219 49.898438 C 69.902344 49.867188 71.101562 49.898438 72.300781 50 C 72.46875 50.203125 72.535156 50.4375 72.5 50.699219 C 71.234375 50.699219 69.964844 50.699219 68.699219 50.699219 C 68.699219 50.433594 68.699219 50.167969 68.699219 49.898438 Z M 68.699219 49.898438 "/>
<path style=" stroke:none;fill-rule:evenodd;fill:rgb(40.784314%,90.196078%,32.156863%);fill-opacity:1;" d="M 68.898438 50.101562 C 69.976562 50.035156 71.042969 50.101562 72.101562 50.300781 C 71.566406 50.367188 71.035156 50.433594 70.5 50.5 C 69.882812 50.496094 69.347656 50.363281 68.898438 50.101562 Z M 68.898438 50.101562 "/>
<path style=" stroke:none;fill-rule:evenodd;fill:rgb(89.019608%,78.823529%,77.647059%);fill-opacity:1;" d="M 39.898438 50.699219 C 39.898438 50.765625 39.898438 50.832031 39.898438 50.898438 C 39.636719 50.867188 39.402344 50.933594 39.199219 51.101562 C 39.101562 51.898438 39.066406 52.695312 39.101562 53.5 C 38.671875 52.839844 38.503906 52.105469 38.601562 51.300781 C 38.902344 50.816406 39.335938 50.617188 39.898438 50.699219 Z M 39.898438 50.699219 "/>
<path style=" stroke:none;fill-rule:evenodd;fill:rgb(11.764706%,6.27451%,36.078431%);fill-opacity:1;" d="M 45.101562 52.101562 C 45.636719 52.066406 46.171875 52.101562 46.699219 52.199219 C 46.980469 52.273438 47.183594 52.441406 47.300781 52.699219 C 46.375 52.679688 45.441406 52.746094 44.5 52.898438 C 44.433594 52.867188 44.367188 52.832031 44.300781 52.800781 C 44.476562 52.660156 44.609375 52.492188 44.699219 52.300781 C 44.832031 52.234375 44.964844 52.167969 45.101562 52.101562 Z M 45.101562 52.101562 "/>
<path style=" stroke:none;fill-rule:evenodd;fill:rgb(90.980392%,72.941176%,63.529412%);fill-opacity:1;" d="M 60.699219 53.898438 C 59.710938 54.304688 59.242188 53.972656 59.300781 52.898438 C 59.5625 52.238281 59.832031 51.570312 60.101562 50.898438 C 60.902344 50.734375 61.234375 51.101562 61.101562 52 C 61.070312 52.660156 60.9375 53.292969 60.699219 53.898438 Z M 60.699219 53.898438 "/>
<path style=" stroke:none;fill-rule:evenodd;fill:rgb(93.72549%,74.901961%,61.176471%);fill-opacity:1;" d="M 39.898438 50.898438 C 40.050781 51.875 40.25 52.84375 40.5 53.800781 C 40.464844 54.167969 40.433594 54.535156 40.398438 54.898438 C 40.132812 54.683594 39.835938 54.550781 39.5 54.5 C 39.210938 54.234375 39.078125 53.902344 39.101562 53.5 C 39.066406 52.695312 39.101562 51.898438 39.199219 51.101562 C 39.402344 50.933594 39.636719 50.867188 39.898438 50.898438 Z M 39.898438 50.898438 "/>
<path style=" stroke:none;fill-rule:evenodd;fill:rgb(18.431373%,27.45098%,22.352941%);fill-opacity:1;" d="M 35.300781 52.898438 C 35.433594 52.898438 35.5 52.964844 35.5 53.101562 C 33.164062 53.066406 30.832031 53.101562 28.5 53.199219 C 28.332031 53.402344 28.265625 53.636719 28.300781 53.898438 C 27.773438 53.636719 27.773438 53.335938 28.300781 53 C 30.632812 52.898438 32.964844 52.867188 35.300781 52.898438 Z M 35.300781 52.898438 "/>
<path style=" stroke:none;fill-rule:evenodd;fill:rgb(18.039216%,27.058824%,21.568627%);fill-opacity:1;" d="M 64.5 52.898438 C 67.136719 52.835938 69.734375 52.902344 72.300781 53.101562 C 69.832031 53.066406 67.367188 53.101562 64.898438 53.199219 C 64.734375 53.402344 64.664062 53.636719 64.699219 53.898438 C 64.632812 53.898438 64.566406 53.898438 64.5 53.898438 C 64.5 53.566406 64.5 53.234375 64.5 52.898438 Z M 64.5 52.898438 "/>
<path style=" stroke:none;fill-rule:evenodd;fill:rgb(30.588235%,58.431373%,30.588235%);fill-opacity:1;" d="M 72.300781 53.101562 C 72.300781 53.167969 72.300781 53.234375 72.300781 53.300781 C 69.894531 53.234375 67.496094 53.300781 65.101562 53.5 C 65.140625 53.617188 65.207031 53.71875 65.300781 53.800781 C 67.632812 53.898438 69.964844 53.933594 72.300781 53.898438 C 69.785156 54.164062 67.253906 54.164062 64.699219 53.898438 C 64.664062 53.636719 64.734375 53.402344 64.898438 53.199219 C 67.367188 53.101562 69.832031 53.066406 72.300781 53.101562 Z M 72.300781 53.101562 "/>
<path style=" stroke:none;fill-rule:evenodd;fill:rgb(40%,83.137255%,37.647059%);fill-opacity:1;" d="M 35.5 53.101562 C 35.5 53.167969 35.5 53.234375 35.5 53.300781 C 35.5 53.5 35.5 53.699219 35.5 53.898438 C 33.101562 53.898438 30.699219 53.898438 28.300781 53.898438 C 28.265625 53.636719 28.332031 53.402344 28.5 53.199219 C 30.832031 53.101562 33.164062 53.066406 35.5 53.101562 Z M 35.5 53.101562 "/>
<path style=" stroke:none;fill-rule:evenodd;fill:rgb(85.490196%,73.333333%,72.941176%);fill-opacity:1;" d="M 39.898438 50.898438 C 40.214844 51.460938 40.480469 52.0625 40.699219 52.699219 C 40.765625 53.578125 40.699219 54.445312 40.5 55.300781 C 40.042969 55.171875 39.710938 54.90625 39.5 54.5 C 39.835938 54.550781 40.132812 54.683594 40.398438 54.898438 C 40.433594 54.535156 40.464844 54.167969 40.5 53.800781 C 40.25 52.84375 40.050781 51.875 39.898438 50.898438 Z M 39.898438 50.898438 "/>
<path style=" stroke:none;fill-rule:evenodd;fill:rgb(42.352941%,88.235294%,38.823529%);fill-opacity:1;" d="M 72.300781 53.300781 C 72.566406 53.5 72.566406 53.699219 72.300781 53.898438 C 69.964844 53.933594 67.632812 53.898438 65.300781 53.800781 C 65.207031 53.71875 65.140625 53.617188 65.101562 53.5 C 67.496094 53.300781 69.894531 53.234375 72.300781 53.300781 Z M 72.300781 53.300781 "/>
<path style=" stroke:none;fill-rule:evenodd;fill:rgb(27.843137%,48.627451%,31.372549%);fill-opacity:1;" d="M 35.5 53.300781 C 35.632812 53.300781 35.699219 53.367188 35.699219 53.5 C 35.699219 53.699219 35.699219 53.898438 35.699219 54.101562 C 33.367188 54.101562 31.035156 54.101562 28.699219 54.101562 C 28.5 54.132812 28.367188 54.066406 28.300781 53.898438 C 30.699219 53.898438 33.101562 53.898438 35.5 53.898438 C 35.5 53.699219 35.5 53.5 35.5 53.300781 Z M 35.5 53.300781 "/>
<path style=" stroke:none;fill-rule:evenodd;fill:rgb(23.529412%,25.490196%,32.54902%);fill-opacity:1;" d="M 72.300781 53.300781 C 72.300781 53.234375 72.300781 53.167969 72.300781 53.101562 C 73.230469 53.390625 73.296875 53.824219 72.5 54.398438 C 71.890625 54.4375 71.289062 54.535156 70.699219 54.699219 C 70.464844 55.691406 70.132812 56.625 69.699219 57.5 C 69.457031 56.949219 69.15625 56.414062 68.800781 55.898438 C 68.425781 56.191406 67.992188 56.394531 67.5 56.5 C 66.300781 56.765625 65.101562 56.765625 63.898438 56.5 C 63.121094 55.832031 63.1875 55.429688 64.101562 55.300781 C 64.066406 54.894531 64.101562 54.496094 64.199219 54.101562 C 64.421875 54.34375 64.519531 54.277344 64.5 53.898438 C 64.566406 53.898438 64.632812 53.898438 64.699219 53.898438 C 67.253906 54.164062 69.785156 54.164062 72.300781 53.898438 C 72.566406 53.699219 72.566406 53.5 72.300781 53.300781 Z M 72.300781 53.300781 "/>
<path style=" stroke:none;fill-rule:evenodd;fill:rgb(29.411765%,39.215686%,49.019608%);fill-opacity:1;" d="M 39.699219 43.898438 C 39.183594 45.957031 39.183594 48.023438 39.699219 50.101562 C 39.378906 50.046875 39.113281 50.113281 38.898438 50.300781 C 38.449219 50.382812 38.148438 50.648438 38 51.101562 C 37.882812 52.964844 38.515625 54.53125 39.898438 55.800781 C 40.289062 55.960938 40.6875 56.0625 41.101562 56.101562 C 41.261719 57.421875 41.796875 58.558594 42.699219 59.5 C 42.761719 59.628906 42.828125 59.761719 42.898438 59.898438 C 42.585938 60.125 42.25 60.160156 41.898438 60 C 40.800781 59.066406 39.734375 58.097656 38.699219 57.101562 C 38.304688 56.308594 37.804688 55.574219 37.199219 54.898438 C 36.785156 54.207031 36.484375 53.472656 36.300781 52.699219 C 36.609375 52.636719 36.742188 52.4375 36.699219 52.101562 C 36.898438 52.101562 37.101562 52.101562 37.300781 52.101562 C 37.308594 52.515625 37.175781 52.878906 36.898438 53.199219 C 37.066406 53.433594 37.234375 53.667969 37.398438 53.898438 C 37.601562 52.367188 37.835938 50.832031 38.101562 49.300781 C 38.21875 49.34375 38.316406 49.410156 38.398438 49.5 C 38.660156 49.246094 38.960938 49.046875 39.300781 48.898438 C 38.648438 47.117188 38.78125 45.449219 39.699219 43.898438 Z M 39.699219 43.898438 "/>
<path style=" stroke:none;fill-rule:evenodd;fill:rgb(90.588235%,74.901961%,61.960784%);fill-opacity:1;" d="M 54.898438 55.898438 C 55.429688 54.472656 54.964844 53.707031 53.5 53.601562 C 53.324219 53.808594 53.125 53.976562 52.898438 54.101562 C 52.605469 54.269531 52.441406 54.535156 52.398438 54.898438 C 52.402344 55.753906 52.238281 56.554688 51.898438 57.300781 C 52.136719 57.484375 52.40625 57.550781 52.699219 57.5 C 52.699219 57.234375 52.699219 56.964844 52.699219 56.699219 C 53.4375 56.667969 54.167969 56.699219 54.898438 56.800781 C 55.074219 57.117188 55.273438 57.417969 55.5 57.699219 C 55.035156 57.847656 54.671875 58.113281 54.398438 58.5 C 53.777344 58.070312 53.078125 57.867188 52.300781 57.898438 C 52.300781 58.167969 52.300781 58.433594 52.300781 58.699219 C 52.765625 58.699219 53.167969 58.867188 53.5 59.199219 C 52.792969 59.851562 52.160156 59.75 51.601562 58.898438 C 51.535156 58.964844 51.464844 59.035156 51.398438 59.101562 C 51.246094 58.832031 51.011719 58.664062 50.699219 58.601562 C 49.273438 58.789062 48.074219 58.386719 47.101562 57.398438 C 47.269531 57.261719 47.40625 57.09375 47.5 56.898438 C 47.628906 55.980469 47.628906 55.046875 47.5 54.101562 C 47.835938 54.148438 48.132812 54.285156 48.398438 54.5 C 49.414062 54.457031 50.515625 54.390625 51.699219 54.300781 C 51.601562 54.664062 51.601562 55.0625 51.699219 55.5 C 52.0625 54.929688 52.394531 54.328125 52.699219 53.699219 C 52.207031 53.472656 51.742188 53.539062 51.300781 53.898438 C 51.113281 53.664062 51.046875 53.394531 51.101562 53.101562 C 51.964844 53.261719 52.433594 52.929688 52.5 52.101562 C 53.527344 51.589844 54.5625 51.589844 55.601562 52.101562 C 55.667969 52.035156 55.734375 51.964844 55.800781 51.898438 C 55.867188 52.433594 55.933594 52.964844 56 53.5 C 56.101562 53.601562 56.199219 53.699219 56.300781 53.800781 C 56.007812 53.925781 55.738281 54.09375 55.5 54.300781 C 55.414062 54.921875 55.214844 55.457031 54.898438 55.898438 Z M 54.898438 55.898438 "/>
<path style=" stroke:none;fill-rule:evenodd;fill:rgb(11.372549%,5.490196%,34.901961%);fill-opacity:1;" d="M 53.300781 52.101562 C 54.226562 51.945312 55.027344 52.179688 55.699219 52.800781 C 54.800781 52.65625 53.902344 52.691406 53 52.898438 C 52.898438 52.832031 52.800781 52.765625 52.699219 52.699219 C 52.867188 52.453125 53.066406 52.253906 53.300781 52.101562 Z M 53.300781 52.101562 "/>
<path style=" stroke:none;fill-rule:evenodd;fill:rgb(12.941176%,10.980392%,44.313725%);fill-opacity:1;" d="M 54.898438 55.898438 C 54.03125 56.773438 53.332031 56.640625 52.800781 55.5 C 52.6875 55.023438 52.722656 54.554688 52.898438 54.101562 C 53.125 53.976562 53.324219 53.808594 53.5 53.601562 C 54.964844 53.707031 55.429688 54.472656 54.898438 55.898438 Z M 54.898438 55.898438 "/>
<path style=" stroke:none;fill-rule:evenodd;fill:rgb(77.254902%,82.352941%,94.509804%);fill-opacity:1;" d="M 53.5 54.300781 C 53.835938 54.4375 53.96875 54.703125 53.898438 55.101562 C 53.699219 55.101562 53.5 55.101562 53.300781 55.101562 C 53.285156 54.808594 53.351562 54.542969 53.5 54.300781 Z M 53.5 54.300781 "/>
<path style=" stroke:none;fill-rule:evenodd;fill:rgb(59.607843%,52.941176%,64.705882%);fill-opacity:1;" d="M 59.300781 52.898438 C 59.242188 53.972656 59.710938 54.304688 60.699219 53.898438 C 60.367188 54.503906 59.898438 54.96875 59.300781 55.300781 C 59.039062 54.46875 59.039062 53.671875 59.300781 52.898438 Z M 59.300781 52.898438 "/>
<path style=" stroke:none;fill-rule:evenodd;fill:rgb(65.882353%,56.470588%,57.254902%);fill-opacity:1;" d="M 57.101562 50.898438 C 57.347656 51.242188 57.480469 51.644531 57.5 52.101562 C 57.855469 52.789062 58.054688 53.558594 58.101562 54.398438 C 57.941406 55.585938 57.640625 56.753906 57.199219 57.898438 C 56.964844 57.652344 56.730469 57.652344 56.5 57.898438 C 56.660156 58.214844 56.730469 58.546875 56.699219 58.898438 C 56.699219 59.035156 56.632812 59.101562 56.5 59.101562 C 56.527344 58.925781 56.460938 58.792969 56.300781 58.699219 C 56.148438 58.875 56.050781 59.074219 56 59.300781 C 55.855469 58.585938 55.554688 58.519531 55.101562 59.101562 C 55.667969 58.367188 56.132812 57.566406 56.5 56.699219 C 56.644531 56.4375 56.8125 56.171875 57 55.898438 C 57.347656 54.238281 57.382812 52.570312 57.101562 50.898438 Z M 57.101562 50.898438 "/>
<path style=" stroke:none;fill-rule:evenodd;fill:rgb(10.588235%,10.588235%,44.705882%);fill-opacity:1;" d="M 45.101562 55.898438 C 45.070312 55.21875 45.136719 54.554688 45.300781 53.898438 C 46.375 53.296875 47.042969 53.628906 47.300781 54.898438 C 47.082031 56.511719 46.347656 56.84375 45.101562 55.898438 Z M 45.101562 55.898438 "/>
<path style=" stroke:none;fill-rule:evenodd;fill:rgb(75.686275%,82.745098%,93.72549%);fill-opacity:1;" d="M 46.300781 54.300781 C 46.515625 54.324219 46.652344 54.457031 46.699219 54.699219 C 46.539062 55.191406 46.339844 55.191406 46.101562 54.699219 C 46.171875 54.5625 46.238281 54.429688 46.300781 54.300781 Z M 46.300781 54.300781 "/>
<path style=" stroke:none;fill-rule:evenodd;fill:rgb(23.921569%,28.235294%,37.254902%);fill-opacity:1;" d="M 64.5 52.898438 C 64.5 53.234375 64.5 53.566406 64.5 53.898438 C 64.519531 54.277344 64.421875 54.34375 64.199219 54.101562 C 64.101562 54.496094 64.066406 54.894531 64.101562 55.300781 C 63.1875 55.429688 63.121094 55.832031 63.898438 56.5 C 65.101562 56.765625 66.300781 56.765625 67.5 56.5 C 67.992188 56.394531 68.425781 56.191406 68.800781 55.898438 C 69.15625 56.414062 69.457031 56.949219 69.699219 57.5 C 69.398438 59.488281 68.933594 61.421875 68.300781 63.300781 C 67.890625 62.277344 67.390625 61.277344 66.800781 60.300781 C 66.039062 59.742188 65.339844 59.105469 64.699219 58.398438 C 63.90625 57.765625 63.042969 57.332031 62.101562 57.101562 C 63.054688 55.757812 63.851562 54.359375 64.5 52.898438 Z M 64.5 52.898438 "/>
<path style=" stroke:none;fill-rule:evenodd;fill:rgb(8.627451%,11.372549%,43.921569%);fill-opacity:1;" d="M 38.898438 50.300781 C 39.234375 50.433594 39.566406 50.566406 39.898438 50.699219 C 39.335938 50.617188 38.902344 50.816406 38.601562 51.300781 C 38.503906 52.105469 38.671875 52.839844 39.101562 53.5 C 39.078125 53.902344 39.210938 54.234375 39.5 54.5 C 39.710938 54.90625 40.042969 55.171875 40.5 55.300781 C 40.699219 54.445312 40.765625 53.578125 40.699219 52.699219 C 40.863281 53.261719 40.964844 53.859375 41 54.5 C 41.035156 53.925781 41.136719 53.394531 41.300781 52.898438 C 41.136719 55.207031 41.734375 57.273438 43.101562 59.101562 C 43.101562 59.367188 42.964844 59.5 42.699219 59.5 C 41.796875 58.558594 41.261719 57.421875 41.101562 56.101562 C 40.6875 56.0625 40.289062 55.960938 39.898438 55.800781 C 38.515625 54.53125 37.882812 52.964844 38 51.101562 C 38.148438 50.648438 38.449219 50.382812 38.898438 50.300781 Z M 38.898438 50.300781 "/>
<path style=" stroke:none;fill-rule:evenodd;fill:rgb(19.215686%,28.235294%,50.196078%);fill-opacity:1;" d="M 62.699219 45.101562 C 63.78125 47.566406 63.917969 50.101562 63.101562 52.699219 C 63.148438 52.941406 63.28125 53.074219 63.5 53.101562 C 61.753906 56.746094 59.085938 59.511719 55.5 61.398438 C 55.300781 61.535156 55.101562 61.535156 54.898438 61.398438 C 56.832031 60.171875 58.164062 58.472656 58.898438 56.300781 C 59.464844 56.042969 59.996094 55.707031 60.5 55.300781 C 61.082031 54.480469 61.546875 53.613281 61.898438 52.699219 C 62.140625 51.664062 62.140625 50.59375 61.898438 49.5 C 62.230469 49.496094 62.496094 49.628906 62.699219 49.898438 C 62.839844 49.796875 62.9375 49.660156 63 49.5 C 63.066406 49.765625 63.132812 50.035156 63.199219 50.300781 C 63.234375 49.414062 63.269531 48.546875 63.300781 47.699219 C 63.304688 47.324219 63.203125 47.257812 63 47.5 C 62.871094 46.703125 62.773438 45.902344 62.699219 45.101562 Z M 62.699219 45.101562 "/>
<path style=" stroke:none;fill-rule:evenodd;fill:rgb(23.921569%,27.843137%,36.470588%);fill-opacity:1;" d="M 35.699219 53.5 C 36.253906 54.738281 36.917969 55.9375 37.699219 57.101562 C 37.527344 57.285156 37.328125 57.417969 37.101562 57.5 C 36.046875 58.050781 35.015625 58.648438 34 59.300781 C 33.238281 60.496094 32.539062 61.695312 31.898438 62.898438 C 31.152344 60.054688 30.484375 57.1875 29.898438 54.300781 C 29.453125 54.359375 29.054688 54.292969 28.699219 54.101562 C 31.035156 54.101562 33.367188 54.101562 35.699219 54.101562 C 35.699219 53.898438 35.699219 53.699219 35.699219 53.5 Z M 35.699219 53.5 "/>
<path style=" stroke:none;fill-rule:evenodd;fill:rgb(83.137255%,80.392157%,81.960784%);fill-opacity:1;" d="M 41.898438 52.101562 C 41.320312 55.742188 42.589844 58.542969 45.699219 60.5 C 46.132812 60.882812 46.597656 61.214844 47.101562 61.5 C 47.035156 61.5 46.964844 61.5 46.898438 61.5 C 45.410156 61.054688 44.144531 60.253906 43.101562 59.101562 C 41.734375 57.273438 41.136719 55.207031 41.300781 52.898438 C 41.503906 52.625 41.703125 52.359375 41.898438 52.101562 Z M 41.898438 52.101562 "/>
<path style=" stroke:none;fill-rule:evenodd;fill:rgb(90.196078%,75.686275%,62.352941%);fill-opacity:1;" d="M 42.898438 50.898438 C 42.890625 51.117188 42.824219 51.316406 42.699219 51.5 C 43.386719 51.59375 44.019531 51.796875 44.601562 52.101562 C 44.800781 51.867188 45.070312 51.734375 45.398438 51.699219 C 45.675781 51.703125 45.910156 51.769531 46.101562 51.898438 C 45.71875 51.84375 45.382812 51.910156 45.101562 52.101562 C 44.964844 52.167969 44.832031 52.234375 44.699219 52.300781 C 44.5 52.300781 44.300781 52.300781 44.101562 52.300781 C 44.011719 53.179688 44.414062 53.515625 45.300781 53.300781 C 45.300781 53.5 45.300781 53.699219 45.300781 53.898438 C 45.136719 54.554688 45.070312 55.21875 45.101562 55.898438 C 45.203125 56.371094 45.335938 56.839844 45.5 57.300781 C 45.433594 57.433594 45.367188 57.566406 45.300781 57.699219 C 45.566406 57.964844 45.832031 57.964844 46.101562 57.699219 C 45.828125 57.339844 45.894531 57.039062 46.300781 56.800781 C 47.097656 56.65625 47.230469 56.855469 46.699219 57.398438 C 47.253906 58.707031 46.917969 59.742188 45.699219 60.5 C 42.589844 58.542969 41.320312 55.742188 41.898438 52.101562 C 42.023438 51.714844 42.222656 51.378906 42.5 51.101562 C 42.632812 51.035156 42.765625 50.964844 42.898438 50.898438 Z M 42.898438 50.898438 "/>
<path style=" stroke:none;fill-rule:evenodd;fill:rgb(58.823529%,53.72549%,64.313725%);fill-opacity:1;" d="M 57.5 52.101562 C 58.425781 52.9375 58.757812 54.003906 58.5 55.300781 C 58.253906 55.9375 58.019531 56.605469 57.800781 57.300781 C 57.539062 57.925781 57.171875 58.457031 56.699219 58.898438 C 56.730469 58.546875 56.660156 58.214844 56.5 57.898438 C 56.730469 57.652344 56.964844 57.652344 57.199219 57.898438 C 57.640625 56.753906 57.941406 55.585938 58.101562 54.398438 C 58.054688 53.558594 57.855469 52.789062 57.5 52.101562 Z M 57.5 52.101562 "/>
<path style=" stroke:none;fill-rule:evenodd;fill:rgb(85.490196%,74.901961%,65.490196%);fill-opacity:1;" d="M 45.101562 52.101562 C 45.382812 51.910156 45.71875 51.84375 46.101562 51.898438 C 46.570312 51.933594 47.039062 52 47.5 52.101562 C 47.757812 52.40625 47.757812 52.738281 47.5 53.101562 C 46.753906 53.414062 46.753906 53.746094 47.5 54.101562 C 47.628906 55.046875 47.628906 55.980469 47.5 56.898438 C 47.40625 57.09375 47.269531 57.261719 47.101562 57.398438 C 48.074219 58.386719 49.273438 58.789062 50.699219 58.601562 C 51.011719 58.664062 51.246094 58.832031 51.398438 59.101562 C 51.464844 59.035156 51.535156 58.964844 51.601562 58.898438 C 52.160156 59.75 52.792969 59.851562 53.5 59.199219 C 53.167969 58.867188 52.765625 58.699219 52.300781 58.699219 C 52.300781 58.433594 52.300781 58.167969 52.300781 57.898438 C 53.078125 57.867188 53.777344 58.070312 54.398438 58.5 C 54.671875 58.113281 55.035156 57.847656 55.5 57.699219 C 55.273438 57.417969 55.074219 57.117188 54.898438 56.800781 C 54.167969 56.699219 53.4375 56.667969 52.699219 56.699219 C 52.699219 56.964844 52.699219 57.234375 52.699219 57.5 C 52.40625 57.550781 52.136719 57.484375 51.898438 57.300781 C 52.238281 56.554688 52.402344 55.753906 52.398438 54.898438 C 52.441406 54.535156 52.605469 54.269531 52.898438 54.101562 C 52.722656 54.554688 52.6875 55.023438 52.800781 55.5 C 53.332031 56.640625 54.03125 56.773438 54.898438 55.898438 C 54.875 56.046875 54.90625 56.179688 55 56.300781 C 55.328125 56.042969 55.5625 55.710938 55.699219 55.300781 C 55.765625 55.464844 55.832031 55.632812 55.898438 55.800781 C 55.769531 56.183594 55.667969 56.546875 55.601562 56.898438 C 55.667969 56.964844 55.734375 57.035156 55.800781 57.101562 C 55.964844 56.835938 56.195312 56.703125 56.5 56.699219 C 56.132812 57.566406 55.667969 58.367188 55.101562 59.101562 C 52.765625 60.929688 50.097656 61.730469 47.101562 61.5 C 46.597656 61.214844 46.132812 60.882812 45.699219 60.5 C 46.917969 59.742188 47.253906 58.707031 46.699219 57.398438 C 47.230469 56.855469 47.097656 56.65625 46.300781 56.800781 C 45.894531 57.039062 45.828125 57.339844 46.101562 57.699219 C 45.832031 57.964844 45.566406 57.964844 45.300781 57.699219 C 45.367188 57.566406 45.433594 57.433594 45.5 57.300781 C 45.335938 56.839844 45.203125 56.371094 45.101562 55.898438 C 46.347656 56.84375 47.082031 56.511719 47.300781 54.898438 C 47.042969 53.628906 46.375 53.296875 45.300781 53.898438 C 45.300781 53.699219 45.300781 53.5 45.300781 53.300781 C 44.414062 53.515625 44.011719 53.179688 44.101562 52.300781 C 44.300781 52.300781 44.5 52.300781 44.699219 52.300781 C 44.609375 52.492188 44.476562 52.660156 44.300781 52.800781 C 44.367188 52.832031 44.433594 52.867188 44.5 52.898438 C 45.441406 52.746094 46.375 52.679688 47.300781 52.699219 C 47.183594 52.441406 46.980469 52.273438 46.699219 52.199219 C 46.171875 52.101562 45.636719 52.066406 45.101562 52.101562 Z M 45.101562 52.101562 "/>
<path style=" stroke:none;fill-rule:evenodd;fill:rgb(14.901961%,13.72549%,30.588235%);fill-opacity:1;" d="M 47.898438 58.898438 C 47.910156 58.792969 47.980469 58.726562 48.101562 58.699219 C 48.726562 59.003906 49.394531 59.171875 50.101562 59.199219 C 49.320312 59.378906 48.585938 59.277344 47.898438 58.898438 Z M 47.898438 58.898438 "/>
<path style=" stroke:none;fill-rule:evenodd;fill:rgb(8.235294%,17.647059%,50.588235%);fill-opacity:1;" d="M 38.699219 57.101562 C 39.734375 58.097656 40.800781 59.066406 41.898438 60 C 42.25 60.160156 42.585938 60.125 42.898438 59.898438 C 42.828125 59.761719 42.761719 59.628906 42.699219 59.5 C 42.964844 59.5 43.101562 59.367188 43.101562 59.101562 C 44.144531 60.253906 45.410156 61.054688 46.898438 61.5 C 47.101562 61.632812 47.300781 61.765625 47.5 61.898438 C 46.664062 62.089844 45.863281 62.355469 45.101562 62.699219 C 44.820312 62.324219 44.421875 62.125 43.898438 62.101562 C 42.023438 61.027344 40.292969 59.761719 38.699219 58.300781 C 38.707031 58.101562 38.605469 57.96875 38.398438 57.898438 C 35.289062 58.777344 33.390625 60.777344 32.699219 63.898438 C 32.566406 64.234375 32.433594 64.566406 32.300781 64.898438 C 32.402344 64.324219 32.269531 63.855469 31.898438 63.5 C 31.898438 63.300781 31.898438 63.101562 31.898438 62.898438 C 32.539062 61.695312 33.238281 60.496094 34 59.300781 C 35.015625 58.648438 36.046875 58.050781 37.101562 57.5 C 37.125 57.71875 37.257812 57.851562 37.5 57.898438 C 37.890625 57.769531 38.289062 57.703125 38.699219 57.699219 C 38.699219 57.5 38.699219 57.300781 38.699219 57.101562 Z M 38.699219 57.101562 "/>
<path style=" stroke:none;fill-rule:evenodd;fill:rgb(29.019608%,44.313725%,52.54902%);fill-opacity:1;" d="M 64.699219 59.5 C 64.941406 60.046875 65.308594 60.511719 65.800781 60.898438 C 66.03125 61.621094 66.199219 62.355469 66.300781 63.101562 C 66.035156 63.101562 65.765625 63.101562 65.5 63.101562 C 65.484375 62.851562 65.351562 62.683594 65.101562 62.601562 C 61.800781 62.566406 58.53125 62.464844 55.300781 62.300781 C 57.542969 61.289062 59.476562 59.855469 61.101562 58 C 61.433594 57.867188 61.765625 57.867188 62.101562 58 C 62.671875 58.316406 63.269531 58.585938 63.898438 58.800781 C 64.21875 58.988281 64.484375 59.222656 64.699219 59.5 Z M 64.699219 59.5 "/>
<path style=" stroke:none;fill-rule:evenodd;fill:rgb(60.784314%,57.647059%,63.529412%);fill-opacity:1;" d="M 56.5 59.101562 C 55.613281 60.347656 54.414062 61.179688 52.898438 61.601562 C 51.253906 62.105469 49.585938 62.203125 47.898438 61.898438 C 47.765625 61.898438 47.632812 61.898438 47.5 61.898438 C 47.300781 61.765625 47.101562 61.632812 46.898438 61.5 C 46.964844 61.5 47.035156 61.5 47.101562 61.5 C 50.097656 61.730469 52.765625 60.929688 55.101562 59.101562 C 55.554688 58.519531 55.855469 58.585938 56 59.300781 C 56.050781 59.074219 56.148438 58.875 56.300781 58.699219 C 56.460938 58.792969 56.527344 58.925781 56.5 59.101562 Z M 56.5 59.101562 "/>
<path style=" stroke:none;fill-rule:evenodd;fill:rgb(57.647059%,71.372549%,79.607843%);fill-opacity:1;" d="M 38.699219 58.300781 C 35.113281 59.730469 33.179688 62.398438 32.898438 66.300781 C 32.898438 66.433594 32.832031 66.5 32.699219 66.5 C 32.605469 65.671875 32.605469 64.804688 32.699219 63.898438 C 33.390625 60.777344 35.289062 58.777344 38.398438 57.898438 C 38.605469 57.96875 38.707031 58.101562 38.699219 58.300781 Z M 38.699219 58.300781 "/>
<path style=" stroke:none;fill-rule:evenodd;fill:rgb(29.411765%,45.098039%,53.72549%);fill-opacity:1;" d="M 38.699219 58.300781 C 40.292969 59.761719 42.023438 61.027344 43.898438 62.101562 C 41.273438 62.433594 38.605469 62.632812 35.898438 62.699219 C 34.898438 63.023438 34.199219 63.691406 33.800781 64.699219 C 33.804688 65.828125 33.839844 66.964844 33.898438 68.101562 C 33.898438 68.5 33.898438 68.898438 33.898438 69.300781 C 33.535156 68.308594 33.203125 67.308594 32.898438 66.300781 C 33.179688 62.398438 35.113281 59.730469 38.699219 58.300781 Z M 38.699219 58.300781 "/>
<path style=" stroke:none;fill-rule:evenodd;fill:rgb(7.058824%,15.686275%,50.196078%);fill-opacity:1;" d="M 64.300781 50.898438 C 64.214844 51.355469 64.347656 51.691406 64.699219 51.898438 C 64.59375 52.222656 64.527344 52.558594 64.5 52.898438 C 63.851562 54.359375 63.054688 55.757812 62.101562 57.101562 C 63.042969 57.332031 63.90625 57.765625 64.699219 58.398438 C 65.339844 59.105469 66.039062 59.742188 66.800781 60.300781 C 67.390625 61.277344 67.890625 62.277344 68.300781 63.300781 C 68.300781 63.433594 68.300781 63.566406 68.300781 63.699219 C 68.15625 63.785156 68.054688 63.917969 68 64.101562 C 67.902344 64.695312 67.867188 65.296875 67.898438 65.898438 C 67.832031 65.898438 67.765625 65.898438 67.699219 65.898438 C 67.695312 63.28125 66.695312 61.148438 64.699219 59.5 C 64.484375 59.222656 64.21875 58.988281 63.898438 58.800781 C 63.269531 58.585938 62.671875 58.316406 62.101562 58 C 61.765625 57.867188 61.433594 57.867188 61.101562 58 C 59.476562 59.855469 57.542969 61.289062 55.300781 62.300781 C 55.035156 62.300781 54.898438 62.433594 54.898438 62.699219 C 52.910156 62.542969 50.910156 62.441406 48.898438 62.398438 C 48.5 62.324219 48.167969 62.160156 47.898438 61.898438 C 49.585938 62.203125 51.253906 62.105469 52.898438 61.601562 C 54.414062 61.179688 55.613281 60.347656 56.5 59.101562 C 56.632812 59.101562 56.699219 59.035156 56.699219 58.898438 C 57.171875 58.457031 57.539062 57.925781 57.800781 57.300781 C 58.019531 56.605469 58.253906 55.9375 58.5 55.300781 C 58.414062 55.757812 58.546875 56.089844 58.898438 56.300781 C 58.164062 58.472656 56.832031 60.171875 54.898438 61.398438 C 55.101562 61.535156 55.300781 61.535156 55.5 61.398438 C 59.085938 59.511719 61.753906 56.746094 63.5 53.101562 C 63.691406 52.320312 63.960938 51.585938 64.300781 50.898438 Z M 64.300781 50.898438 "/>
<path style=" stroke:none;fill-rule:evenodd;fill:rgb(18.823529%,28.627451%,51.764706%);fill-opacity:1;" d="M 43.898438 62.101562 C 44.421875 62.125 44.820312 62.324219 45.101562 62.699219 C 44.832031 62.699219 44.566406 62.699219 44.300781 62.699219 C 41.5 62.699219 38.699219 62.699219 35.898438 62.699219 C 38.605469 62.632812 41.273438 62.433594 43.898438 62.101562 Z M 43.898438 62.101562 "/>
<path style=" stroke:none;fill-rule:evenodd;fill:rgb(20.392157%,29.411765%,51.764706%);fill-opacity:1;" d="M 55.300781 62.300781 C 58.53125 62.464844 61.800781 62.566406 65.101562 62.601562 C 65.351562 62.683594 65.484375 62.851562 65.5 63.101562 C 65.214844 63.058594 64.949219 62.957031 64.699219 62.800781 C 61.433594 62.699219 58.167969 62.667969 54.898438 62.699219 C 54.898438 62.433594 55.035156 62.300781 55.300781 62.300781 Z M 55.300781 62.300781 "/>
<path style=" stroke:none;fill-rule:evenodd;fill:rgb(2.745098%,2.352941%,41.960784%);fill-opacity:1;" d="M 47.5 61.898438 C 47.632812 61.898438 47.765625 61.898438 47.898438 61.898438 C 48.167969 62.160156 48.5 62.324219 48.898438 62.398438 C 50.910156 62.441406 52.910156 62.542969 54.898438 62.699219 C 58.167969 62.667969 61.433594 62.699219 64.699219 62.800781 C 64.949219 62.957031 65.214844 63.058594 65.5 63.101562 C 65.757812 63.460938 66.058594 63.792969 66.398438 64.101562 C 66.601562 64.507812 66.703125 64.941406 66.699219 65.398438 C 66.449219 68.03125 66.25 70.664062 66.101562 73.300781 C 66.101562 73.367188 66.101562 73.433594 66.101562 73.5 C 65.9375 75.308594 65.738281 77.140625 65.5 79 C 65.566406 79.367188 65.632812 79.734375 65.699219 80.101562 C 68.492188 78.25 69.65625 75.648438 69.199219 72.300781 C 68.828125 70.148438 68.394531 68.011719 67.898438 65.898438 C 67.867188 65.296875 67.902344 64.695312 68 64.101562 C 68.054688 63.917969 68.15625 63.785156 68.300781 63.699219 C 68.386719 64.46875 68.519531 65.199219 68.699219 65.898438 C 69.613281 69.035156 70.046875 72.234375 70 75.5 C 69.484375 77.765625 68.25 79.53125 66.300781 80.800781 C 66.792969 81.886719 66.527344 82.785156 65.5 83.5 C 65.542969 83.164062 65.410156 82.964844 65.101562 82.898438 C 65.476562 82.589844 65.675781 82.1875 65.699219 81.699219 C 65.425781 81.667969 65.160156 81.703125 64.898438 81.800781 C 64.691406 82.078125 64.421875 82.277344 64.101562 82.398438 C 60.433594 82.5 56.765625 82.535156 53.101562 82.5 C 50.867188 82.332031 48.601562 82.234375 46.300781 82.199219 C 52.066406 82.070312 57.800781 81.90625 63.5 81.699219 C 64.019531 81.550781 64.386719 81.214844 64.601562 80.699219 C 65.023438 75.363281 65.425781 70.027344 65.800781 64.699219 C 65.609375 64.382812 65.378906 64.113281 65.101562 63.898438 C 65.101562 63.765625 65.035156 63.699219 64.898438 63.699219 C 64.722656 63.578125 64.523438 63.511719 64.300781 63.5 C 64.234375 63.5 64.167969 63.5 64.101562 63.5 C 54.734375 63.367188 45.332031 63.234375 35.898438 63.101562 C 38.730469 62.964844 41.53125 62.832031 44.300781 62.699219 C 44.566406 62.699219 44.832031 62.699219 45.101562 62.699219 C 45.863281 62.355469 46.664062 62.089844 47.5 61.898438 Z M 47.5 61.898438 "/>
<path style=" stroke:none;fill-rule:evenodd;fill:rgb(25.098039%,39.215686%,56.862745%);fill-opacity:1;" d="M 64.699219 59.5 C 66.695312 61.148438 67.695312 63.28125 67.699219 65.898438 C 67.527344 66.285156 67.394531 66.683594 67.300781 67.101562 C 66.734375 69.164062 66.332031 71.230469 66.101562 73.300781 C 66.25 70.664062 66.449219 68.03125 66.699219 65.398438 C 66.703125 64.941406 66.601562 64.507812 66.398438 64.101562 C 66.058594 63.792969 65.757812 63.460938 65.5 63.101562 C 65.765625 63.101562 66.035156 63.101562 66.300781 63.101562 C 66.199219 62.355469 66.03125 61.621094 65.800781 60.898438 C 65.308594 60.511719 64.941406 60.046875 64.699219 59.5 Z M 64.699219 59.5 "/>
<path style=" stroke:none;fill-rule:evenodd;fill:rgb(77.254902%,82.352941%,89.019608%);fill-opacity:1;" d="M 64.300781 63.5 C 64.523438 63.511719 64.722656 63.578125 64.898438 63.699219 C 63.726562 71.042969 59.726562 76.210938 52.898438 79.199219 C 50.410156 80.199219 47.875 80.964844 45.300781 81.5 C 45.042969 81.453125 44.84375 81.519531 44.699219 81.699219 C 41.964844 81.734375 39.234375 81.699219 36.5 81.601562 C 36.390625 81.523438 36.320312 81.421875 36.300781 81.300781 C 36.097656 76.394531 35.695312 71.460938 35.101562 66.5 C 35.191406 65.574219 35.59375 64.808594 36.300781 64.199219 C 45.691406 64.035156 55.023438 63.804688 64.300781 63.5 Z M 64.300781 63.5 "/>
<path style=" stroke:none;fill-rule:evenodd;fill:rgb(53.72549%,56.470588%,78.431373%);fill-opacity:1;" d="M 65.101562 63.898438 C 65.378906 64.113281 65.609375 64.382812 65.800781 64.699219 C 65.425781 70.027344 65.023438 75.363281 64.601562 80.699219 C 64.386719 81.214844 64.019531 81.550781 63.5 81.699219 C 57.234375 81.699219 50.964844 81.699219 44.699219 81.699219 C 44.84375 81.519531 45.042969 81.453125 45.300781 81.5 C 51.5 81.425781 57.699219 81.359375 63.898438 81.300781 C 63.824219 80.867188 63.957031 80.535156 64.300781 80.300781 C 64.449219 78.667969 64.582031 77.03125 64.699219 75.398438 C 64.40625 73.980469 64.207031 72.546875 64.101562 71.101562 C 64.292969 70.835938 64.257812 70.570312 64 70.300781 C 63.933594 70.367188 63.867188 70.433594 63.800781 70.5 C 63.332031 69.828125 63.464844 69.296875 64.199219 68.898438 C 64.300781 69.363281 64.332031 69.828125 64.300781 70.300781 C 64.566406 70.300781 64.832031 70.300781 65.101562 70.300781 C 65.0625 69.429688 64.863281 68.597656 64.5 67.800781 C 64.554688 67.480469 64.71875 67.246094 65 67.101562 C 65.066406 67.5 65.132812 67.898438 65.199219 68.300781 C 65.359375 67.582031 65.324219 66.882812 65.101562 66.199219 C 65.316406 66.066406 65.449219 65.863281 65.5 65.601562 C 65.203125 65.082031 65.070312 64.515625 65.101562 63.898438 Z M 65.101562 63.898438 "/>
<path style=" stroke:none;fill-rule:evenodd;fill:rgb(29.411765%,34.901961%,42.352941%);fill-opacity:1;" d="M 67.300781 67.101562 C 67.644531 68.949219 67.746094 70.816406 67.601562 72.699219 C 67.273438 73.765625 66.804688 74.765625 66.199219 75.699219 C 66.101562 74.96875 66.066406 74.238281 66.101562 73.5 C 66.101562 73.433594 66.101562 73.367188 66.101562 73.300781 C 66.332031 71.230469 66.734375 69.164062 67.300781 67.101562 Z M 67.300781 67.101562 "/>
<path style=" stroke:none;fill-rule:evenodd;fill:rgb(54.509804%,57.647059%,75.686275%);fill-opacity:1;" d="M 64.898438 63.699219 C 65.035156 63.699219 65.101562 63.765625 65.101562 63.898438 C 65.070312 64.515625 65.203125 65.082031 65.5 65.601562 C 65.449219 65.863281 65.316406 66.066406 65.101562 66.199219 C 65.324219 66.882812 65.359375 67.582031 65.199219 68.300781 C 65.132812 67.898438 65.066406 67.5 65 67.101562 C 64.71875 67.246094 64.554688 67.480469 64.5 67.800781 C 64.863281 68.597656 65.0625 69.429688 65.101562 70.300781 C 64.832031 70.300781 64.566406 70.300781 64.300781 70.300781 C 64.332031 69.828125 64.300781 69.363281 64.199219 68.898438 C 63.464844 69.296875 63.332031 69.828125 63.800781 70.5 C 63.867188 70.433594 63.933594 70.367188 64 70.300781 C 64.257812 70.570312 64.292969 70.835938 64.101562 71.101562 C 64.207031 72.546875 64.40625 73.980469 64.699219 75.398438 C 64.582031 77.03125 64.449219 78.667969 64.300781 80.300781 C 63.957031 80.535156 63.824219 80.867188 63.898438 81.300781 C 57.699219 81.359375 51.5 81.425781 45.300781 81.5 C 47.875 80.964844 50.410156 80.199219 52.898438 79.199219 C 59.726562 76.210938 63.726562 71.042969 64.898438 63.699219 Z M 64.898438 63.699219 "/>
<path style=" stroke:none;fill-rule:evenodd;fill:rgb(90.588235%,92.54902%,97.647059%);fill-opacity:1;" d="M 64.101562 63.5 C 64.167969 63.5 64.234375 63.5 64.300781 63.5 C 55.023438 63.804688 45.691406 64.035156 36.300781 64.199219 C 35.59375 64.808594 35.191406 65.574219 35.101562 66.5 C 35.695312 71.460938 36.097656 76.394531 36.300781 81.300781 C 36.175781 81.277344 36.078125 81.210938 36 81.101562 C 35.417969 75.941406 34.917969 70.773438 34.5 65.601562 C 34.542969 64.710938 34.945312 64.042969 35.699219 63.601562 C 45.167969 63.5 54.632812 63.464844 64.101562 63.5 Z M 64.101562 63.5 "/>
<path style=" stroke:none;fill-rule:evenodd;fill:rgb(9.019608%,6.666667%,40.784314%);fill-opacity:1;" d="M 48.898438 68.699219 C 53.40625 68.636719 55.105469 70.769531 54 75.101562 C 53.675781 75.625 53.273438 76.09375 52.800781 76.5 C 52.832031 77.101562 52.597656 77.535156 52.101562 77.800781 C 50.699219 77.832031 49.300781 77.765625 47.898438 77.601562 C 47.347656 76.328125 46.714844 75.09375 46 73.898438 C 45.773438 71.488281 46.738281 69.753906 48.898438 68.699219 Z M 48.898438 68.699219 "/>
<path style=" stroke:none;fill-rule:evenodd;fill:rgb(96.078431%,96.078431%,98.039216%);fill-opacity:1;" d="M 49.300781 69.300781 C 51.480469 69.140625 52.980469 70.074219 53.800781 72.101562 C 54.046875 73.742188 53.511719 75.074219 52.199219 76.101562 C 52.101562 76.425781 52.066406 76.761719 52.101562 77.101562 C 51.832031 77.101562 51.566406 77.101562 51.300781 77.101562 C 51.234375 76.300781 51.167969 76.300781 51.101562 77.101562 C 50.832031 77.101562 50.566406 77.101562 50.300781 77.101562 C 50.167969 76.035156 50.035156 76.035156 49.898438 77.101562 C 49.324219 76.949219 48.757812 76.882812 48.199219 76.898438 C 48.066406 76.03125 47.667969 75.296875 47 74.699219 C 46.132812 72.167969 46.898438 70.371094 49.300781 69.300781 Z M 49.300781 69.300781 "/>
<path style=" stroke:none;fill-rule:evenodd;fill:rgb(4.313725%,2.352941%,41.568627%);fill-opacity:1;" d="M 51.101562 72.300781 C 52.527344 72.339844 52.859375 72.972656 52.101562 74.199219 C 50.898438 74.398438 50.464844 73.898438 50.800781 72.699219 C 50.945312 72.589844 51.042969 72.457031 51.101562 72.300781 Z M 51.101562 72.300781 "/>
<path style=" stroke:none;fill-rule:evenodd;fill:rgb(84.313725%,87.843137%,92.156863%);fill-opacity:1;" d="M 38.101562 68.101562 C 38.835938 68.066406 39.570312 68.101562 40.300781 68.199219 C 40.464844 68.367188 40.632812 68.535156 40.800781 68.699219 C 41.257812 70.894531 41.355469 73.09375 41.101562 75.300781 C 40.09375 75.601562 39.128906 75.535156 38.199219 75.101562 C 38.09375 73.195312 37.925781 71.292969 37.699219 69.398438 C 37.667969 68.898438 37.800781 68.464844 38.101562 68.101562 Z M 38.101562 68.101562 "/>
<path style=" stroke:none;fill-rule:evenodd;fill:rgb(7.45098%,4.313725%,42.352941%);fill-opacity:1;" d="M 48.300781 72.300781 C 49.367188 72.199219 49.867188 72.667969 49.800781 73.699219 C 49.257812 74.394531 48.660156 74.460938 48 73.898438 C 47.820312 73.300781 47.921875 72.765625 48.300781 72.300781 Z M 48.300781 72.300781 "/>
<path style=" stroke:none;fill-rule:evenodd;fill:rgb(21.176471%,24.705882%,43.137255%);fill-opacity:1;" d="M 67.699219 65.898438 C 67.765625 65.898438 67.832031 65.898438 67.898438 65.898438 C 68.394531 68.011719 68.828125 70.148438 69.199219 72.300781 C 69.65625 75.648438 68.492188 78.25 65.699219 80.101562 C 65.632812 79.734375 65.566406 79.367188 65.5 79 C 65.738281 77.140625 65.9375 75.308594 66.101562 73.5 C 66.066406 74.238281 66.101562 74.96875 66.199219 75.699219 C 66.804688 74.765625 67.273438 73.765625 67.601562 72.699219 C 67.746094 70.816406 67.644531 68.949219 67.300781 67.101562 C 67.394531 66.683594 67.527344 66.285156 67.699219 65.898438 Z M 67.699219 65.898438 "/>
<path style=" stroke:none;fill-rule:evenodd;fill:rgb(77.254902%,81.960784%,90.588235%);fill-opacity:1;" d="M 36.5 82.5 C 41.933594 82.667969 47.398438 82.765625 52.898438 82.800781 C 52.078125 83.148438 51.277344 83.515625 50.5 83.898438 C 45.898438 83.933594 41.300781 83.898438 36.699219 83.800781 C 35.804688 83.40625 35.140625 82.773438 34.699219 81.898438 C 34.945312 81.675781 35.210938 81.644531 35.5 81.800781 C 35.769531 82.132812 36.101562 82.367188 36.5 82.5 Z M 36.5 82.5 "/>
<path style=" stroke:none;fill-rule:evenodd;fill:rgb(50.980392%,53.333333%,75.686275%);fill-opacity:1;" d="M 65.101562 82.898438 C 64.753906 83.246094 64.355469 83.511719 63.898438 83.699219 C 59.441406 83.894531 54.976562 83.960938 50.5 83.898438 C 51.277344 83.515625 52.078125 83.148438 52.898438 82.800781 C 47.398438 82.765625 41.933594 82.667969 36.5 82.5 C 42.035156 82.5 47.566406 82.5 53.101562 82.5 C 56.765625 82.535156 60.433594 82.5 64.101562 82.398438 C 64.421875 82.277344 64.691406 82.078125 64.898438 81.800781 C 65.160156 81.703125 65.425781 81.667969 65.699219 81.699219 C 65.675781 82.1875 65.476562 82.589844 65.101562 82.898438 Z M 65.101562 82.898438 "/>
<path style=" stroke:none;fill-rule:evenodd;fill:rgb(9.019608%,6.666667%,43.137255%);fill-opacity:1;" d="M 35.898438 62.699219 C 38.699219 62.699219 41.5 62.699219 44.300781 62.699219 C 41.53125 62.832031 38.730469 62.964844 35.898438 63.101562 C 45.332031 63.234375 54.734375 63.367188 64.101562 63.5 C 54.632812 63.464844 45.167969 63.5 35.699219 63.601562 C 34.945312 64.042969 34.542969 64.710938 34.5 65.601562 C 34.917969 70.773438 35.417969 75.941406 36 81.101562 C 36.078125 81.210938 36.175781 81.277344 36.300781 81.300781 C 36.320312 81.421875 36.390625 81.523438 36.5 81.601562 C 39.234375 81.699219 41.964844 81.734375 44.699219 81.699219 C 50.964844 81.699219 57.234375 81.699219 63.5 81.699219 C 57.800781 81.90625 52.066406 82.070312 46.300781 82.199219 C 48.601562 82.234375 50.867188 82.332031 53.101562 82.5 C 47.566406 82.5 42.035156 82.5 36.5 82.5 C 36.101562 82.367188 35.769531 82.132812 35.5 81.800781 C 35.210938 81.644531 34.945312 81.675781 34.699219 81.898438 C 35.140625 82.773438 35.804688 83.40625 36.699219 83.800781 C 41.300781 83.898438 45.898438 83.933594 50.5 83.898438 C 54.976562 83.960938 59.441406 83.894531 63.898438 83.699219 C 54.738281 84 45.539062 84.234375 36.300781 84.398438 C 41.167969 84.433594 46.035156 84.464844 50.898438 84.5 C 55.835938 84.5 60.703125 84.367188 65.5 84.101562 C 68.300781 84.101562 71.101562 84.101562 73.898438 84.101562 C 74.21875 84.046875 74.488281 84.113281 74.699219 84.300781 C 74.699219 84.367188 74.699219 84.433594 74.699219 84.5 C 58.835938 84.699219 42.972656 84.765625 27.101562 84.699219 C 26.40625 84.761719 25.738281 84.664062 25.101562 84.398438 C 25.28125 84.34375 25.417969 84.246094 25.5 84.101562 C 25.699219 84.101562 25.898438 84.101562 26.101562 84.101562 C 29.167969 84.167969 32.234375 84.101562 35.300781 83.898438 C 35.207031 83.742188 35.074219 83.671875 34.898438 83.699219 C 34.332031 83.0625 33.929688 82.328125 33.699219 81.5 C 33.734375 81.289062 33.800781 81.089844 33.898438 80.898438 C 30.988281 78.945312 29.691406 76.214844 30 72.699219 C 30.464844 70.285156 30.964844 67.882812 31.5 65.5 C 31.675781 64.84375 31.808594 64.175781 31.898438 63.5 C 32.269531 63.855469 32.402344 64.324219 32.300781 64.898438 C 31.753906 67.796875 31.222656 70.695312 30.699219 73.601562 C 30.792969 75.28125 31.328125 76.78125 32.300781 78.101562 C 32.300781 78.234375 32.367188 78.300781 32.5 78.300781 C 32.976562 79.277344 33.742188 79.941406 34.800781 80.300781 C 34.964844 79.0625 34.929688 77.863281 34.699219 76.699219 C 34.472656 73.800781 34.207031 70.933594 33.898438 68.101562 C 33.839844 66.964844 33.804688 65.828125 33.800781 64.699219 C 34.199219 63.691406 34.898438 63.023438 35.898438 62.699219 Z M 35.898438 62.699219 "/>
<path style=" stroke:none;fill-rule:evenodd;fill:rgb(19.607843%,21.568627%,48.627451%);fill-opacity:1;" d="M 34.699219 76.699219 C 34.929688 77.863281 34.964844 79.0625 34.800781 80.300781 C 33.742188 79.941406 32.976562 79.277344 32.5 78.300781 C 32.792969 78.492188 33.058594 78.726562 33.300781 79 C 33.632812 79.066406 33.964844 79.132812 34.300781 79.199219 C 34.078125 79.425781 34.144531 79.59375 34.5 79.699219 C 34.699219 78.707031 34.765625 77.707031 34.699219 76.699219 Z M 34.699219 76.699219 "/>
<path style=" stroke:none;fill-rule:evenodd;fill:rgb(24.705882%,29.019608%,44.313725%);fill-opacity:1;" d="M 33.898438 68.101562 C 34.207031 70.933594 34.472656 73.800781 34.699219 76.699219 C 34.765625 77.707031 34.699219 78.707031 34.5 79.699219 C 34.144531 79.59375 34.078125 79.425781 34.300781 79.199219 C 33.964844 79.132812 33.632812 79.066406 33.300781 79 C 33.058594 78.726562 32.792969 78.492188 32.5 78.300781 C 32.492188 78.101562 32.59375 77.96875 32.800781 77.898438 C 33.296875 78.296875 33.863281 78.496094 34.5 78.5 C 34.148438 75.453125 33.945312 72.382812 33.898438 69.300781 C 33.898438 68.898438 33.898438 68.5 33.898438 68.101562 Z M 33.898438 68.101562 "/>
<path style=" stroke:none;fill-rule:evenodd;fill:rgb(62.745098%,65.882353%,74.509804%);fill-opacity:1;" d="M 32.699219 63.898438 C 32.605469 64.804688 32.605469 65.671875 32.699219 66.5 C 32.261719 69.0625 31.859375 71.628906 31.5 74.199219 C 31.53125 75.554688 31.796875 76.851562 32.300781 78.101562 C 31.328125 76.78125 30.792969 75.28125 30.699219 73.601562 C 31.222656 70.695312 31.753906 67.796875 32.300781 64.898438 C 32.433594 64.566406 32.566406 64.234375 32.699219 63.898438 Z M 32.699219 63.898438 "/>
<path style=" stroke:none;fill-rule:evenodd;fill:rgb(30.196078%,35.294118%,41.176471%);fill-opacity:1;" d="M 32.898438 66.300781 C 33.203125 67.308594 33.535156 68.308594 33.898438 69.300781 C 33.945312 72.382812 34.148438 75.453125 34.5 78.5 C 33.863281 78.496094 33.296875 78.296875 32.800781 77.898438 C 32.59375 77.96875 32.492188 78.101562 32.5 78.300781 C 32.367188 78.300781 32.300781 78.234375 32.300781 78.101562 C 31.796875 76.851562 31.53125 75.554688 31.5 74.199219 C 31.859375 71.628906 32.261719 69.0625 32.699219 66.5 C 32.832031 66.5 32.898438 66.433594 32.898438 66.300781 Z M 32.898438 66.300781 "/>
<use xlink:href="#surface5" mask="url(#mask0)"/>
<use xlink:href="#surface8" mask="url(#mask1)"/>
<path style=" stroke:none;fill-rule:evenodd;fill:rgb(0.392157%,0.392157%,43.529412%);fill-opacity:1;" d="M 65.101562 82.898438 C 65.410156 82.964844 65.542969 83.164062 65.5 83.5 C 65.5 83.566406 65.5 83.632812 65.5 83.699219 C 65.234375 83.832031 65.234375 83.964844 65.5 84.101562 C 60.703125 84.367188 55.835938 84.5 50.898438 84.5 C 46.035156 84.464844 41.167969 84.433594 36.300781 84.398438 C 45.539062 84.234375 54.738281 84 63.898438 83.699219 C 64.355469 83.511719 64.753906 83.246094 65.101562 82.898438 Z M 65.101562 82.898438 "/>
<path style=" stroke:none;fill-rule:evenodd;fill:rgb(69.803922%,69.803922%,83.137255%);fill-opacity:1;" d="M 25.5 84.101562 C 25.417969 84.246094 25.28125 84.34375 25.101562 84.398438 C 25.738281 84.664062 26.40625 84.761719 27.101562 84.699219 C 42.800781 84.933594 58.53125 84.964844 74.300781 84.800781 C 74.484375 84.746094 74.617188 84.644531 74.699219 84.5 C 74.699219 84.433594 74.699219 84.367188 74.699219 84.300781 C 74.765625 84.300781 74.832031 84.300781 74.898438 84.300781 C 75.59375 84.496094 76.324219 84.5625 77.101562 84.5 C 77.175781 85.230469 76.910156 85.429688 76.300781 85.101562 C 75.441406 85.632812 74.574219 85.632812 73.699219 85.101562 C 73.289062 85.402344 72.820312 85.570312 72.300781 85.601562 C 72.46875 85.933594 72.367188 85.964844 72 85.699219 C 70.511719 86.058594 69.011719 86.394531 67.5 86.699219 C 56.429688 87.105469 45.765625 87.105469 35.5 86.699219 C 34.265625 86.699219 33.066406 86.765625 31.898438 86.898438 C 28.714844 86.605469 25.550781 86.140625 22.398438 85.5 C 21.816406 85.167969 21.78125 84.800781 22.300781 84.398438 C 23.375 84.335938 24.441406 84.234375 25.5 84.101562 Z M 25.5 84.101562 "/>
<path style=" stroke:none;fill-rule:evenodd;fill:rgb(53.333333%,54.117647%,77.254902%);fill-opacity:1;" d="M 74.699219 84.5 C 74.617188 84.644531 74.484375 84.746094 74.300781 84.800781 C 58.53125 84.964844 42.800781 84.933594 27.101562 84.699219 C 42.972656 84.765625 58.835938 84.699219 74.699219 84.5 Z M 74.699219 84.5 "/>
<use xlink:href="#surface11" mask="url(#mask2)"/>
</g>
</svg>
