<?xml version="1.0" encoding="UTF-8"?>
<svg xmlns="http://www.w3.org/2000/svg" xmlns:xlink="http://www.w3.org/1999/xlink" width="150px" height="150px" viewBox="0 0 150 150" version="1.1">
<defs>
<filter id="alpha" filterUnits="objectBoundingBox" x="0%" y="0%" width="100%" height="100%">
  <feColorMatrix type="matrix" in="SourceGraphic" values="0 0 0 0 1 0 0 0 0 1 0 0 0 0 1 0 0 0 1 0"/>
</filter>
<mask id="mask0">
  <g filter="url(#alpha)">
<rect x="0" y="0" width="150" height="150" style="fill:rgb(0%,0%,0%);fill-opacity:0.592157;stroke:none;"/>
  </g>
</mask>
<clipPath id="clip1">
  <rect x="0" y="0" width="150" height="150"/>
</clipPath>
<g id="surface5" clip-path="url(#clip1)">
<path style=" stroke:none;fill-rule:evenodd;fill:rgb(20.392157%,18.823529%,50.588235%);fill-opacity:1;" d="M 52.351562 125.550781 C 52.613281 125.511719 52.8125 125.609375 52.949219 125.851562 C 48.355469 126.148438 43.753906 126.25 39.148438 126.148438 C 43.550781 125.949219 47.949219 125.75 52.351562 125.550781 Z M 52.351562 125.550781 "/>
</g>
<mask id="mask1">
  <g filter="url(#alpha)">
<rect x="0" y="0" width="150" height="150" style="fill:rgb(0%,0%,0%);fill-opacity:0.619608;stroke:none;"/>
  </g>
</mask>
<clipPath id="clip2">
  <rect x="0" y="0" width="150" height="150"/>
</clipPath>
<g id="surface8" clip-path="url(#clip2)">
<path style=" stroke:none;fill-rule:evenodd;fill:rgb(22.745098%,21.960784%,52.941176%);fill-opacity:1;" d="M 98.25 125.550781 C 102.449219 125.75 106.648438 125.949219 110.851562 126.148438 C 106.648438 126.148438 102.449219 126.148438 98.25 126.148438 C 97.851562 125.949219 97.851562 125.75 98.25 125.550781 Z M 98.25 125.550781 "/>
</g>
<mask id="mask2">
  <g filter="url(#alpha)">
<rect x="0" y="0" width="150" height="150" style="fill:rgb(0%,0%,0%);fill-opacity:0.956863;stroke:none;"/>
  </g>
</mask>
<clipPath id="clip3">
  <rect x="0" y="0" width="150" height="150"/>
</clipPath>
<g id="surface11" clip-path="url(#clip3)">
<path style=" stroke:none;fill-rule:evenodd;fill:rgb(73.333333%,73.333333%,82.352941%);fill-opacity:1;" d="M 112.351562 126.449219 C 113.652344 126.398438 114.953125 126.449219 116.25 126.601562 C 117.046875 127.316406 116.949219 127.914062 115.949219 128.398438 C 111.480469 129.222656 106.980469 129.820312 102.449219 130.199219 C 84.253906 131.144531 66.050781 131.191406 47.851562 130.351562 C 49.597656 130.148438 51.398438 130.050781 53.25 130.050781 C 68.648438 130.65625 84.648438 130.65625 101.25 130.050781 C 103.519531 129.589844 105.769531 129.089844 108 128.550781 C 108.550781 128.949219 108.703125 128.898438 108.449219 128.398438 C 109.234375 128.355469 109.933594 128.105469 110.550781 127.648438 C 111.863281 128.445312 113.164062 128.445312 114.449219 127.648438 C 115.363281 128.148438 115.765625 127.847656 115.648438 126.75 C 114.488281 126.84375 113.386719 126.746094 112.351562 126.449219 Z M 112.351562 126.449219 "/>
</g>
</defs>
<g id="surface1">
<path style=" stroke:none;fill-rule:evenodd;fill:rgb(24.313725%,19.607843%,27.058824%);fill-opacity:1;" d="M 103.050781 98.851562 C 102.78125 97.800781 102.578125 96.699219 102.449219 95.550781 C 102.449219 95.351562 102.449219 95.148438 102.449219 94.949219 C 103.398438 92.128906 104.097656 89.230469 104.550781 86.25 C 105.199219 84.9375 105.699219 83.535156 106.050781 82.050781 C 106.933594 81.804688 107.835938 81.652344 108.75 81.601562 C 109.945312 80.738281 109.84375 80.089844 108.449219 79.648438 C 104.601562 79.351562 100.703125 79.25 96.75 79.351562 C 96.789062 78.835938 96.886719 78.335938 97.050781 77.851562 C 97.203125 76.804688 97.402344 75.804688 97.648438 74.851562 C 97.730469 73.621094 97.628906 72.421875 97.351562 71.25 C 101.148438 71.25 104.949219 71.25 108.75 71.25 C 108.800781 70.851562 108.699219 70.503906 108.449219 70.199219 C 104.652344 70.050781 100.851562 70 97.050781 70.050781 C 96.75 68.84375 96.449219 67.644531 96.148438 66.449219 C 97.550781 66.449219 98.949219 66.449219 100.351562 66.449219 C 100.453125 65.855469 100.253906 65.453125 99.75 65.25 C 99.109375 65.050781 98.40625 64.949219 97.648438 64.949219 C 96.820312 64.957031 96.117188 65.160156 95.550781 65.550781 C 94.933594 64.40625 94.433594 63.207031 94.050781 61.949219 C 98.949219 62 103.851562 61.949219 108.75 61.800781 C 109.496094 61.257812 109.496094 60.808594 108.75 60.449219 C 103.339844 60.253906 98.039062 60.453125 92.851562 61.050781 C 92.046875 59.542969 91.046875 58.144531 89.851562 56.851562 C 96.101562 56.949219 102.300781 56.847656 108.449219 56.550781 C 108.851562 56.25 108.851562 55.949219 108.449219 55.648438 C 102.101562 55.300781 95.703125 55.25 89.25 55.5 C 89.023438 55.703125 88.925781 55.953125 88.949219 56.25 C 87.75 54.851562 86.449219 53.550781 85.050781 52.351562 C 89.050781 52.398438 93.050781 52.351562 97.050781 52.199219 C 97.441406 51.714844 97.441406 51.265625 97.050781 50.851562 C 94.800781 50.648438 92.503906 50.550781 90.148438 50.550781 C 87.742188 50.550781 85.441406 50.75 83.25 51.148438 C 81.257812 49.554688 79.054688 48.355469 76.648438 47.550781 C 81.851562 47.601562 87.050781 47.550781 92.25 47.398438 C 92.695312 47.175781 92.996094 46.828125 93.148438 46.351562 C 93.074219 45.984375 92.875 45.785156 92.550781 45.75 C 92.515625 45.566406 92.417969 45.414062 92.25 45.300781 C 80.597656 45.050781 69 45.101562 57.449219 45.449219 C 57.152344 45.425781 56.902344 45.523438 56.699219 45.75 C 56.550781 46.238281 56.503906 46.742188 56.550781 47.25 C 56.851562 47.25 57.148438 47.25 57.449219 47.25 C 62.199219 47.546875 66.996094 47.648438 71.851562 47.550781 C 70.453125 48.535156 68.953125 49.386719 67.351562 50.101562 C 66.878906 50.519531 66.480469 50.96875 66.148438 51.449219 C 66.148438 51.148438 66.148438 50.851562 66.148438 50.550781 C 61.898438 50.453125 57.695312 50.550781 53.550781 50.851562 C 53.269531 51.171875 53.167969 51.570312 53.25 52.050781 C 57.050781 52.050781 60.851562 52.050781 64.648438 52.050781 C 63.742188 53.207031 62.691406 54.207031 61.5 55.050781 C 61.542969 56.050781 61.09375 56.652344 60.148438 56.851562 C 60.25 56.648438 60.351562 56.449219 60.449219 56.25 C 60.742188 56.15625 60.945312 55.957031 61.050781 55.648438 C 54.800781 55.25 48.601562 55.25 42.449219 55.648438 C 42.449219 56.050781 42.449219 56.449219 42.449219 56.851562 C 48.25 56.851562 54.050781 56.851562 59.851562 56.851562 C 58.714844 58.179688 57.714844 59.578125 56.851562 61.050781 C 56.851562 60.851562 56.851562 60.648438 56.851562 60.449219 C 55.40625 60.105469 53.90625 60.054688 52.351562 60.300781 C 51.886719 60.914062 51.988281 61.363281 52.648438 61.648438 C 53.851562 61.648438 55.050781 61.648438 56.25 61.648438 C 55.433594 63.007812 54.734375 64.410156 54.148438 65.851562 C 50.363281 65.253906 46.460938 65.054688 42.449219 65.25 C 42.164062 65.675781 42.066406 66.175781 42.148438 66.75 C 45.949219 66.75 49.75 66.75 53.550781 66.75 C 53.164062 67.824219 52.863281 68.925781 52.648438 70.050781 C 49.25 70.050781 45.851562 70.050781 42.449219 70.050781 C 42.164062 70.476562 42.066406 70.976562 42.148438 71.550781 C 45.402344 71.648438 48.605469 71.546875 51.75 71.25 C 51.949219 71.25 52.148438 71.25 52.351562 71.25 C 51.832031 74.003906 52.03125 76.703125 52.949219 79.351562 C 49.449219 79.300781 45.949219 79.351562 42.449219 79.5 C 41.660156 80.007812 41.660156 80.457031 42.449219 80.851562 C 42.550781 81.101562 42.753906 81.203125 43.050781 81.148438 C 43.578125 81.4375 44.179688 81.539062 44.851562 81.449219 C 45.726562 85.785156 46.730469 90.082031 47.851562 94.351562 C 47.851562 94.648438 47.851562 94.949219 47.851562 95.25 C 47.710938 96.261719 47.511719 97.261719 47.25 98.25 C 32.863281 85.203125 28.410156 69.304688 33.898438 50.550781 C 40.265625 34.386719 52.015625 24.835938 69.148438 21.898438 C 87.757812 20.230469 102.105469 27.179688 112.199219 42.75 C 118.300781 53.667969 119.703125 65.167969 116.398438 77.25 C 113.9375 85.3125 109.535156 92.109375 103.199219 97.648438 C 103.054688 98.039062 103.003906 98.4375 103.050781 98.851562 Z M 103.050781 98.851562 "/>
<path style=" stroke:none;fill-rule:evenodd;fill:rgb(21.568627%,20.784314%,23.921569%);fill-opacity:1;" d="M 57.449219 45.449219 C 69 45.101562 80.597656 45.050781 92.25 45.300781 C 92.417969 45.414062 92.515625 45.566406 92.550781 45.75 C 92.351562 45.75 92.148438 45.75 91.949219 45.75 C 80.5 45.449219 69 45.351562 57.449219 45.449219 Z M 57.449219 45.449219 "/>
<path style=" stroke:none;fill-rule:evenodd;fill:rgb(22.745098%,34.509804%,21.568627%);fill-opacity:1;" d="M 52.648438 46.050781 C 49.25 46.050781 45.851562 46.050781 42.449219 46.050781 C 42.449219 46.351562 42.449219 46.648438 42.449219 46.949219 C 45.851562 46.949219 49.25 46.949219 52.648438 46.949219 C 51.0625 47.347656 49.363281 47.546875 47.550781 47.550781 C 45.851562 47.5 44.148438 47.449219 42.449219 47.398438 C 41.789062 46.898438 41.691406 46.300781 42.148438 45.601562 C 43.898438 45.550781 45.648438 45.5 47.398438 45.449219 C 49.261719 45.453125 51.011719 45.652344 52.648438 46.050781 Z M 52.648438 46.050781 "/>
<path style=" stroke:none;fill-rule:evenodd;fill:rgb(17.647059%,23.921569%,17.647059%);fill-opacity:1;" d="M 57.449219 45.449219 C 69 45.351562 80.5 45.449219 91.949219 45.75 C 80.449219 45.699219 68.949219 45.75 57.449219 45.898438 C 57.082031 46.347656 57.082031 46.796875 57.449219 47.25 C 57.148438 47.25 56.851562 47.25 56.550781 47.25 C 56.503906 46.742188 56.550781 46.238281 56.699219 45.75 C 56.902344 45.523438 57.152344 45.425781 57.449219 45.449219 Z M 57.449219 45.449219 "/>
<path style=" stroke:none;fill-rule:evenodd;fill:rgb(45.098039%,87.058824%,37.254902%);fill-opacity:1;" d="M 52.648438 46.050781 C 53.050781 46.351562 53.050781 46.648438 52.648438 46.949219 C 49.25 46.949219 45.851562 46.949219 42.449219 46.949219 C 42.449219 46.648438 42.449219 46.351562 42.449219 46.050781 C 45.851562 46.050781 49.25 46.050781 52.648438 46.050781 Z M 52.648438 46.050781 "/>
<path style=" stroke:none;fill-rule:evenodd;fill:rgb(39.607843%,75.686275%,33.333333%);fill-opacity:1;" d="M 91.949219 45.75 C 92.320312 46.203125 92.320312 46.652344 91.949219 47.101562 C 80.449219 47.25 68.949219 47.300781 57.449219 47.25 C 57.082031 46.796875 57.082031 46.347656 57.449219 45.898438 C 68.949219 45.75 80.449219 45.699219 91.949219 45.75 Z M 91.949219 45.75 "/>
<path style=" stroke:none;fill-rule:evenodd;fill:rgb(45.882353%,87.058824%,37.647059%);fill-opacity:1;" d="M 108.449219 46.050781 C 108.851562 46.351562 108.851562 46.648438 108.449219 46.949219 C 105.449219 46.949219 102.449219 46.949219 99.449219 46.949219 C 99.449219 46.648438 99.449219 46.351562 99.449219 46.050781 C 102.449219 46.050781 105.449219 46.050781 108.449219 46.050781 Z M 108.449219 46.050781 "/>
<path style=" stroke:none;fill-rule:evenodd;fill:rgb(18.823529%,24.705882%,20.392157%);fill-opacity:1;" d="M 91.949219 45.75 C 92.148438 45.75 92.351562 45.75 92.550781 45.75 C 92.875 45.785156 93.074219 45.984375 93.148438 46.351562 C 92.996094 46.828125 92.695312 47.175781 92.25 47.398438 C 87.050781 47.550781 81.851562 47.601562 76.648438 47.550781 C 75.050781 47.550781 73.449219 47.550781 71.851562 47.550781 C 66.996094 47.648438 62.199219 47.546875 57.449219 47.25 C 68.949219 47.300781 80.449219 47.25 91.949219 47.101562 C 92.320312 46.652344 92.320312 46.203125 91.949219 45.75 Z M 91.949219 45.75 "/>
<path style=" stroke:none;fill-rule:evenodd;fill:rgb(23.137255%,34.901961%,21.568627%);fill-opacity:1;" d="M 108.449219 46.050781 C 105.449219 46.050781 102.449219 46.050781 99.449219 46.050781 C 99.449219 46.351562 99.449219 46.648438 99.449219 46.949219 C 102.449219 46.949219 105.449219 46.949219 108.449219 46.949219 C 107.0625 47.347656 105.5625 47.546875 103.949219 47.550781 C 102.449219 47.5 100.949219 47.449219 99.449219 47.398438 C 99.050781 46.800781 99.050781 46.199219 99.449219 45.601562 C 102.351562 45.398438 105.25 45.398438 108.148438 45.601562 C 108.316406 45.714844 108.417969 45.863281 108.449219 46.050781 Z M 108.449219 46.050781 "/>
<path style=" stroke:none;fill-rule:evenodd;fill:rgb(30.588235%,49.019608%,28.235294%);fill-opacity:1;" d="M 97.050781 50.851562 C 92.546875 50.800781 88.046875 50.851562 83.550781 51 C 83.71875 51.113281 83.816406 51.265625 83.851562 51.449219 C 83.550781 51.5 83.351562 51.402344 83.25 51.148438 C 85.441406 50.75 87.742188 50.550781 90.148438 50.550781 C 92.503906 50.550781 94.800781 50.648438 97.050781 50.851562 Z M 97.050781 50.851562 "/>
<path style=" stroke:none;fill-rule:evenodd;fill:rgb(40.784314%,80%,33.72549%);fill-opacity:1;" d="M 48.148438 50.851562 C 48.148438 51.148438 48.148438 51.449219 48.148438 51.75 C 46.25 51.75 44.351562 51.75 42.449219 51.75 C 42.449219 51.351562 42.449219 50.949219 42.449219 50.550781 C 44.40625 50.453125 46.304688 50.554688 48.148438 50.851562 Z M 48.148438 50.851562 "/>
<path style=" stroke:none;fill-rule:evenodd;fill:rgb(40.784314%,80.392157%,33.72549%);fill-opacity:1;" d="M 66.148438 51.449219 C 65.882812 51.632812 65.582031 51.734375 65.25 51.75 C 61.351562 51.75 57.449219 51.75 53.550781 51.75 C 53.550781 51.449219 53.550781 51.148438 53.550781 50.851562 C 57.695312 50.550781 61.898438 50.453125 66.148438 50.550781 C 66.148438 50.851562 66.148438 51.148438 66.148438 51.449219 Z M 66.148438 51.449219 "/>
<path style=" stroke:none;fill-rule:evenodd;fill:rgb(43.137255%,88.235294%,35.294118%);fill-opacity:1;" d="M 97.050781 50.851562 C 97.121094 51.238281 97.019531 51.539062 96.75 51.75 C 92.433594 51.839844 88.136719 51.738281 83.851562 51.449219 C 83.816406 51.265625 83.71875 51.113281 83.550781 51 C 88.046875 50.851562 92.546875 50.800781 97.050781 50.851562 Z M 97.050781 50.851562 "/>
<path style=" stroke:none;fill-rule:evenodd;fill:rgb(40.784314%,81.960784%,32.941176%);fill-opacity:1;" d="M 100.648438 50.851562 C 103.351562 50.851562 106.050781 50.851562 108.75 50.851562 C 108.800781 51.246094 108.699219 51.597656 108.449219 51.898438 C 105.851562 52.050781 103.25 52.101562 100.648438 52.050781 C 100.648438 51.648438 100.648438 51.25 100.648438 50.851562 Z M 100.648438 50.851562 "/>
<path style=" stroke:none;fill-rule:evenodd;fill:rgb(29.411765%,57.647059%,25.490196%);fill-opacity:1;" d="M 48.148438 50.851562 C 48.429688 51.171875 48.53125 51.570312 48.449219 52.050781 C 46.394531 52.148438 44.394531 52.046875 42.449219 51.75 C 44.351562 51.75 46.25 51.75 48.148438 51.75 C 48.148438 51.449219 48.148438 51.148438 48.148438 50.851562 Z M 48.148438 50.851562 "/>
<path style=" stroke:none;fill-rule:evenodd;fill:rgb(29.803922%,57.254902%,25.490196%);fill-opacity:1;" d="M 53.550781 50.851562 C 53.550781 51.148438 53.550781 51.449219 53.550781 51.75 C 57.449219 51.75 61.351562 51.75 65.25 51.75 C 65.148438 52 64.949219 52.101562 64.648438 52.050781 C 60.851562 52.050781 57.050781 52.050781 53.25 52.050781 C 53.167969 51.570312 53.269531 51.171875 53.550781 50.851562 Z M 53.550781 50.851562 "/>
<path style=" stroke:none;fill-rule:evenodd;fill:rgb(29.019608%,57.254902%,25.490196%);fill-opacity:1;" d="M 83.851562 51.449219 C 88.136719 51.738281 92.433594 51.839844 96.75 51.75 C 92.703125 52.046875 88.601562 52.148438 84.449219 52.050781 C 84.148438 51.949219 83.949219 51.75 83.851562 51.449219 Z M 83.851562 51.449219 "/>
<path style=" stroke:none;fill-rule:evenodd;fill:rgb(18.039216%,24.313725%,18.823529%);fill-opacity:1;" d="M 97.050781 50.851562 C 97.441406 51.265625 97.441406 51.714844 97.050781 52.199219 C 93.050781 52.351562 89.050781 52.398438 85.050781 52.351562 C 84.753906 52.402344 84.550781 52.300781 84.449219 52.050781 C 88.601562 52.148438 92.703125 52.046875 96.75 51.75 C 97.019531 51.539062 97.121094 51.238281 97.050781 50.851562 Z M 97.050781 50.851562 "/>
<path style=" stroke:none;fill-rule:evenodd;fill:rgb(23.921569%,40.784314%,23.137255%);fill-opacity:1;" d="M 42.449219 55.648438 C 48.601562 55.25 54.800781 55.25 61.050781 55.648438 C 60.945312 55.957031 60.742188 56.15625 60.449219 56.25 C 54.558594 55.652344 48.558594 55.453125 42.449219 55.648438 Z M 42.449219 55.648438 "/>
<path style=" stroke:none;fill-rule:evenodd;fill:rgb(40.784314%,84.705882%,32.54902%);fill-opacity:1;" d="M 42.449219 55.648438 C 48.558594 55.453125 54.558594 55.652344 60.449219 56.25 C 60.351562 56.449219 60.25 56.648438 60.148438 56.851562 C 60.050781 56.851562 59.949219 56.851562 59.851562 56.851562 C 54.050781 56.851562 48.25 56.851562 42.449219 56.851562 C 42.449219 56.449219 42.449219 56.050781 42.449219 55.648438 Z M 42.449219 55.648438 "/>
<path style=" stroke:none;fill-rule:evenodd;fill:rgb(42.745098%,89.411765%,33.333333%);fill-opacity:1;" d="M 108.449219 55.648438 C 108.851562 55.949219 108.851562 56.25 108.449219 56.550781 C 102.25 56.601562 96.050781 56.550781 89.851562 56.398438 C 89.714844 56.277344 89.613281 56.125 89.550781 55.949219 C 95.847656 55.648438 102.148438 55.550781 108.449219 55.648438 Z M 108.449219 55.648438 "/>
<path style=" stroke:none;fill-rule:evenodd;fill:rgb(25.490196%,28.627451%,46.27451%);fill-opacity:1;" d="M 78.75 49.648438 C 87.644531 54.496094 93.496094 61.796875 96.300781 71.550781 C 96.449219 73.148438 96.5 74.746094 96.449219 76.351562 C 95.9375 77.382812 95.539062 78.480469 95.25 79.648438 C 94.925781 79.613281 94.722656 79.414062 94.648438 79.050781 C 95.875 75.152344 95.675781 71.351562 94.050781 67.648438 C 93.273438 65.617188 92.273438 63.71875 91.050781 61.949219 C 89.046875 58.347656 86.046875 56.046875 82.050781 55.050781 C 82.605469 55.117188 82.855469 54.917969 82.800781 54.449219 C 81.230469 53 79.882812 51.398438 78.75 49.648438 Z M 78.75 49.648438 "/>
<path style=" stroke:none;fill-rule:evenodd;fill:rgb(31.372549%,58.039216%,27.843137%);fill-opacity:1;" d="M 108.449219 55.648438 C 102.148438 55.550781 95.847656 55.648438 89.550781 55.949219 C 89.613281 56.125 89.714844 56.277344 89.851562 56.398438 C 96.050781 56.550781 102.25 56.601562 108.449219 56.550781 C 102.300781 56.847656 96.101562 56.949219 89.851562 56.851562 C 89.550781 56.648438 89.25 56.449219 88.949219 56.25 C 88.925781 55.953125 89.023438 55.703125 89.25 55.5 C 95.703125 55.25 102.101562 55.300781 108.449219 55.648438 Z M 108.449219 55.648438 "/>
<path style=" stroke:none;fill-rule:evenodd;fill:rgb(21.960784%,33.72549%,20%);fill-opacity:1;" d="M 56.851562 60.449219 C 55.449219 60.449219 54.050781 60.449219 52.648438 60.449219 C 52.648438 60.851562 52.648438 61.25 52.648438 61.648438 C 51.988281 61.363281 51.886719 60.914062 52.351562 60.300781 C 53.90625 60.054688 55.40625 60.105469 56.851562 60.449219 Z M 56.851562 60.449219 "/>
<path style=" stroke:none;fill-rule:evenodd;fill:rgb(42.745098%,84.705882%,36.470588%);fill-opacity:1;" d="M 56.851562 60.449219 C 56.851562 60.648438 56.851562 60.851562 56.851562 61.050781 C 56.550781 61.148438 56.351562 61.351562 56.25 61.648438 C 55.050781 61.648438 53.851562 61.648438 52.648438 61.648438 C 52.648438 61.25 52.648438 60.851562 52.648438 60.449219 C 54.050781 60.449219 55.449219 60.449219 56.851562 60.449219 Z M 56.851562 60.449219 "/>
<path style=" stroke:none;fill-rule:evenodd;fill:rgb(41.176471%,77.254902%,35.294118%);fill-opacity:1;" d="M 42.449219 60.449219 C 44.351562 60.398438 46.253906 60.449219 48.148438 60.601562 C 48.550781 60.898438 48.550781 61.199219 48.148438 61.5 C 46.253906 61.648438 44.351562 61.699219 42.449219 61.648438 C 42.449219 61.25 42.449219 60.851562 42.449219 60.449219 Z M 42.449219 60.449219 "/>
<path style=" stroke:none;fill-rule:evenodd;fill:rgb(39.607843%,91.372549%,30.588235%);fill-opacity:1;" d="M 42.75 60.75 C 44.460938 60.652344 46.160156 60.75 47.851562 61.050781 C 47 61.148438 46.148438 61.25 45.300781 61.351562 C 44.324219 61.34375 43.472656 61.144531 42.75 60.75 Z M 42.75 60.75 "/>
<path style=" stroke:none;fill-rule:evenodd;fill:rgb(41.960784%,78.431373%,36.078431%);fill-opacity:1;" d="M 108.75 60.449219 C 108.800781 60.847656 108.699219 61.195312 108.449219 61.5 C 103.449219 61.648438 98.449219 61.699219 93.449219 61.648438 C 93.25 61.449219 93.050781 61.25 92.851562 61.050781 C 98.039062 60.453125 103.339844 60.253906 108.75 60.449219 Z M 108.75 60.449219 "/>
<path style=" stroke:none;fill-rule:evenodd;fill:rgb(39.607843%,91.372549%,30.196078%);fill-opacity:1;" d="M 93.449219 61.050781 C 98.300781 60.652344 103.203125 60.652344 108.148438 61.050781 C 103.230469 61.445312 98.332031 61.445312 93.449219 61.050781 Z M 93.449219 61.050781 "/>
<path style=" stroke:none;fill-rule:evenodd;fill:rgb(18.039216%,27.058824%,17.254902%);fill-opacity:1;" d="M 42.449219 60.449219 C 44.394531 60.105469 46.394531 60.054688 48.449219 60.300781 C 48.851562 60.800781 48.851562 61.300781 48.449219 61.800781 C 46.394531 62.046875 44.394531 61.996094 42.449219 61.648438 C 44.351562 61.699219 46.253906 61.648438 48.148438 61.5 C 48.550781 61.199219 48.550781 60.898438 48.148438 60.601562 C 46.253906 60.449219 44.351562 60.398438 42.449219 60.449219 Z M 42.449219 60.449219 "/>
<path style=" stroke:none;fill-rule:evenodd;fill:rgb(16.862745%,24.705882%,16.470588%);fill-opacity:1;" d="M 108.75 60.449219 C 109.496094 60.808594 109.496094 61.257812 108.75 61.800781 C 103.851562 61.949219 98.949219 62 94.050781 61.949219 C 93.753906 62 93.550781 61.902344 93.449219 61.648438 C 98.449219 61.699219 103.449219 61.648438 108.449219 61.5 C 108.699219 61.195312 108.800781 60.847656 108.75 60.449219 Z M 108.75 60.449219 "/>
<path style=" stroke:none;fill-rule:evenodd;fill:rgb(19.215686%,29.019608%,16.470588%);fill-opacity:1;" d="M 99.75 65.25 C 98.449219 65.25 97.148438 65.25 95.851562 65.25 C 95.851562 65.550781 95.851562 65.851562 95.851562 66.148438 C 95.597656 66.046875 95.5 65.847656 95.550781 65.550781 C 96.117188 65.160156 96.820312 64.957031 97.648438 64.949219 C 98.40625 64.949219 99.109375 65.050781 99.75 65.25 Z M 99.75 65.25 "/>
<path style=" stroke:none;fill-rule:evenodd;fill:rgb(16.470588%,26.666667%,16.862745%);fill-opacity:1;" d="M 103.648438 65.25 C 105.296875 64.90625 106.996094 64.855469 108.75 65.101562 C 109.214844 65.714844 109.113281 66.164062 108.449219 66.449219 C 108.804688 66.09375 108.804688 65.742188 108.449219 65.398438 C 106.851562 65.25 105.253906 65.199219 103.648438 65.25 Z M 103.648438 65.25 "/>
<path style=" stroke:none;fill-rule:evenodd;fill:rgb(47.058824%,81.176471%,40%);fill-opacity:1;" d="M 103.648438 65.25 C 105.253906 65.199219 106.851562 65.25 108.449219 65.398438 C 108.804688 65.742188 108.804688 66.09375 108.449219 66.449219 C 106.847656 66.5 105.246094 66.449219 103.648438 66.300781 C 103.292969 65.957031 103.292969 65.605469 103.648438 65.25 Z M 103.648438 65.25 "/>
<path style=" stroke:none;fill-rule:evenodd;fill:rgb(39.607843%,91.372549%,27.45098%);fill-opacity:1;" d="M 103.949219 65.550781 C 105.363281 65.453125 106.765625 65.550781 108.148438 65.851562 C 107.449219 65.949219 106.75 66.050781 106.050781 66.148438 C 105.21875 66.140625 104.519531 65.941406 103.949219 65.550781 Z M 103.949219 65.550781 "/>
<path style=" stroke:none;fill-rule:evenodd;fill:rgb(45.098039%,82.745098%,38.039216%);fill-opacity:1;" d="M 42.449219 65.25 C 46.460938 65.054688 50.363281 65.253906 54.148438 65.851562 C 54.050781 66.148438 53.851562 66.351562 53.550781 66.449219 C 49.851562 66.449219 46.148438 66.449219 42.449219 66.449219 C 42.449219 66.050781 42.449219 65.648438 42.449219 65.25 Z M 42.449219 65.25 "/>
<path style=" stroke:none;fill-rule:evenodd;fill:rgb(38.823529%,91.764706%,27.45098%);fill-opacity:1;" d="M 42.75 65.550781 C 46.355469 65.449219 49.957031 65.550781 53.550781 65.851562 C 51.75 65.949219 49.949219 66.050781 48.148438 66.148438 C 46.238281 66.148438 44.4375 65.949219 42.75 65.550781 Z M 42.75 65.550781 "/>
<path style=" stroke:none;fill-rule:evenodd;fill:rgb(43.529412%,85.098039%,36.862745%);fill-opacity:1;" d="M 99.75 65.25 C 100.253906 65.453125 100.453125 65.855469 100.351562 66.449219 C 98.949219 66.449219 97.550781 66.449219 96.148438 66.449219 C 95.949219 66.449219 95.851562 66.351562 95.851562 66.148438 C 95.851562 65.851562 95.851562 65.550781 95.851562 65.25 C 97.148438 65.25 98.449219 65.25 99.75 65.25 Z M 99.75 65.25 "/>
<path style=" stroke:none;fill-rule:evenodd;fill:rgb(16.078431%,25.882353%,16.470588%);fill-opacity:1;" d="M 42.449219 65.25 C 42.449219 65.648438 42.449219 66.050781 42.449219 66.449219 C 46.148438 66.449219 49.851562 66.449219 53.550781 66.449219 C 53.550781 66.550781 53.550781 66.648438 53.550781 66.75 C 49.75 66.75 45.949219 66.75 42.148438 66.75 C 42.066406 66.175781 42.164062 65.675781 42.449219 65.25 Z M 42.449219 65.25 "/>
<path style=" stroke:none;fill-rule:evenodd;fill:rgb(16.078431%,25.098039%,15.686275%);fill-opacity:1;" d="M 103.648438 65.25 C 103.292969 65.605469 103.292969 65.957031 103.648438 66.300781 C 105.246094 66.449219 106.847656 66.5 108.449219 66.449219 C 106.804688 66.796875 105.105469 66.84375 103.351562 66.601562 C 102.886719 65.988281 102.988281 65.535156 103.648438 65.25 Z M 103.648438 65.25 "/>
<path style=" stroke:none;fill-rule:evenodd;fill:rgb(18.039216%,20.784314%,43.529412%);fill-opacity:1;" d="M 91.050781 61.949219 C 92.273438 63.71875 93.273438 65.617188 94.050781 67.648438 C 94.15625 68.851562 94.308594 70.050781 94.5 71.25 C 94.804688 70.886719 94.957031 70.988281 94.949219 71.550781 C 94.902344 72.824219 94.855469 74.121094 94.800781 75.449219 C 94.699219 75.050781 94.601562 74.648438 94.5 74.25 C 94.40625 74.492188 94.257812 74.691406 94.050781 74.851562 C 93.742188 74.445312 93.34375 74.242188 92.851562 74.25 C 93.210938 75.894531 93.210938 77.492188 92.851562 79.050781 C 92.925781 78.027344 92.824219 77.027344 92.550781 76.050781 C 92.078125 75.476562 91.480469 75.175781 90.75 75.148438 C 91.460938 70.980469 91.0625 66.980469 89.550781 63.148438 C 90.050781 63.148438 90.550781 63.148438 91.050781 63.148438 C 91.050781 62.75 91.050781 62.351562 91.050781 61.949219 Z M 91.050781 61.949219 "/>
<path style=" stroke:none;fill-rule:evenodd;fill:rgb(6.27451%,3.137255%,39.607843%);fill-opacity:1;" d="M 71.851562 47.550781 C 73.449219 47.550781 75.050781 47.550781 76.648438 47.550781 C 79.054688 48.355469 81.257812 49.554688 83.25 51.148438 C 83.351562 51.402344 83.550781 51.5 83.851562 51.449219 C 83.949219 51.75 84.148438 51.949219 84.449219 52.050781 C 84.550781 52.300781 84.753906 52.402344 85.050781 52.351562 C 86.449219 53.550781 87.75 54.851562 88.949219 56.25 C 89.25 56.449219 89.550781 56.648438 89.851562 56.851562 C 91.046875 58.144531 92.046875 59.542969 92.851562 61.050781 C 93.050781 61.25 93.25 61.449219 93.449219 61.648438 C 93.550781 61.902344 93.753906 62 94.050781 61.949219 C 94.433594 63.207031 94.933594 64.40625 95.550781 65.550781 C 95.5 65.847656 95.597656 66.046875 95.851562 66.148438 C 95.851562 66.351562 95.949219 66.449219 96.148438 66.449219 C 96.449219 67.644531 96.75 68.84375 97.050781 70.050781 C 96.96875 70.53125 97.070312 70.929688 97.351562 71.25 C 97.628906 72.421875 97.730469 73.621094 97.648438 74.851562 C 97.402344 75.804688 97.203125 76.804688 97.050781 77.851562 C 96.523438 77.535156 96.324219 77.035156 96.449219 76.351562 C 96.5 74.746094 96.449219 73.148438 96.300781 71.550781 C 93.496094 61.796875 87.644531 54.496094 78.75 49.648438 C 78.207031 49.3125 77.605469 49.109375 76.949219 49.050781 C 74.292969 48.371094 71.792969 48.824219 69.449219 50.398438 C 66.4375 52.308594 63.6875 54.558594 61.199219 57.148438 C 61.050781 57.449219 60.898438 57.75 60.75 58.050781 C 61.421875 58.34375 62.121094 58.441406 62.851562 58.351562 C 62.632812 57.222656 63.03125 56.421875 64.050781 55.949219 C 65.097656 56.144531 65.847656 56.742188 66.300781 57.75 C 68.972656 55.34375 72.121094 54.144531 75.75 54.148438 C 77.878906 54.289062 79.980469 54.589844 82.050781 55.050781 C 86.046875 56.046875 89.046875 58.347656 91.050781 61.949219 C 91.050781 62.351562 91.050781 62.75 91.050781 63.148438 C 90.550781 63.148438 90.050781 63.148438 89.550781 63.148438 C 91.0625 66.980469 91.460938 70.980469 90.75 75.148438 C 91.480469 75.175781 92.078125 75.476562 92.550781 76.050781 C 92.824219 77.027344 92.925781 78.027344 92.851562 79.050781 C 92.324219 80.421875 91.621094 81.722656 90.75 82.949219 C 89.996094 83.5625 89.195312 84.0625 88.351562 84.449219 C 87.824219 84.132812 87.625 83.632812 87.75 82.949219 C 88.140625 81.007812 87.640625 79.40625 86.25 78.148438 C 86.222656 77.464844 86.019531 76.863281 85.648438 76.351562 C 85.628906 75.539062 85.527344 74.738281 85.351562 73.949219 C 85.351562 73.550781 85.351562 73.148438 85.351562 72.75 C 79.757812 73.964844 74.707031 72.867188 70.199219 69.449219 C 70.511719 70.1875 70.761719 70.988281 70.949219 71.851562 C 68.707031 72.027344 66.90625 71.226562 65.550781 69.449219 C 65.207031 71.921875 64.605469 74.324219 63.75 76.648438 C 63.332031 77.070312 63.03125 77.570312 62.851562 78.148438 C 62.554688 78.539062 62.253906 78.9375 61.949219 79.351562 C 61.703125 80.089844 61.554688 80.890625 61.5 81.75 C 61.445312 80.792969 61.296875 79.890625 61.050781 79.050781 C 60.722656 78.09375 60.320312 77.195312 59.851562 76.351562 C 59.851562 76.25 59.851562 76.148438 59.851562 76.050781 C 59.351562 75.851562 58.851562 75.648438 58.351562 75.449219 C 58.671875 75.167969 59.070312 75.070312 59.550781 75.148438 C 58.773438 72.035156 58.773438 68.9375 59.550781 65.851562 C 60.0625 64.882812 60.765625 64.03125 61.648438 63.300781 C 60.636719 62.792969 59.734375 62.144531 58.949219 61.351562 C 58.863281 61.113281 58.714844 60.914062 58.5 60.75 C 54.753906 65.390625 53.054688 70.691406 53.398438 76.648438 C 53.664062 77.519531 54.011719 78.320312 54.449219 79.050781 C 54.726562 80.207031 55.179688 81.308594 55.800781 82.351562 C 56.703125 83.363281 57.453125 84.464844 58.050781 85.648438 C 58.050781 85.949219 58.050781 86.25 58.050781 86.550781 C 57.4375 86.554688 56.835938 86.652344 56.25 86.851562 C 55.886719 86.777344 55.6875 86.574219 55.648438 86.25 C 55.992188 86.128906 56.292969 85.925781 56.550781 85.648438 C 55.378906 83.90625 54.378906 82.105469 53.550781 80.25 C 53.550781 80.050781 53.449219 79.949219 53.25 79.949219 C 53.25 79.851562 53.25 79.75 53.25 79.648438 C 53.25 79.449219 53.148438 79.351562 52.949219 79.351562 C 52.03125 76.703125 51.832031 74.003906 52.351562 71.25 C 52.628906 70.929688 52.730469 70.53125 52.648438 70.050781 C 52.863281 68.925781 53.164062 67.824219 53.550781 66.75 C 53.550781 66.648438 53.550781 66.550781 53.550781 66.449219 C 53.851562 66.351562 54.050781 66.148438 54.148438 65.851562 C 54.734375 64.410156 55.433594 63.007812 56.25 61.648438 C 56.351562 61.351562 56.550781 61.148438 56.851562 61.050781 C 57.714844 59.578125 58.714844 58.179688 59.851562 56.851562 C 59.949219 56.851562 60.050781 56.851562 60.148438 56.851562 C 61.09375 56.652344 61.542969 56.050781 61.5 55.050781 C 62.691406 54.207031 63.742188 53.207031 64.648438 52.050781 C 64.949219 52.101562 65.148438 52 65.25 51.75 C 65.582031 51.734375 65.882812 51.632812 66.148438 51.449219 C 66.480469 50.96875 66.878906 50.519531 67.351562 50.101562 C 68.953125 49.386719 70.453125 48.535156 71.851562 47.550781 Z M 71.851562 47.550781 "/>
<path style=" stroke:none;fill-rule:evenodd;fill:rgb(47.45098%,17.254902%,35.686275%);fill-opacity:1;" d="M 88.050781 63.449219 C 88.320312 63.6875 88.519531 63.988281 88.648438 64.351562 C 89.613281 67.988281 89.8125 71.6875 89.25 75.449219 C 89.132812 76.40625 88.832031 77.304688 88.351562 78.148438 C 87.800781 78.472656 87.453125 78.269531 87.300781 77.550781 C 86.980469 76.121094 86.628906 74.71875 86.25 73.351562 C 86.246094 72.148438 86.847656 71.648438 88.050781 71.851562 C 88.050781 71.550781 88.050781 71.25 88.050781 70.949219 C 87.449219 70.949219 86.851562 70.949219 86.25 70.949219 C 83.1875 71.539062 80.089844 71.691406 76.949219 71.398438 C 76.535156 70.980469 76.285156 70.53125 76.199219 70.050781 C 74.570312 70.761719 74.023438 70.363281 74.550781 68.851562 C 74.25 68.851562 73.949219 68.851562 73.648438 68.851562 C 73.648438 68.550781 73.648438 68.25 73.648438 67.949219 C 76.609375 68.601562 79.609375 69.101562 82.648438 69.449219 C 83.839844 69.1875 85.042969 68.984375 86.25 68.851562 C 87.378906 67.265625 87.976562 65.464844 88.050781 63.449219 Z M 88.050781 63.449219 "/>
<path style=" stroke:none;fill-rule:evenodd;fill:rgb(78.823529%,59.215686%,72.156863%);fill-opacity:1;" d="M 62.851562 63.75 C 63.011719 63.769531 63.113281 63.867188 63.148438 64.050781 C 60.8125 66.484375 59.960938 69.386719 60.601562 72.75 C 60.757812 73.785156 61.007812 74.785156 61.351562 75.75 C 61.585938 76.40625 61.585938 77.007812 61.351562 77.550781 C 60.335938 74.632812 59.886719 71.632812 60 68.550781 C 60.109375 66.433594 61.058594 64.832031 62.851562 63.75 Z M 62.851562 63.75 "/>
<path style=" stroke:none;fill-rule:evenodd;fill:rgb(60%,22.352941%,34.901961%);fill-opacity:1;" d="M 71.25 67.351562 C 70.28125 67.445312 69.28125 67.496094 68.25 67.5 C 67.804688 68.3125 67.902344 69.0625 68.550781 69.75 C 68.300781 70.015625 68.003906 70.117188 67.648438 70.050781 C 66.722656 69.386719 66.125 68.484375 65.851562 67.351562 C 66.808594 67.445312 67.109375 67.097656 66.75 66.300781 C 68.597656 65.4375 70.097656 65.789062 71.25 67.351562 Z M 71.25 67.351562 "/>
<path style=" stroke:none;fill-rule:evenodd;fill:rgb(62.745098%,32.54902%,47.45098%);fill-opacity:1;" d="M 66.75 58.949219 C 66.75 59.050781 66.75 59.148438 66.75 59.25 C 66.75 59.550781 66.75 59.851562 66.75 60.148438 C 66.320312 60.171875 65.921875 60.074219 65.550781 59.851562 C 65.265625 60.3125 65.164062 60.8125 65.25 61.351562 C 64.242188 61.433594 63.542969 61.035156 63.148438 60.148438 C 63.6875 60.519531 64.289062 60.71875 64.949219 60.75 C 64.695312 59.789062 64.394531 58.839844 64.050781 57.898438 C 64.214844 56.996094 64.5625 56.945312 65.101562 57.75 C 65.175781 58.328125 65.324219 58.878906 65.550781 59.398438 C 66.058594 59.546875 66.457031 59.394531 66.75 58.949219 Z M 66.75 58.949219 "/>
<path style=" stroke:none;fill-rule:evenodd;fill:rgb(67.058824%,24.313725%,32.156863%);fill-opacity:1;" d="M 84.75 57.449219 C 86.578125 58.222656 88.128906 59.421875 89.398438 61.050781 C 89.542969 61.335938 89.59375 61.632812 89.550781 61.949219 C 88.949219 61.949219 88.351562 61.949219 87.75 61.949219 C 87.789062 62.464844 87.886719 62.964844 88.050781 63.449219 C 87.976562 65.464844 87.378906 67.265625 86.25 68.851562 C 85.042969 68.984375 83.839844 69.1875 82.648438 69.449219 C 79.609375 69.101562 76.609375 68.601562 73.648438 67.949219 C 72.902344 67.566406 72.101562 67.367188 71.25 67.351562 C 70.097656 65.789062 68.597656 65.4375 66.75 66.300781 C 67.109375 67.097656 66.808594 67.445312 65.851562 67.351562 C 65.582031 67.167969 65.28125 67.066406 64.949219 67.050781 C 64.367188 66.683594 63.964844 66.882812 63.75 67.648438 C 63.398438 69.351562 63.046875 71.054688 62.699219 72.75 C 62.414062 73.847656 61.964844 74.847656 61.351562 75.75 C 61.007812 74.785156 60.757812 73.785156 60.601562 72.75 C 59.960938 69.386719 60.8125 66.484375 63.148438 64.050781 C 63.113281 63.867188 63.011719 63.769531 62.851562 63.75 C 63.222656 63.535156 63.371094 63.238281 63.300781 62.851562 C 62.234375 62.292969 61.183594 61.691406 60.148438 61.050781 C 59.675781 60.546875 59.472656 59.949219 59.550781 59.25 C 60.871094 59.109375 62.070312 59.410156 63.148438 60.148438 C 63.542969 61.035156 64.242188 61.433594 65.25 61.351562 C 65.164062 60.8125 65.265625 60.3125 65.550781 59.851562 C 65.921875 60.074219 66.320312 60.171875 66.75 60.148438 C 66.75 59.851562 66.75 59.550781 66.75 59.25 C 68.308594 57.746094 70.15625 56.746094 72.300781 56.25 C 72.816406 56.667969 73.417969 56.867188 74.101562 56.851562 C 75.097656 56.554688 76.097656 56.253906 77.101562 55.949219 C 79.675781 56.335938 82.226562 56.835938 84.75 57.449219 Z M 84.75 57.449219 "/>
<path style=" stroke:none;fill-rule:evenodd;fill:rgb(74.117647%,37.647059%,44.705882%);fill-opacity:1;" d="M 79.648438 65.550781 C 81.5625 65.488281 83.464844 65.589844 85.351562 65.851562 C 85.429688 66.292969 85.328125 66.691406 85.050781 67.050781 C 83.175781 67.796875 81.273438 67.847656 79.351562 67.199219 C 78.945312 66.558594 79.046875 66.007812 79.648438 65.550781 Z M 79.648438 65.550781 "/>
<path style=" stroke:none;fill-rule:evenodd;fill:rgb(82.352941%,61.568627%,71.372549%);fill-opacity:1;" d="M 84.75 57.449219 C 82.226562 56.835938 79.675781 56.335938 77.101562 55.949219 C 76.097656 56.253906 75.097656 56.554688 74.101562 56.851562 C 73.417969 56.867188 72.816406 56.667969 72.300781 56.25 C 70.15625 56.746094 68.308594 57.746094 66.75 59.25 C 66.75 59.148438 66.75 59.050781 66.75 58.949219 C 68.164062 57.042969 70.0625 55.890625 72.449219 55.5 C 74.851562 55.300781 77.25 55.300781 79.648438 55.5 C 81.46875 55.925781 83.171875 56.574219 84.75 57.449219 Z M 84.75 57.449219 "/>
<path style=" stroke:none;fill-rule:evenodd;fill:rgb(62.745098%,65.098039%,75.294118%);fill-opacity:1;" d="M 76.949219 49.050781 C 74.882812 48.796875 72.980469 49.246094 71.25 50.398438 C 68.558594 51.894531 66.160156 53.742188 64.050781 55.949219 C 63.03125 56.421875 62.632812 57.222656 62.851562 58.351562 C 62.121094 58.441406 61.421875 58.34375 60.75 58.050781 C 60.898438 57.75 61.050781 57.449219 61.199219 57.148438 C 63.6875 54.558594 66.4375 52.308594 69.449219 50.398438 C 71.792969 48.824219 74.292969 48.371094 76.949219 49.050781 Z M 76.949219 49.050781 "/>
<path style=" stroke:none;fill-rule:evenodd;fill:rgb(30.196078%,34.901961%,41.960784%);fill-opacity:1;" d="M 76.949219 49.050781 C 77.605469 49.109375 78.207031 49.3125 78.75 49.648438 C 79.882812 51.398438 81.230469 53 82.800781 54.449219 C 82.855469 54.917969 82.605469 55.117188 82.050781 55.050781 C 79.980469 54.589844 77.878906 54.289062 75.75 54.148438 C 72.121094 54.144531 68.972656 55.34375 66.300781 57.75 C 65.847656 56.742188 65.097656 56.144531 64.050781 55.949219 C 66.160156 53.742188 68.558594 51.894531 71.25 50.398438 C 72.980469 49.246094 74.882812 48.796875 76.949219 49.050781 Z M 76.949219 49.050781 "/>
<path style=" stroke:none;fill-rule:evenodd;fill:rgb(43.921569%,16.862745%,38.823529%);fill-opacity:1;" d="M 71.25 67.351562 C 72.101562 67.367188 72.902344 67.566406 73.648438 67.949219 C 73.648438 68.25 73.648438 68.550781 73.648438 68.851562 C 73.949219 68.851562 74.25 68.851562 74.550781 68.851562 C 74.023438 70.363281 74.570312 70.761719 76.199219 70.050781 C 76.285156 70.53125 76.535156 70.980469 76.949219 71.398438 C 80.089844 71.691406 83.1875 71.539062 86.25 70.949219 C 80.144531 73.238281 74.644531 72.1875 69.75 67.800781 C 69.464844 67.65625 69.164062 67.605469 68.851562 67.648438 C 68.730469 68.679688 68.933594 69.628906 69.449219 70.5 C 68.734375 70.722656 68.136719 70.570312 67.648438 70.050781 C 68.003906 70.117188 68.300781 70.015625 68.550781 69.75 C 67.902344 69.0625 67.804688 68.3125 68.25 67.5 C 69.28125 67.496094 70.28125 67.445312 71.25 67.351562 Z M 71.25 67.351562 "/>
<path style=" stroke:none;fill-rule:evenodd;fill:rgb(38.823529%,16.470588%,41.568627%);fill-opacity:1;" d="M 88.648438 64.351562 C 89.722656 66.378906 90.222656 68.578125 90.148438 70.949219 C 90.261719 72.570312 89.960938 74.070312 89.25 75.449219 C 89.8125 71.6875 89.613281 67.988281 88.648438 64.351562 Z M 88.648438 64.351562 "/>
<path style=" stroke:none;fill-rule:evenodd;fill:rgb(47.45098%,18.039216%,36.862745%);fill-opacity:1;" d="M 64.949219 67.050781 C 64.335938 69.628906 63.785156 72.230469 63.300781 74.851562 C 62.992188 75.828125 62.542969 76.726562 61.949219 77.550781 C 61.722656 77.933594 61.523438 77.933594 61.351562 77.550781 C 61.585938 77.007812 61.585938 76.40625 61.351562 75.75 C 61.964844 74.847656 62.414062 73.847656 62.699219 72.75 C 63.046875 71.054688 63.398438 69.351562 63.75 67.648438 C 63.964844 66.882812 64.367188 66.683594 64.949219 67.050781 Z M 64.949219 67.050781 "/>
<path style=" stroke:none;fill-rule:evenodd;fill:rgb(59.607843%,62.352941%,73.72549%);fill-opacity:1;" d="M 58.949219 61.351562 C 56.839844 64.46875 55.292969 67.867188 54.300781 71.550781 C 54.078125 74.058594 54.128906 76.5625 54.449219 79.050781 C 54.011719 78.320312 53.664062 77.519531 53.398438 76.648438 C 53.054688 70.691406 54.753906 65.390625 58.5 60.75 C 58.714844 60.914062 58.863281 61.113281 58.949219 61.351562 Z M 58.949219 61.351562 "/>
<path style=" stroke:none;fill-rule:evenodd;fill:rgb(42.745098%,79.215686%,36.862745%);fill-opacity:1;" d="M 97.050781 70.050781 C 100.851562 70 104.652344 70.050781 108.449219 70.199219 C 108.699219 70.503906 108.800781 70.851562 108.75 71.25 C 104.949219 71.25 101.148438 71.25 97.351562 71.25 C 97.070312 70.929688 96.96875 70.53125 97.050781 70.050781 Z M 97.050781 70.050781 "/>
<path style=" stroke:none;fill-rule:evenodd;fill:rgb(39.607843%,91.372549%,29.411765%);fill-opacity:1;" d="M 97.648438 70.351562 C 101.15625 70.25 104.65625 70.351562 108.148438 70.648438 C 106.398438 70.75 104.648438 70.851562 102.898438 70.949219 C 101.039062 70.949219 99.289062 70.75 97.648438 70.351562 Z M 97.648438 70.351562 "/>
<path style=" stroke:none;fill-rule:evenodd;fill:rgb(43.921569%,81.960784%,38.039216%);fill-opacity:1;" d="M 42.449219 70.050781 C 45.851562 70.050781 49.25 70.050781 52.648438 70.050781 C 52.730469 70.53125 52.628906 70.929688 52.351562 71.25 C 52.148438 71.25 51.949219 71.25 51.75 71.25 C 48.648438 71.25 45.550781 71.25 42.449219 71.25 C 42.449219 70.851562 42.449219 70.449219 42.449219 70.050781 Z M 42.449219 70.050781 "/>
<path style=" stroke:none;fill-rule:evenodd;fill:rgb(39.215686%,91.764706%,29.019608%);fill-opacity:1;" d="M 42.75 70.351562 C 45.757812 70.25 48.757812 70.351562 51.75 70.648438 C 50.25 70.75 48.75 70.851562 47.25 70.949219 C 45.636719 70.949219 44.136719 70.75 42.75 70.351562 Z M 42.75 70.351562 "/>
<path style=" stroke:none;fill-rule:evenodd;fill:rgb(18.431373%,29.803922%,16.862745%);fill-opacity:1;" d="M 42.449219 70.050781 C 42.449219 70.449219 42.449219 70.851562 42.449219 71.25 C 45.550781 71.25 48.648438 71.25 51.75 71.25 C 48.605469 71.546875 45.402344 71.648438 42.148438 71.550781 C 42.066406 70.976562 42.164062 70.476562 42.449219 70.050781 Z M 42.449219 70.050781 "/>
<path style=" stroke:none;fill-rule:evenodd;fill:rgb(30.588235%,36.078431%,41.960784%);fill-opacity:1;" d="M 58.949219 61.351562 C 59.734375 62.144531 60.636719 62.792969 61.648438 63.300781 C 60.765625 64.03125 60.0625 64.882812 59.550781 65.851562 C 58.171875 68.175781 57.972656 70.675781 58.949219 73.351562 C 58.441406 73.570312 57.992188 73.867188 57.601562 74.25 C 57.476562 74.113281 57.324219 74.011719 57.148438 73.949219 C 56.753906 76.25 56.402344 78.550781 56.101562 80.851562 C 55.851562 80.5 55.601562 80.152344 55.351562 79.800781 C 55.765625 79.320312 55.964844 78.769531 55.949219 78.148438 C 55.648438 78.148438 55.351562 78.148438 55.050781 78.148438 C 55.113281 78.652344 54.914062 78.953125 54.449219 79.050781 C 54.128906 76.5625 54.078125 74.058594 54.300781 71.550781 C 55.292969 67.867188 56.839844 64.46875 58.949219 61.351562 Z M 58.949219 61.351562 "/>
<path style=" stroke:none;fill-rule:evenodd;fill:rgb(68.235294%,50.980392%,56.078431%);fill-opacity:1;" d="M 85.351562 73.949219 C 84.734375 73.59375 84.035156 73.394531 83.25 73.351562 C 81.054688 73.574219 78.855469 73.675781 76.648438 73.648438 C 75.457031 73.25 74.257812 72.851562 73.050781 72.449219 C 72.433594 72.753906 71.785156 72.953125 71.101562 73.050781 C 69.59375 72.863281 68.140625 72.464844 66.75 71.851562 C 66.46875 71.882812 66.21875 71.980469 66 72.148438 C 65.707031 73.679688 65.15625 75.082031 64.351562 76.351562 C 64.148438 76.449219 63.949219 76.550781 63.75 76.648438 C 64.605469 74.324219 65.207031 71.921875 65.550781 69.449219 C 66.90625 71.226562 68.707031 72.027344 70.949219 71.851562 C 70.761719 70.988281 70.511719 70.1875 70.199219 69.449219 C 74.707031 72.867188 79.757812 73.964844 85.351562 72.75 C 85.351562 73.148438 85.351562 73.550781 85.351562 73.949219 Z M 85.351562 73.949219 "/>
<path style=" stroke:none;fill-rule:evenodd;fill:rgb(97.647059%,74.117647%,57.647059%);fill-opacity:1;" d="M 76.648438 73.648438 C 78.511719 73.859375 80.410156 74.0625 82.351562 74.25 C 83.054688 73.730469 83.855469 73.53125 84.75 73.648438 C 84.761719 74.890625 84.960938 76.089844 85.351562 77.25 C 84.855469 77.257812 84.457031 77.054688 84.148438 76.648438 C 83.097656 77.484375 82.195312 77.332031 81.449219 76.199219 C 81.785156 75.886719 82.1875 75.6875 82.648438 75.601562 C 82.351562 75.449219 82.050781 75.300781 81.75 75.148438 C 81.421875 75.519531 81.023438 75.769531 80.550781 75.898438 C 79.25 76 77.949219 76.101562 76.648438 76.199219 C 76.449219 76.398438 76.25 76.601562 76.050781 76.800781 C 74.503906 76.867188 73.003906 76.917969 71.550781 76.949219 C 71.550781 76.648438 71.550781 76.351562 71.550781 76.050781 C 70.558594 75.789062 69.558594 75.738281 68.550781 75.898438 C 68.089844 76.234375 67.890625 76.683594 67.949219 77.25 C 69.050781 77.25 70.148438 77.25 71.25 77.25 C 71.25 77.550781 71.25 77.851562 71.25 78.148438 C 70.558594 78.003906 69.859375 77.902344 69.148438 77.851562 C 68.867188 77.65625 68.515625 77.554688 68.101562 77.550781 C 67.601562 77.601562 67.203125 77.800781 66.898438 78.148438 C 66.027344 77.691406 65.078125 77.390625 64.050781 77.25 C 64.238281 76.976562 64.339844 76.675781 64.351562 76.351562 C 65.15625 75.082031 65.707031 73.679688 66 72.148438 C 66.21875 71.980469 66.46875 71.882812 66.75 71.851562 C 68.140625 72.464844 69.59375 72.863281 71.101562 73.050781 C 71.785156 72.953125 72.433594 72.753906 73.050781 72.449219 C 74.257812 72.851562 75.457031 73.25 76.648438 73.648438 Z M 76.648438 73.648438 "/>
<path style=" stroke:none;fill-rule:evenodd;fill:rgb(94.901961%,74.509804%,60%);fill-opacity:1;" d="M 85.351562 73.949219 C 85.527344 74.738281 85.628906 75.539062 85.648438 76.351562 C 86.074219 78.855469 86.023438 81.355469 85.5 83.851562 C 85.21875 84.257812 84.96875 84.65625 84.75 85.050781 C 84.292969 85.054688 83.945312 85.253906 83.699219 85.648438 C 83.601562 85.550781 83.5 85.449219 83.398438 85.351562 C 83.503906 84.824219 83.652344 84.273438 83.851562 83.699219 C 83.75 83.449219 83.648438 83.199219 83.550781 82.949219 C 83.34375 83.566406 82.992188 84.066406 82.5 84.449219 C 82.359375 84.273438 82.3125 84.070312 82.351562 83.851562 C 82.824219 83.183594 83.125 82.386719 83.25 81.449219 C 83.609375 81.140625 84.011719 80.890625 84.449219 80.699219 C 84.300781 80.550781 84.148438 80.398438 84 80.25 C 83.898438 79.449219 83.800781 78.648438 83.699219 77.851562 C 83.601562 77.949219 83.5 78.050781 83.398438 78.148438 C 81.84375 77.386719 80.292969 77.386719 78.75 78.148438 C 78.648438 79.394531 77.949219 79.894531 76.648438 79.648438 C 76.570312 80.09375 76.671875 80.492188 76.949219 80.851562 C 77.613281 80.308594 78.3125 80.207031 79.050781 80.550781 C 78.59375 81.492188 78.09375 82.394531 77.550781 83.25 C 77.402344 82.597656 77.402344 81.996094 77.550781 81.449219 C 75.769531 81.582031 74.121094 81.683594 72.601562 81.75 C 72.199219 81.425781 71.75 81.226562 71.25 81.148438 C 70.132812 80.621094 70.132812 80.121094 71.25 79.648438 C 71.636719 79.109375 71.636719 78.609375 71.25 78.148438 C 71.25 77.851562 71.25 77.550781 71.25 77.25 C 70.148438 77.25 69.050781 77.25 67.949219 77.25 C 67.890625 76.683594 68.089844 76.234375 68.550781 75.898438 C 69.558594 75.738281 70.558594 75.789062 71.550781 76.050781 C 71.550781 76.351562 71.550781 76.648438 71.550781 76.949219 C 73.003906 76.917969 74.503906 76.867188 76.050781 76.800781 C 76.25 76.601562 76.449219 76.398438 76.648438 76.199219 C 77.949219 76.101562 79.25 76 80.550781 75.898438 C 81.023438 75.769531 81.421875 75.519531 81.75 75.148438 C 82.050781 75.300781 82.351562 75.449219 82.648438 75.601562 C 82.1875 75.6875 81.785156 75.886719 81.449219 76.199219 C 82.195312 77.332031 83.097656 77.484375 84.148438 76.648438 C 84.457031 77.054688 84.855469 77.257812 85.351562 77.25 C 84.960938 76.089844 84.761719 74.890625 84.75 73.648438 C 83.855469 73.53125 83.054688 73.730469 82.351562 74.25 C 80.410156 74.0625 78.511719 73.859375 76.648438 73.648438 C 78.855469 73.675781 81.054688 73.574219 83.25 73.351562 C 84.035156 73.394531 84.734375 73.59375 85.351562 73.949219 Z M 85.351562 73.949219 "/>
<path style=" stroke:none;fill-rule:evenodd;fill:rgb(41.568627%,78.431373%,36.862745%);fill-opacity:1;" d="M 42.148438 74.851562 C 44.351562 74.800781 46.550781 74.851562 48.75 75 C 49 75.304688 49.101562 75.652344 49.050781 76.050781 C 46.75 76.050781 44.449219 76.050781 42.148438 76.050781 C 42.148438 75.648438 42.148438 75.25 42.148438 74.851562 Z M 42.148438 74.851562 "/>
<path style=" stroke:none;fill-rule:evenodd;fill:rgb(40.392157%,90.980392%,32.54902%);fill-opacity:1;" d="M 42.75 75.148438 C 44.660156 75.050781 46.5625 75.152344 48.449219 75.449219 C 47.5 75.550781 46.550781 75.648438 45.601562 75.75 C 44.527344 75.746094 43.578125 75.546875 42.75 75.148438 Z M 42.75 75.148438 "/>
<path style=" stroke:none;fill-rule:evenodd;fill:rgb(43.529412%,81.176471%,40.784314%);fill-opacity:1;" d="M 97.648438 74.851562 C 98.683594 74.625 99.183594 75.027344 99.148438 76.050781 C 98.648438 76.050781 98.148438 76.050781 97.648438 76.050781 C 97.648438 75.648438 97.648438 75.25 97.648438 74.851562 Z M 97.648438 74.851562 "/>
<path style=" stroke:none;fill-rule:evenodd;fill:rgb(43.529412%,79.607843%,37.647059%);fill-opacity:1;" d="M 103.050781 74.851562 C 104.851562 74.800781 106.652344 74.851562 108.449219 75 C 108.699219 75.304688 108.800781 75.652344 108.75 76.050781 C 106.851562 76.050781 104.949219 76.050781 103.050781 76.050781 C 103.050781 75.648438 103.050781 75.25 103.050781 74.851562 Z M 103.050781 74.851562 "/>
<path style=" stroke:none;fill-rule:evenodd;fill:rgb(40.784314%,90.196078%,32.156863%);fill-opacity:1;" d="M 103.351562 75.148438 C 104.960938 75.050781 106.5625 75.152344 108.148438 75.449219 C 107.351562 75.550781 106.550781 75.648438 105.75 75.75 C 104.824219 75.742188 104.023438 75.542969 103.351562 75.148438 Z M 103.351562 75.148438 "/>
<path style=" stroke:none;fill-rule:evenodd;fill:rgb(89.019608%,78.823529%,77.647059%);fill-opacity:1;" d="M 59.851562 76.050781 C 59.851562 76.148438 59.851562 76.25 59.851562 76.351562 C 59.453125 76.300781 59.101562 76.398438 58.800781 76.648438 C 58.648438 77.847656 58.601562 79.046875 58.648438 80.25 C 58.003906 79.257812 57.753906 78.160156 57.898438 76.949219 C 58.351562 76.222656 59.003906 75.925781 59.851562 76.050781 Z M 59.851562 76.050781 "/>
<path style=" stroke:none;fill-rule:evenodd;fill:rgb(11.764706%,6.27451%,36.078431%);fill-opacity:1;" d="M 67.648438 78.148438 C 68.457031 78.101562 69.257812 78.152344 70.050781 78.300781 C 70.472656 78.410156 70.773438 78.660156 70.949219 79.050781 C 69.5625 79.023438 68.160156 79.121094 66.75 79.351562 C 66.648438 79.300781 66.550781 79.25 66.449219 79.199219 C 66.714844 78.988281 66.914062 78.738281 67.050781 78.449219 C 67.25 78.351562 67.449219 78.25 67.648438 78.148438 Z M 67.648438 78.148438 "/>
<path style=" stroke:none;fill-rule:evenodd;fill:rgb(90.980392%,72.941176%,63.529412%);fill-opacity:1;" d="M 91.050781 80.851562 C 89.5625 81.457031 88.863281 80.957031 88.949219 79.351562 C 89.347656 78.355469 89.746094 77.355469 90.148438 76.351562 C 91.351562 76.105469 91.851562 76.652344 91.648438 78 C 91.601562 78.988281 91.402344 79.9375 91.050781 80.851562 Z M 91.050781 80.851562 "/>
<path style=" stroke:none;fill-rule:evenodd;fill:rgb(93.72549%,74.901961%,61.176471%);fill-opacity:1;" d="M 59.851562 76.351562 C 60.074219 77.8125 60.375 79.261719 60.75 80.699219 C 60.699219 81.25 60.648438 81.800781 60.601562 82.351562 C 60.199219 82.027344 59.75 81.824219 59.25 81.75 C 58.816406 81.355469 58.617188 80.855469 58.648438 80.25 C 58.601562 79.046875 58.648438 77.847656 58.800781 76.648438 C 59.101562 76.398438 59.453125 76.300781 59.851562 76.351562 Z M 59.851562 76.351562 "/>
<path style=" stroke:none;fill-rule:evenodd;fill:rgb(18.431373%,27.45098%,22.352941%);fill-opacity:1;" d="M 52.949219 79.351562 C 53.148438 79.351562 53.25 79.449219 53.25 79.648438 C 49.75 79.601562 46.25 79.648438 42.75 79.800781 C 42.5 80.101562 42.398438 80.453125 42.449219 80.851562 C 41.660156 80.457031 41.660156 80.007812 42.449219 79.5 C 45.949219 79.351562 49.449219 79.300781 52.949219 79.351562 Z M 52.949219 79.351562 "/>
<path style=" stroke:none;fill-rule:evenodd;fill:rgb(18.039216%,27.058824%,21.568627%);fill-opacity:1;" d="M 96.75 79.351562 C 100.703125 79.25 104.601562 79.351562 108.449219 79.648438 C 104.75 79.601562 101.046875 79.648438 97.351562 79.800781 C 97.097656 80.101562 97 80.453125 97.050781 80.851562 C 96.949219 80.851562 96.851562 80.851562 96.75 80.851562 C 96.75 80.351562 96.75 79.851562 96.75 79.351562 Z M 96.75 79.351562 "/>
<path style=" stroke:none;fill-rule:evenodd;fill:rgb(30.588235%,58.431373%,30.588235%);fill-opacity:1;" d="M 108.449219 79.648438 C 108.449219 79.75 108.449219 79.851562 108.449219 79.949219 C 104.84375 79.851562 101.246094 79.949219 97.648438 80.25 C 97.710938 80.425781 97.8125 80.574219 97.949219 80.699219 C 101.449219 80.851562 104.949219 80.898438 108.449219 80.851562 C 104.679688 81.246094 100.878906 81.246094 97.050781 80.851562 C 97 80.453125 97.097656 80.101562 97.351562 79.800781 C 101.046875 79.648438 104.75 79.601562 108.449219 79.648438 Z M 108.449219 79.648438 "/>
<path style=" stroke:none;fill-rule:evenodd;fill:rgb(40%,83.137255%,37.647059%);fill-opacity:1;" d="M 53.25 79.648438 C 53.25 79.75 53.25 79.851562 53.25 79.949219 C 53.25 80.25 53.25 80.550781 53.25 80.851562 C 49.648438 80.851562 46.050781 80.851562 42.449219 80.851562 C 42.398438 80.453125 42.5 80.101562 42.75 79.800781 C 46.25 79.648438 49.75 79.601562 53.25 79.648438 Z M 53.25 79.648438 "/>
<path style=" stroke:none;fill-rule:evenodd;fill:rgb(85.490196%,73.333333%,72.941176%);fill-opacity:1;" d="M 59.851562 76.351562 C 60.320312 77.195312 60.722656 78.09375 61.050781 79.050781 C 61.148438 80.363281 61.046875 81.664062 60.75 82.949219 C 60.0625 82.761719 59.5625 82.359375 59.25 81.75 C 59.75 81.824219 60.199219 82.027344 60.601562 82.351562 C 60.648438 81.800781 60.699219 81.25 60.75 80.699219 C 60.375 79.261719 60.074219 77.8125 59.851562 76.351562 Z M 59.851562 76.351562 "/>
<path style=" stroke:none;fill-rule:evenodd;fill:rgb(42.352941%,88.235294%,38.823529%);fill-opacity:1;" d="M 108.449219 79.949219 C 108.851562 80.25 108.851562 80.550781 108.449219 80.851562 C 104.949219 80.898438 101.449219 80.851562 97.949219 80.699219 C 97.8125 80.574219 97.710938 80.425781 97.648438 80.25 C 101.246094 79.949219 104.84375 79.851562 108.449219 79.949219 Z M 108.449219 79.949219 "/>
<path style=" stroke:none;fill-rule:evenodd;fill:rgb(27.843137%,48.627451%,31.372549%);fill-opacity:1;" d="M 53.25 79.949219 C 53.449219 79.949219 53.550781 80.050781 53.550781 80.25 C 53.550781 80.550781 53.550781 80.851562 53.550781 81.148438 C 50.050781 81.148438 46.550781 81.148438 43.050781 81.148438 C 42.753906 81.203125 42.550781 81.101562 42.449219 80.851562 C 46.050781 80.851562 49.648438 80.851562 53.25 80.851562 C 53.25 80.550781 53.25 80.25 53.25 79.949219 Z M 53.25 79.949219 "/>
<path style=" stroke:none;fill-rule:evenodd;fill:rgb(23.529412%,25.490196%,32.54902%);fill-opacity:1;" d="M 108.449219 79.949219 C 108.449219 79.851562 108.449219 79.75 108.449219 79.648438 C 109.84375 80.089844 109.945312 80.738281 108.75 81.601562 C 107.835938 81.652344 106.933594 81.804688 106.050781 82.050781 C 105.699219 83.535156 105.199219 84.9375 104.550781 86.25 C 104.1875 85.425781 103.734375 84.625 103.199219 83.851562 C 102.640625 84.289062 101.992188 84.589844 101.25 84.75 C 99.449219 85.148438 97.648438 85.148438 95.851562 84.75 C 94.679688 83.746094 94.78125 83.148438 96.148438 82.949219 C 96.101562 82.34375 96.152344 81.742188 96.300781 81.148438 C 96.632812 81.511719 96.78125 81.414062 96.75 80.851562 C 96.851562 80.851562 96.949219 80.851562 97.050781 80.851562 C 100.878906 81.246094 104.679688 81.246094 108.449219 80.851562 C 108.851562 80.550781 108.851562 80.25 108.449219 79.949219 Z M 108.449219 79.949219 "/>
<path style=" stroke:none;fill-rule:evenodd;fill:rgb(29.411765%,39.215686%,49.019608%);fill-opacity:1;" d="M 59.550781 65.851562 C 58.773438 68.9375 58.773438 72.035156 59.550781 75.148438 C 59.070312 75.070312 58.671875 75.167969 58.351562 75.449219 C 57.675781 75.574219 57.222656 75.976562 57 76.648438 C 56.820312 79.445312 57.773438 81.796875 59.851562 83.699219 C 60.429688 83.945312 61.03125 84.09375 61.648438 84.148438 C 61.894531 86.136719 62.691406 87.835938 64.050781 89.25 C 64.140625 89.445312 64.242188 89.644531 64.351562 89.851562 C 63.878906 90.1875 63.378906 90.238281 62.851562 90 C 61.199219 88.597656 59.597656 87.148438 58.050781 85.648438 C 57.453125 84.464844 56.703125 83.363281 55.800781 82.351562 C 55.179688 81.308594 54.726562 80.207031 54.449219 79.050781 C 54.914062 78.953125 55.113281 78.652344 55.050781 78.148438 C 55.351562 78.148438 55.648438 78.148438 55.949219 78.148438 C 55.964844 78.769531 55.765625 79.320312 55.351562 79.800781 C 55.601562 80.152344 55.851562 80.5 56.101562 80.851562 C 56.402344 78.550781 56.753906 76.25 57.148438 73.949219 C 57.324219 74.011719 57.476562 74.113281 57.601562 74.25 C 57.992188 73.867188 58.441406 73.570312 58.949219 73.351562 C 57.972656 70.675781 58.171875 68.175781 59.550781 65.851562 Z M 59.550781 65.851562 "/>
<path style=" stroke:none;fill-rule:evenodd;fill:rgb(90.588235%,74.901961%,61.960784%);fill-opacity:1;" d="M 82.351562 83.851562 C 83.144531 81.707031 82.445312 80.558594 80.25 80.398438 C 79.988281 80.714844 79.6875 80.964844 79.351562 81.148438 C 78.910156 81.402344 78.660156 81.804688 78.601562 82.351562 C 78.605469 83.628906 78.355469 84.828125 77.851562 85.949219 C 78.207031 86.230469 78.605469 86.328125 79.050781 86.25 C 79.050781 85.851562 79.050781 85.449219 79.050781 85.050781 C 80.15625 85 81.253906 85.050781 82.351562 85.199219 C 82.613281 85.675781 82.914062 86.125 83.25 86.550781 C 82.554688 86.769531 82.003906 87.171875 81.601562 87.75 C 80.667969 87.101562 79.617188 86.804688 78.449219 86.851562 C 78.449219 87.25 78.449219 87.648438 78.449219 88.050781 C 79.148438 88.050781 79.75 88.300781 80.25 88.800781 C 79.191406 89.773438 78.242188 89.625 77.398438 88.351562 C 77.300781 88.449219 77.199219 88.550781 77.101562 88.648438 C 76.867188 88.246094 76.519531 87.996094 76.050781 87.898438 C 73.914062 88.179688 72.113281 87.582031 70.648438 86.101562 C 70.90625 85.894531 71.105469 85.644531 71.25 85.351562 C 71.441406 83.96875 71.441406 82.570312 71.25 81.148438 C 71.75 81.226562 72.199219 81.425781 72.601562 81.75 C 74.121094 81.683594 75.769531 81.582031 77.550781 81.449219 C 77.402344 81.996094 77.402344 82.597656 77.550781 83.25 C 78.09375 82.394531 78.59375 81.492188 79.050781 80.550781 C 78.3125 80.207031 77.613281 80.308594 76.949219 80.851562 C 76.671875 80.492188 76.570312 80.09375 76.648438 79.648438 C 77.949219 79.894531 78.648438 79.394531 78.75 78.148438 C 80.292969 77.386719 81.84375 77.386719 83.398438 78.148438 C 83.5 78.050781 83.601562 77.949219 83.699219 77.851562 C 83.800781 78.648438 83.898438 79.449219 84 80.25 C 84.148438 80.398438 84.300781 80.550781 84.449219 80.699219 C 84.011719 80.890625 83.609375 81.140625 83.25 81.449219 C 83.125 82.386719 82.824219 83.183594 82.351562 83.851562 Z M 82.351562 83.851562 "/>
<path style=" stroke:none;fill-rule:evenodd;fill:rgb(11.372549%,5.490196%,34.901961%);fill-opacity:1;" d="M 79.949219 78.148438 C 81.34375 77.921875 82.542969 78.269531 83.550781 79.199219 C 82.203125 78.984375 80.851562 79.035156 79.5 79.351562 C 79.351562 79.25 79.199219 79.148438 79.050781 79.050781 C 79.300781 78.679688 79.601562 78.378906 79.949219 78.148438 Z M 79.949219 78.148438 "/>
<path style=" stroke:none;fill-rule:evenodd;fill:rgb(12.941176%,10.980392%,44.313725%);fill-opacity:1;" d="M 82.351562 83.851562 C 81.046875 85.164062 79.996094 84.960938 79.199219 83.25 C 79.03125 82.535156 79.082031 81.835938 79.351562 81.148438 C 79.6875 80.964844 79.988281 80.714844 80.25 80.398438 C 82.445312 80.558594 83.144531 81.707031 82.351562 83.851562 Z M 82.351562 83.851562 "/>
<path style=" stroke:none;fill-rule:evenodd;fill:rgb(77.254902%,82.352941%,94.509804%);fill-opacity:1;" d="M 80.25 81.449219 C 80.753906 81.65625 80.953125 82.054688 80.851562 82.648438 C 80.550781 82.648438 80.25 82.648438 79.949219 82.648438 C 79.929688 82.210938 80.03125 81.8125 80.25 81.449219 Z M 80.25 81.449219 "/>
<path style=" stroke:none;fill-rule:evenodd;fill:rgb(59.607843%,52.941176%,64.705882%);fill-opacity:1;" d="M 88.949219 79.351562 C 88.863281 80.957031 89.5625 81.457031 91.050781 80.851562 C 90.550781 81.753906 89.847656 82.453125 88.949219 82.949219 C 88.558594 81.707031 88.558594 80.503906 88.949219 79.351562 Z M 88.949219 79.351562 "/>
<path style=" stroke:none;fill-rule:evenodd;fill:rgb(65.882353%,56.470588%,57.254902%);fill-opacity:1;" d="M 85.648438 76.351562 C 86.019531 76.863281 86.222656 77.464844 86.25 78.148438 C 86.785156 79.183594 87.085938 80.335938 87.148438 81.601562 C 86.910156 83.378906 86.460938 85.128906 85.800781 86.851562 C 85.445312 86.480469 85.09375 86.480469 84.75 86.851562 C 84.992188 87.320312 85.09375 87.820312 85.050781 88.351562 C 85.050781 88.550781 84.949219 88.648438 84.75 88.648438 C 84.789062 88.386719 84.6875 88.1875 84.449219 88.050781 C 84.226562 88.3125 84.074219 88.613281 84 88.949219 C 83.78125 87.878906 83.332031 87.78125 82.648438 88.648438 C 83.5 87.546875 84.203125 86.347656 84.75 85.050781 C 84.96875 84.65625 85.21875 84.257812 85.5 83.851562 C 86.023438 81.355469 86.074219 78.855469 85.648438 76.351562 Z M 85.648438 76.351562 "/>
<path style=" stroke:none;fill-rule:evenodd;fill:rgb(10.588235%,10.588235%,44.705882%);fill-opacity:1;" d="M 67.648438 83.851562 C 67.601562 82.828125 67.703125 81.828125 67.949219 80.851562 C 69.5625 79.945312 70.5625 80.445312 70.949219 82.351562 C 70.621094 84.765625 69.519531 85.265625 67.648438 83.851562 Z M 67.648438 83.851562 "/>
<path style=" stroke:none;fill-rule:evenodd;fill:rgb(75.686275%,82.745098%,93.72549%);fill-opacity:1;" d="M 69.449219 81.449219 C 69.777344 81.484375 69.976562 81.6875 70.050781 82.050781 C 69.808594 82.785156 69.507812 82.785156 69.148438 82.050781 C 69.257812 81.84375 69.359375 81.644531 69.449219 81.449219 Z M 69.449219 81.449219 "/>
<path style=" stroke:none;fill-rule:evenodd;fill:rgb(23.921569%,28.235294%,37.254902%);fill-opacity:1;" d="M 96.75 79.351562 C 96.75 79.851562 96.75 80.351562 96.75 80.851562 C 96.78125 81.414062 96.632812 81.511719 96.300781 81.148438 C 96.152344 81.742188 96.101562 82.34375 96.148438 82.949219 C 94.78125 83.148438 94.679688 83.746094 95.851562 84.75 C 97.648438 85.148438 99.449219 85.148438 101.25 84.75 C 101.992188 84.589844 102.640625 84.289062 103.199219 83.851562 C 103.734375 84.625 104.1875 85.425781 104.550781 86.25 C 104.097656 89.230469 103.398438 92.128906 102.449219 94.949219 C 101.835938 93.414062 101.085938 91.914062 100.199219 90.449219 C 99.058594 89.609375 98.011719 88.660156 97.050781 87.601562 C 95.863281 86.644531 94.5625 85.996094 93.148438 85.648438 C 94.578125 83.640625 95.78125 81.539062 96.75 79.351562 Z M 96.75 79.351562 "/>
<path style=" stroke:none;fill-rule:evenodd;fill:rgb(8.627451%,11.372549%,43.921569%);fill-opacity:1;" d="M 58.351562 75.449219 C 58.851562 75.648438 59.351562 75.851562 59.851562 76.050781 C 59.003906 75.925781 58.351562 76.222656 57.898438 76.949219 C 57.753906 78.160156 58.003906 79.257812 58.648438 80.25 C 58.617188 80.855469 58.816406 81.355469 59.25 81.75 C 59.5625 82.359375 60.0625 82.761719 60.75 82.949219 C 61.046875 81.664062 61.148438 80.363281 61.050781 79.050781 C 61.296875 79.890625 61.445312 80.792969 61.5 81.75 C 61.554688 80.890625 61.703125 80.089844 61.949219 79.351562 C 61.703125 82.808594 62.605469 85.90625 64.648438 88.648438 C 64.648438 89.050781 64.449219 89.25 64.050781 89.25 C 62.691406 87.835938 61.894531 86.136719 61.648438 84.148438 C 61.03125 84.09375 60.429688 83.945312 59.851562 83.699219 C 57.773438 81.796875 56.820312 79.445312 57 76.648438 C 57.222656 75.976562 57.675781 75.574219 58.351562 75.449219 Z M 58.351562 75.449219 "/>
<path style=" stroke:none;fill-rule:evenodd;fill:rgb(19.215686%,28.235294%,50.196078%);fill-opacity:1;" d="M 94.050781 67.648438 C 95.675781 71.351562 95.875 75.152344 94.648438 79.050781 C 94.722656 79.414062 94.925781 79.613281 95.25 79.648438 C 92.632812 85.117188 88.632812 89.269531 83.25 92.101562 C 82.949219 92.300781 82.648438 92.300781 82.351562 92.101562 C 85.246094 90.257812 87.246094 87.707031 88.351562 84.449219 C 89.195312 84.0625 89.996094 83.5625 90.75 82.949219 C 91.621094 81.722656 92.324219 80.421875 92.851562 79.050781 C 93.210938 77.492188 93.210938 75.894531 92.851562 74.25 C 93.34375 74.242188 93.742188 74.445312 94.050781 74.851562 C 94.257812 74.691406 94.40625 74.492188 94.5 74.25 C 94.601562 74.648438 94.699219 75.050781 94.800781 75.449219 C 94.855469 74.121094 94.902344 72.824219 94.949219 71.550781 C 94.957031 70.988281 94.804688 70.886719 94.5 71.25 C 94.308594 70.050781 94.15625 68.851562 94.050781 67.648438 Z M 94.050781 67.648438 "/>
<path style=" stroke:none;fill-rule:evenodd;fill:rgb(23.921569%,27.843137%,36.470588%);fill-opacity:1;" d="M 53.550781 80.25 C 54.378906 82.105469 55.378906 83.90625 56.550781 85.648438 C 56.292969 85.925781 55.992188 86.128906 55.648438 86.25 C 54.070312 87.074219 52.523438 87.972656 51 88.949219 C 49.855469 90.742188 48.808594 92.542969 47.851562 94.351562 C 46.730469 90.082031 45.726562 85.785156 44.851562 81.449219 C 44.179688 81.539062 43.578125 81.4375 43.050781 81.148438 C 46.550781 81.148438 50.050781 81.148438 53.550781 81.148438 C 53.550781 80.851562 53.550781 80.550781 53.550781 80.25 Z M 53.550781 80.25 "/>
<path style=" stroke:none;fill-rule:evenodd;fill:rgb(83.137255%,80.392157%,81.960784%);fill-opacity:1;" d="M 62.851562 78.148438 C 61.984375 83.617188 63.882812 87.816406 68.550781 90.75 C 69.195312 91.324219 69.898438 91.824219 70.648438 92.25 C 70.550781 92.25 70.449219 92.25 70.351562 92.25 C 68.117188 91.582031 66.21875 90.382812 64.648438 88.648438 C 62.605469 85.90625 61.703125 82.808594 61.949219 79.351562 C 62.253906 78.9375 62.554688 78.539062 62.851562 78.148438 Z M 62.851562 78.148438 "/>
<path style=" stroke:none;fill-rule:evenodd;fill:rgb(90.196078%,75.686275%,62.352941%);fill-opacity:1;" d="M 64.351562 76.351562 C 64.339844 76.675781 64.238281 76.976562 64.050781 77.25 C 65.078125 77.390625 66.027344 77.691406 66.898438 78.148438 C 67.203125 77.800781 67.601562 77.601562 68.101562 77.550781 C 68.515625 77.554688 68.867188 77.65625 69.148438 77.851562 C 68.574219 77.765625 68.074219 77.863281 67.648438 78.148438 C 67.449219 78.25 67.25 78.351562 67.050781 78.449219 C 66.75 78.449219 66.449219 78.449219 66.148438 78.449219 C 66.019531 79.773438 66.617188 80.273438 67.949219 79.949219 C 67.949219 80.25 67.949219 80.550781 67.949219 80.851562 C 67.703125 81.828125 67.601562 82.828125 67.648438 83.851562 C 67.800781 84.558594 68.003906 85.257812 68.25 85.949219 C 68.148438 86.148438 68.050781 86.351562 67.949219 86.550781 C 68.351562 86.949219 68.75 86.949219 69.148438 86.550781 C 68.742188 86.007812 68.84375 85.558594 69.449219 85.199219 C 70.644531 84.984375 70.84375 85.285156 70.050781 86.101562 C 70.878906 88.0625 70.378906 89.613281 68.550781 90.75 C 63.882812 87.816406 61.984375 83.617188 62.851562 78.148438 C 63.03125 77.570312 63.332031 77.070312 63.75 76.648438 C 63.949219 76.550781 64.148438 76.449219 64.351562 76.351562 Z M 64.351562 76.351562 "/>
<path style=" stroke:none;fill-rule:evenodd;fill:rgb(58.823529%,53.72549%,64.313725%);fill-opacity:1;" d="M 86.25 78.148438 C 87.640625 79.40625 88.140625 81.007812 87.75 82.949219 C 87.378906 83.90625 87.03125 84.90625 86.699219 85.949219 C 86.308594 86.886719 85.757812 87.6875 85.050781 88.351562 C 85.09375 87.820312 84.992188 87.320312 84.75 86.851562 C 85.09375 86.480469 85.445312 86.480469 85.800781 86.851562 C 86.460938 85.128906 86.910156 83.378906 87.148438 81.601562 C 87.085938 80.335938 86.785156 79.183594 86.25 78.148438 Z M 86.25 78.148438 "/>
<path style=" stroke:none;fill-rule:evenodd;fill:rgb(85.490196%,74.901961%,65.490196%);fill-opacity:1;" d="M 67.648438 78.148438 C 68.074219 77.863281 68.574219 77.765625 69.148438 77.851562 C 69.859375 77.902344 70.558594 78.003906 71.25 78.148438 C 71.636719 78.609375 71.636719 79.109375 71.25 79.648438 C 70.132812 80.121094 70.132812 80.621094 71.25 81.148438 C 71.441406 82.570312 71.441406 83.96875 71.25 85.351562 C 71.105469 85.644531 70.90625 85.894531 70.648438 86.101562 C 72.113281 87.582031 73.914062 88.179688 76.050781 87.898438 C 76.519531 87.996094 76.867188 88.246094 77.101562 88.648438 C 77.199219 88.550781 77.300781 88.449219 77.398438 88.351562 C 78.242188 89.625 79.191406 89.773438 80.25 88.800781 C 79.75 88.300781 79.148438 88.050781 78.449219 88.050781 C 78.449219 87.648438 78.449219 87.25 78.449219 86.851562 C 79.617188 86.804688 80.667969 87.101562 81.601562 87.75 C 82.003906 87.171875 82.554688 86.769531 83.25 86.550781 C 82.914062 86.125 82.613281 85.675781 82.351562 85.199219 C 81.253906 85.050781 80.15625 85 79.050781 85.050781 C 79.050781 85.449219 79.050781 85.851562 79.050781 86.25 C 78.605469 86.328125 78.207031 86.230469 77.851562 85.949219 C 78.355469 84.828125 78.605469 83.628906 78.601562 82.351562 C 78.660156 81.804688 78.910156 81.402344 79.351562 81.148438 C 79.082031 81.835938 79.03125 82.535156 79.199219 83.25 C 79.996094 84.960938 81.046875 85.164062 82.351562 83.851562 C 82.3125 84.070312 82.359375 84.273438 82.5 84.449219 C 82.992188 84.066406 83.34375 83.566406 83.550781 82.949219 C 83.648438 83.199219 83.75 83.449219 83.851562 83.699219 C 83.652344 84.273438 83.503906 84.824219 83.398438 85.351562 C 83.5 85.449219 83.601562 85.550781 83.699219 85.648438 C 83.945312 85.253906 84.292969 85.054688 84.75 85.050781 C 84.203125 86.347656 83.5 87.546875 82.648438 88.648438 C 79.148438 91.394531 75.148438 92.59375 70.648438 92.25 C 69.898438 91.824219 69.195312 91.324219 68.550781 90.75 C 70.378906 89.613281 70.878906 88.0625 70.050781 86.101562 C 70.84375 85.285156 70.644531 84.984375 69.449219 85.199219 C 68.84375 85.558594 68.742188 86.007812 69.148438 86.550781 C 68.75 86.949219 68.351562 86.949219 67.949219 86.550781 C 68.050781 86.351562 68.148438 86.148438 68.25 85.949219 C 68.003906 85.257812 67.800781 84.558594 67.648438 83.851562 C 69.519531 85.265625 70.621094 84.765625 70.949219 82.351562 C 70.5625 80.445312 69.5625 79.945312 67.949219 80.851562 C 67.949219 80.550781 67.949219 80.25 67.949219 79.949219 C 66.617188 80.273438 66.019531 79.773438 66.148438 78.449219 C 66.449219 78.449219 66.75 78.449219 67.050781 78.449219 C 66.914062 78.738281 66.714844 78.988281 66.449219 79.199219 C 66.550781 79.25 66.648438 79.300781 66.75 79.351562 C 68.160156 79.121094 69.5625 79.023438 70.949219 79.050781 C 70.773438 78.660156 70.472656 78.410156 70.050781 78.300781 C 69.257812 78.152344 68.457031 78.101562 67.648438 78.148438 Z M 67.648438 78.148438 "/>
<path style=" stroke:none;fill-rule:evenodd;fill:rgb(14.901961%,13.72549%,30.588235%);fill-opacity:1;" d="M 71.851562 88.351562 C 71.867188 88.1875 71.96875 88.085938 72.148438 88.050781 C 73.09375 88.507812 74.09375 88.757812 75.148438 88.800781 C 73.980469 89.066406 72.878906 88.917969 71.851562 88.351562 Z M 71.851562 88.351562 "/>
<path style=" stroke:none;fill-rule:evenodd;fill:rgb(8.235294%,17.647059%,50.588235%);fill-opacity:1;" d="M 58.050781 85.648438 C 59.597656 87.148438 61.199219 88.597656 62.851562 90 C 63.378906 90.238281 63.878906 90.1875 64.351562 89.851562 C 64.242188 89.644531 64.140625 89.445312 64.050781 89.25 C 64.449219 89.25 64.648438 89.050781 64.648438 88.648438 C 66.21875 90.382812 68.117188 91.582031 70.351562 92.25 C 70.648438 92.449219 70.949219 92.648438 71.25 92.851562 C 69.996094 93.136719 68.792969 93.535156 67.648438 94.050781 C 67.230469 93.484375 66.632812 93.1875 65.851562 93.148438 C 63.039062 91.542969 60.4375 89.644531 58.050781 87.449219 C 58.058594 87.152344 57.910156 86.949219 57.601562 86.851562 C 52.933594 88.164062 50.082031 91.164062 49.050781 95.851562 C 48.851562 96.351562 48.648438 96.851562 48.449219 97.351562 C 48.601562 96.484375 48.402344 95.785156 47.851562 95.25 C 47.851562 94.949219 47.851562 94.648438 47.851562 94.351562 C 48.808594 92.542969 49.855469 90.742188 51 88.949219 C 52.523438 87.972656 54.070312 87.074219 55.648438 86.25 C 55.6875 86.574219 55.886719 86.777344 56.25 86.851562 C 56.835938 86.652344 57.4375 86.554688 58.050781 86.550781 C 58.050781 86.25 58.050781 85.949219 58.050781 85.648438 Z M 58.050781 85.648438 "/>
<path style=" stroke:none;fill-rule:evenodd;fill:rgb(29.019608%,44.313725%,52.54902%);fill-opacity:1;" d="M 97.050781 89.25 C 97.414062 90.066406 97.964844 90.769531 98.699219 91.351562 C 99.046875 92.429688 99.296875 93.53125 99.449219 94.648438 C 99.050781 94.648438 98.648438 94.648438 98.25 94.648438 C 98.226562 94.273438 98.027344 94.023438 97.648438 93.898438 C 92.699219 93.847656 87.796875 93.699219 82.949219 93.449219 C 86.316406 91.933594 89.21875 89.78125 91.648438 87 C 92.148438 86.800781 92.648438 86.800781 93.148438 87 C 94.003906 87.476562 94.90625 87.878906 95.851562 88.199219 C 96.328125 88.484375 96.726562 88.835938 97.050781 89.25 Z M 97.050781 89.25 "/>
<path style=" stroke:none;fill-rule:evenodd;fill:rgb(60.784314%,57.647059%,63.529412%);fill-opacity:1;" d="M 84.75 88.648438 C 83.421875 90.519531 81.621094 91.769531 79.351562 92.398438 C 76.878906 93.15625 74.378906 93.304688 71.851562 92.851562 C 71.648438 92.851562 71.449219 92.851562 71.25 92.851562 C 70.949219 92.648438 70.648438 92.449219 70.351562 92.25 C 70.449219 92.25 70.550781 92.25 70.648438 92.25 C 75.148438 92.59375 79.148438 91.394531 82.648438 88.648438 C 83.332031 87.78125 83.78125 87.878906 84 88.949219 C 84.074219 88.613281 84.226562 88.3125 84.449219 88.050781 C 84.6875 88.1875 84.789062 88.386719 84.75 88.648438 Z M 84.75 88.648438 "/>
<path style=" stroke:none;fill-rule:evenodd;fill:rgb(57.647059%,71.372549%,79.607843%);fill-opacity:1;" d="M 58.050781 87.449219 C 52.667969 89.597656 49.769531 93.597656 49.351562 99.449219 C 49.351562 99.648438 49.25 99.75 49.050781 99.75 C 48.910156 98.507812 48.910156 97.207031 49.050781 95.851562 C 50.082031 91.164062 52.933594 88.164062 57.601562 86.851562 C 57.910156 86.949219 58.058594 87.152344 58.050781 87.449219 Z M 58.050781 87.449219 "/>
<path style=" stroke:none;fill-rule:evenodd;fill:rgb(29.411765%,45.098039%,53.72549%);fill-opacity:1;" d="M 58.050781 87.449219 C 60.4375 89.644531 63.039062 91.542969 65.851562 93.148438 C 61.910156 93.648438 57.910156 93.949219 53.851562 94.050781 C 52.347656 94.535156 51.296875 95.535156 50.699219 97.050781 C 50.710938 98.746094 50.757812 100.445312 50.851562 102.148438 C 50.851562 102.75 50.851562 103.351562 50.851562 103.949219 C 50.304688 102.464844 49.804688 100.964844 49.351562 99.449219 C 49.769531 93.597656 52.667969 89.597656 58.050781 87.449219 Z M 58.050781 87.449219 "/>
<path style=" stroke:none;fill-rule:evenodd;fill:rgb(7.058824%,15.686275%,50.196078%);fill-opacity:1;" d="M 96.449219 76.351562 C 96.324219 77.035156 96.523438 77.535156 97.050781 77.851562 C 96.886719 78.335938 96.789062 78.835938 96.75 79.351562 C 95.78125 81.539062 94.578125 83.640625 93.148438 85.648438 C 94.5625 85.996094 95.863281 86.644531 97.050781 87.601562 C 98.011719 88.660156 99.058594 89.609375 100.199219 90.449219 C 101.085938 91.914062 101.835938 93.414062 102.449219 94.949219 C 102.449219 95.148438 102.449219 95.351562 102.449219 95.550781 C 102.234375 95.675781 102.082031 95.875 102 96.148438 C 101.851562 97.042969 101.800781 97.945312 101.851562 98.851562 C 101.75 98.851562 101.648438 98.851562 101.550781 98.851562 C 101.542969 94.921875 100.042969 91.722656 97.050781 89.25 C 96.726562 88.835938 96.328125 88.484375 95.851562 88.199219 C 94.90625 87.878906 94.003906 87.476562 93.148438 87 C 92.648438 86.800781 92.148438 86.800781 91.648438 87 C 89.21875 89.78125 86.316406 91.933594 82.949219 93.449219 C 82.550781 93.449219 82.351562 93.648438 82.351562 94.050781 C 79.363281 93.816406 76.363281 93.664062 73.351562 93.601562 C 72.753906 93.488281 72.253906 93.238281 71.851562 92.851562 C 74.378906 93.304688 76.878906 93.15625 79.351562 92.398438 C 81.621094 91.769531 83.421875 90.519531 84.75 88.648438 C 84.949219 88.648438 85.050781 88.550781 85.050781 88.351562 C 85.757812 87.6875 86.308594 86.886719 86.699219 85.949219 C 87.03125 84.90625 87.378906 83.90625 87.75 82.949219 C 87.625 83.632812 87.824219 84.132812 88.351562 84.449219 C 87.246094 87.707031 85.246094 90.257812 82.351562 92.101562 C 82.648438 92.300781 82.949219 92.300781 83.25 92.101562 C 88.632812 89.269531 92.632812 85.117188 95.25 79.648438 C 95.539062 78.480469 95.9375 77.382812 96.449219 76.351562 Z M 96.449219 76.351562 "/>
<path style=" stroke:none;fill-rule:evenodd;fill:rgb(18.823529%,28.627451%,51.764706%);fill-opacity:1;" d="M 65.851562 93.148438 C 66.632812 93.1875 67.230469 93.484375 67.648438 94.050781 C 67.25 94.050781 66.851562 94.050781 66.449219 94.050781 C 62.25 94.050781 58.050781 94.050781 53.851562 94.050781 C 57.910156 93.949219 61.910156 93.648438 65.851562 93.148438 Z M 65.851562 93.148438 "/>
<path style=" stroke:none;fill-rule:evenodd;fill:rgb(20.392157%,29.411765%,51.764706%);fill-opacity:1;" d="M 82.949219 93.449219 C 87.796875 93.699219 92.699219 93.847656 97.648438 93.898438 C 98.027344 94.023438 98.226562 94.273438 98.25 94.648438 C 97.824219 94.585938 97.421875 94.4375 97.050781 94.199219 C 92.152344 94.050781 87.25 94 82.351562 94.050781 C 82.351562 93.648438 82.550781 93.449219 82.949219 93.449219 Z M 82.949219 93.449219 "/>
<path style=" stroke:none;fill-rule:evenodd;fill:rgb(2.745098%,2.352941%,41.960784%);fill-opacity:1;" d="M 71.25 92.851562 C 71.449219 92.851562 71.648438 92.851562 71.851562 92.851562 C 72.253906 93.238281 72.753906 93.488281 73.351562 93.601562 C 76.363281 93.664062 79.363281 93.816406 82.351562 94.050781 C 87.25 94 92.152344 94.050781 97.050781 94.199219 C 97.421875 94.4375 97.824219 94.585938 98.25 94.648438 C 98.636719 95.1875 99.089844 95.6875 99.601562 96.148438 C 99.902344 96.761719 100.050781 97.410156 100.050781 98.101562 C 99.675781 102.046875 99.375 105.996094 99.148438 109.949219 C 99.148438 110.050781 99.148438 110.148438 99.148438 110.25 C 98.90625 112.960938 98.605469 115.710938 98.25 118.5 C 98.351562 119.050781 98.449219 119.601562 98.550781 120.148438 C 102.738281 117.375 104.488281 113.476562 103.800781 108.449219 C 103.242188 105.21875 102.59375 102.019531 101.851562 98.851562 C 101.800781 97.945312 101.851562 97.042969 102 96.148438 C 102.082031 95.875 102.234375 95.675781 102.449219 95.550781 C 102.578125 96.699219 102.78125 97.800781 103.050781 98.851562 C 104.421875 103.550781 105.070312 108.351562 105 113.25 C 104.226562 116.648438 102.375 119.296875 99.449219 121.199219 C 100.191406 122.828125 99.792969 124.179688 98.25 125.25 C 98.316406 124.746094 98.113281 124.445312 97.648438 124.351562 C 98.214844 123.882812 98.515625 123.285156 98.550781 122.550781 C 98.136719 122.503906 97.738281 122.554688 97.351562 122.699219 C 97.035156 123.117188 96.636719 123.414062 96.148438 123.601562 C 90.652344 123.75 85.152344 123.800781 79.648438 123.75 C 76.300781 123.5 72.902344 123.351562 69.449219 123.300781 C 78.101562 123.109375 86.699219 122.859375 95.25 122.550781 C 96.027344 122.324219 96.578125 121.824219 96.898438 121.050781 C 97.539062 113.042969 98.136719 105.042969 98.699219 97.050781 C 98.414062 96.570312 98.066406 96.171875 97.648438 95.851562 C 97.648438 95.648438 97.550781 95.550781 97.351562 95.550781 C 97.082031 95.367188 96.78125 95.265625 96.449219 95.25 C 96.351562 95.25 96.25 95.25 96.148438 95.25 C 82.097656 95.050781 68 94.851562 53.851562 94.648438 C 58.097656 94.449219 62.296875 94.25 66.449219 94.050781 C 66.851562 94.050781 67.25 94.050781 67.648438 94.050781 C 68.792969 93.535156 69.996094 93.136719 71.25 92.851562 Z M 71.25 92.851562 "/>
<path style=" stroke:none;fill-rule:evenodd;fill:rgb(25.098039%,39.215686%,56.862745%);fill-opacity:1;" d="M 97.050781 89.25 C 100.042969 91.722656 101.542969 94.921875 101.550781 98.851562 C 101.292969 99.425781 101.089844 100.027344 100.949219 100.648438 C 100.101562 103.746094 99.5 106.847656 99.148438 109.949219 C 99.375 105.996094 99.675781 102.046875 100.050781 98.101562 C 100.050781 97.410156 99.902344 96.761719 99.601562 96.148438 C 99.089844 95.6875 98.636719 95.1875 98.25 94.648438 C 98.648438 94.648438 99.050781 94.648438 99.449219 94.648438 C 99.296875 93.53125 99.046875 92.429688 98.699219 91.351562 C 97.964844 90.769531 97.414062 90.066406 97.050781 89.25 Z M 97.050781 89.25 "/>
<path style=" stroke:none;fill-rule:evenodd;fill:rgb(77.254902%,82.352941%,89.019608%);fill-opacity:1;" d="M 96.449219 95.25 C 96.78125 95.265625 97.082031 95.367188 97.351562 95.550781 C 95.585938 106.566406 89.585938 114.3125 79.351562 118.800781 C 75.613281 120.296875 71.8125 121.445312 67.949219 122.25 C 67.5625 122.179688 67.261719 122.277344 67.050781 122.550781 C 62.949219 122.601562 58.847656 122.550781 54.75 122.398438 C 54.582031 122.285156 54.484375 122.136719 54.449219 121.949219 C 54.144531 114.589844 53.546875 107.191406 52.648438 99.75 C 52.789062 98.359375 53.390625 97.210938 54.449219 96.300781 C 68.535156 96.054688 82.535156 95.707031 96.449219 95.25 Z M 96.449219 95.25 "/>
<path style=" stroke:none;fill-rule:evenodd;fill:rgb(53.72549%,56.470588%,78.431373%);fill-opacity:1;" d="M 97.648438 95.851562 C 98.066406 96.171875 98.414062 96.570312 98.699219 97.050781 C 98.136719 105.042969 97.539062 113.042969 96.898438 121.050781 C 96.578125 121.824219 96.027344 122.324219 95.25 122.550781 C 85.851562 122.550781 76.449219 122.550781 67.050781 122.550781 C 67.261719 122.277344 67.5625 122.179688 67.949219 122.25 C 77.25 122.136719 86.550781 122.039062 95.851562 121.949219 C 95.734375 121.300781 95.933594 120.800781 96.449219 120.449219 C 96.671875 118 96.871094 115.550781 97.050781 113.101562 C 96.613281 110.96875 96.3125 108.816406 96.148438 106.648438 C 96.4375 106.257812 96.386719 105.855469 96 105.449219 C 95.898438 105.550781 95.800781 105.648438 95.699219 105.75 C 95 104.746094 95.199219 103.945312 96.300781 103.351562 C 96.449219 104.042969 96.5 104.742188 96.449219 105.449219 C 96.851562 105.449219 97.25 105.449219 97.648438 105.449219 C 97.597656 104.144531 97.296875 102.894531 96.75 101.699219 C 96.832031 101.21875 97.082031 100.867188 97.5 100.648438 C 97.601562 101.25 97.699219 101.851562 97.800781 102.449219 C 98.035156 101.371094 97.988281 100.324219 97.648438 99.300781 C 97.972656 99.097656 98.171875 98.796875 98.25 98.398438 C 97.804688 97.625 97.605469 96.773438 97.648438 95.851562 Z M 97.648438 95.851562 "/>
<path style=" stroke:none;fill-rule:evenodd;fill:rgb(29.411765%,34.901961%,42.352941%);fill-opacity:1;" d="M 100.949219 100.648438 C 101.46875 103.421875 101.617188 106.222656 101.398438 109.050781 C 100.90625 110.644531 100.207031 112.144531 99.300781 113.550781 C 99.148438 112.453125 99.101562 111.355469 99.148438 110.25 C 99.148438 110.148438 99.148438 110.050781 99.148438 109.949219 C 99.5 106.847656 100.101562 103.746094 100.949219 100.648438 Z M 100.949219 100.648438 "/>
<path style=" stroke:none;fill-rule:evenodd;fill:rgb(54.509804%,57.647059%,75.686275%);fill-opacity:1;" d="M 97.351562 95.550781 C 97.550781 95.550781 97.648438 95.648438 97.648438 95.851562 C 97.605469 96.773438 97.804688 97.625 98.25 98.398438 C 98.171875 98.796875 97.972656 99.097656 97.648438 99.300781 C 97.988281 100.324219 98.035156 101.371094 97.800781 102.449219 C 97.699219 101.851562 97.601562 101.25 97.5 100.648438 C 97.082031 100.867188 96.832031 101.21875 96.75 101.699219 C 97.296875 102.894531 97.597656 104.144531 97.648438 105.449219 C 97.25 105.449219 96.851562 105.449219 96.449219 105.449219 C 96.5 104.742188 96.449219 104.042969 96.300781 103.351562 C 95.199219 103.945312 95 104.746094 95.699219 105.75 C 95.800781 105.648438 95.898438 105.550781 96 105.449219 C 96.386719 105.855469 96.4375 106.257812 96.148438 106.648438 C 96.3125 108.816406 96.613281 110.96875 97.050781 113.101562 C 96.871094 115.550781 96.671875 118 96.449219 120.449219 C 95.933594 120.800781 95.734375 121.300781 95.851562 121.949219 C 86.550781 122.039062 77.25 122.136719 67.949219 122.25 C 71.8125 121.445312 75.613281 120.296875 79.351562 118.800781 C 89.585938 114.3125 95.585938 106.566406 97.351562 95.550781 Z M 97.351562 95.550781 "/>
<path style=" stroke:none;fill-rule:evenodd;fill:rgb(90.588235%,92.54902%,97.647059%);fill-opacity:1;" d="M 96.148438 95.25 C 96.25 95.25 96.351562 95.25 96.449219 95.25 C 82.535156 95.707031 68.535156 96.054688 54.449219 96.300781 C 53.390625 97.210938 52.789062 98.359375 52.648438 99.75 C 53.546875 107.191406 54.144531 114.589844 54.449219 121.949219 C 54.265625 121.917969 54.113281 121.816406 54 121.648438 C 53.128906 113.910156 52.378906 106.160156 51.75 98.398438 C 51.816406 97.0625 52.417969 96.0625 53.550781 95.398438 C 67.75 95.25 81.949219 95.199219 96.148438 95.25 Z M 96.148438 95.25 "/>
<path style=" stroke:none;fill-rule:evenodd;fill:rgb(9.019608%,6.666667%,40.784314%);fill-opacity:1;" d="M 73.351562 103.050781 C 80.109375 102.957031 82.660156 106.15625 81 112.648438 C 80.511719 113.4375 79.914062 114.136719 79.199219 114.75 C 79.246094 115.652344 78.898438 116.300781 78.148438 116.699219 C 76.046875 116.75 73.949219 116.648438 71.851562 116.398438 C 71.019531 114.492188 70.070312 112.640625 69 110.851562 C 68.660156 107.230469 70.109375 104.632812 73.351562 103.050781 Z M 73.351562 103.050781 "/>
<path style=" stroke:none;fill-rule:evenodd;fill:rgb(96.078431%,96.078431%,98.039216%);fill-opacity:1;" d="M 73.949219 103.949219 C 77.222656 103.710938 79.472656 105.109375 80.699219 108.148438 C 81.070312 110.613281 80.269531 112.613281 78.300781 114.148438 C 78.152344 114.640625 78.101562 115.140625 78.148438 115.648438 C 77.75 115.648438 77.351562 115.648438 76.949219 115.648438 C 76.851562 114.449219 76.75 114.449219 76.648438 115.648438 C 76.25 115.648438 75.851562 115.648438 75.449219 115.648438 C 75.25 114.050781 75.050781 114.050781 74.851562 115.648438 C 73.988281 115.421875 73.136719 115.324219 72.300781 115.351562 C 72.097656 114.046875 71.5 112.945312 70.5 112.050781 C 69.199219 108.253906 70.351562 105.554688 73.949219 103.949219 Z M 73.949219 103.949219 "/>
<path style=" stroke:none;fill-rule:evenodd;fill:rgb(4.313725%,2.352941%,41.568627%);fill-opacity:1;" d="M 76.648438 108.449219 C 78.789062 108.511719 79.289062 109.460938 78.148438 111.300781 C 76.347656 111.597656 75.699219 110.847656 76.199219 109.050781 C 76.414062 108.886719 76.566406 108.6875 76.648438 108.449219 Z M 76.648438 108.449219 "/>
<path style=" stroke:none;fill-rule:evenodd;fill:rgb(84.313725%,87.843137%,92.156863%);fill-opacity:1;" d="M 57.148438 102.148438 C 58.253906 102.101562 59.355469 102.148438 60.449219 102.300781 C 60.699219 102.550781 60.949219 102.800781 61.199219 103.050781 C 61.886719 106.339844 62.035156 109.640625 61.648438 112.949219 C 60.144531 113.402344 58.691406 113.304688 57.300781 112.648438 C 57.140625 109.792969 56.890625 106.941406 56.550781 104.101562 C 56.5 103.347656 56.703125 102.699219 57.148438 102.148438 Z M 57.148438 102.148438 "/>
<path style=" stroke:none;fill-rule:evenodd;fill:rgb(7.45098%,4.313725%,42.352941%);fill-opacity:1;" d="M 72.449219 108.449219 C 74.050781 108.300781 74.800781 109 74.699219 110.550781 C 73.886719 111.59375 72.988281 111.691406 72 110.851562 C 71.734375 109.949219 71.882812 109.152344 72.449219 108.449219 Z M 72.449219 108.449219 "/>
<path style=" stroke:none;fill-rule:evenodd;fill:rgb(21.176471%,24.705882%,43.137255%);fill-opacity:1;" d="M 101.550781 98.851562 C 101.648438 98.851562 101.75 98.851562 101.851562 98.851562 C 102.59375 102.019531 103.242188 105.21875 103.800781 108.449219 C 104.488281 113.476562 102.738281 117.375 98.550781 120.148438 C 98.449219 119.601562 98.351562 119.050781 98.25 118.5 C 98.605469 115.710938 98.90625 112.960938 99.148438 110.25 C 99.101562 111.355469 99.148438 112.453125 99.300781 113.550781 C 100.207031 112.144531 100.90625 110.644531 101.398438 109.050781 C 101.617188 106.222656 101.46875 103.421875 100.949219 100.648438 C 101.089844 100.027344 101.292969 99.425781 101.550781 98.851562 Z M 101.550781 98.851562 "/>
<path style=" stroke:none;fill-rule:evenodd;fill:rgb(77.254902%,81.960784%,90.588235%);fill-opacity:1;" d="M 54.75 123.75 C 62.898438 124 71.097656 124.148438 79.351562 124.199219 C 78.117188 124.726562 76.917969 125.277344 75.75 125.851562 C 68.847656 125.898438 61.949219 125.851562 55.050781 125.699219 C 53.707031 125.109375 52.707031 124.160156 52.050781 122.851562 C 52.417969 122.515625 52.816406 122.464844 53.25 122.699219 C 53.652344 123.199219 54.152344 123.550781 54.75 123.75 Z M 54.75 123.75 "/>
<path style=" stroke:none;fill-rule:evenodd;fill:rgb(50.980392%,53.333333%,75.686275%);fill-opacity:1;" d="M 97.648438 124.351562 C 97.132812 124.867188 96.53125 125.269531 95.851562 125.550781 C 89.164062 125.84375 82.464844 125.945312 75.75 125.851562 C 76.917969 125.277344 78.117188 124.726562 79.351562 124.199219 C 71.097656 124.148438 62.898438 124 54.75 123.75 C 63.050781 123.75 71.351562 123.75 79.648438 123.75 C 85.152344 123.800781 90.652344 123.75 96.148438 123.601562 C 96.636719 123.414062 97.035156 123.117188 97.351562 122.699219 C 97.738281 122.554688 98.136719 122.503906 98.550781 122.550781 C 98.515625 123.285156 98.214844 123.882812 97.648438 124.351562 Z M 97.648438 124.351562 "/>
<path style=" stroke:none;fill-rule:evenodd;fill:rgb(9.019608%,6.666667%,43.137255%);fill-opacity:1;" d="M 53.851562 94.050781 C 58.050781 94.050781 62.25 94.050781 66.449219 94.050781 C 62.296875 94.25 58.097656 94.449219 53.851562 94.648438 C 68 94.851562 82.097656 95.050781 96.148438 95.25 C 81.949219 95.199219 67.75 95.25 53.550781 95.398438 C 52.417969 96.0625 51.816406 97.0625 51.75 98.398438 C 52.378906 106.160156 53.128906 113.910156 54 121.648438 C 54.113281 121.816406 54.265625 121.917969 54.449219 121.949219 C 54.484375 122.136719 54.582031 122.285156 54.75 122.398438 C 58.847656 122.550781 62.949219 122.601562 67.050781 122.550781 C 76.449219 122.550781 85.851562 122.550781 95.25 122.550781 C 86.699219 122.859375 78.101562 123.109375 69.449219 123.300781 C 72.902344 123.351562 76.300781 123.5 79.648438 123.75 C 71.351562 123.75 63.050781 123.75 54.75 123.75 C 54.152344 123.550781 53.652344 123.199219 53.25 122.699219 C 52.816406 122.464844 52.417969 122.515625 52.050781 122.851562 C 52.707031 124.160156 53.707031 125.109375 55.050781 125.699219 C 61.949219 125.851562 68.847656 125.898438 75.75 125.851562 C 82.464844 125.945312 89.164062 125.84375 95.851562 125.550781 C 82.109375 126.003906 68.308594 126.351562 54.449219 126.601562 C 61.75 126.648438 69.050781 126.699219 76.351562 126.75 C 83.753906 126.75 91.050781 126.550781 98.25 126.148438 C 102.449219 126.148438 106.648438 126.148438 110.851562 126.148438 C 111.328125 126.070312 111.730469 126.167969 112.050781 126.449219 C 112.050781 126.550781 112.050781 126.648438 112.050781 126.75 C 88.257812 127.046875 64.457031 127.148438 40.648438 127.050781 C 39.605469 127.144531 38.605469 126.996094 37.648438 126.601562 C 37.925781 126.515625 38.125 126.367188 38.25 126.148438 C 38.550781 126.148438 38.851562 126.148438 39.148438 126.148438 C 43.753906 126.25 48.355469 126.148438 52.949219 125.851562 C 52.8125 125.609375 52.613281 125.511719 52.351562 125.550781 C 51.496094 124.59375 50.894531 123.492188 50.550781 122.25 C 50.605469 121.933594 50.703125 121.632812 50.851562 121.351562 C 46.484375 118.417969 44.535156 114.320312 45 109.050781 C 45.695312 105.425781 46.445312 101.828125 47.25 98.25 C 47.511719 97.261719 47.710938 96.261719 47.851562 95.25 C 48.402344 95.785156 48.601562 96.484375 48.449219 97.351562 C 47.632812 101.691406 46.832031 106.042969 46.050781 110.398438 C 46.191406 112.925781 46.988281 115.175781 48.449219 117.148438 C 48.449219 117.351562 48.550781 117.449219 48.75 117.449219 C 49.464844 118.914062 50.617188 119.914062 52.199219 120.449219 C 52.445312 118.59375 52.394531 116.796875 52.050781 115.050781 C 51.710938 110.699219 51.3125 106.402344 50.851562 102.148438 C 50.757812 100.445312 50.710938 98.746094 50.699219 97.050781 C 51.296875 95.535156 52.347656 94.535156 53.851562 94.050781 Z M 53.851562 94.050781 "/>
<path style=" stroke:none;fill-rule:evenodd;fill:rgb(19.607843%,21.568627%,48.627451%);fill-opacity:1;" d="M 52.050781 115.050781 C 52.394531 116.796875 52.445312 118.59375 52.199219 120.449219 C 50.617188 119.914062 49.464844 118.914062 48.75 117.449219 C 49.1875 117.738281 49.589844 118.085938 49.949219 118.5 C 50.449219 118.601562 50.949219 118.699219 51.449219 118.800781 C 51.117188 119.140625 51.21875 119.390625 51.75 119.550781 C 52.046875 118.0625 52.148438 116.5625 52.050781 115.050781 Z M 52.050781 115.050781 "/>
<path style=" stroke:none;fill-rule:evenodd;fill:rgb(24.705882%,29.019608%,44.313725%);fill-opacity:1;" d="M 50.851562 102.148438 C 51.3125 106.402344 51.710938 110.699219 52.050781 115.050781 C 52.148438 116.5625 52.046875 118.0625 51.75 119.550781 C 51.21875 119.390625 51.117188 119.140625 51.449219 118.800781 C 50.949219 118.699219 50.449219 118.601562 49.949219 118.5 C 49.589844 118.085938 49.1875 117.738281 48.75 117.449219 C 48.742188 117.152344 48.890625 116.949219 49.199219 116.851562 C 49.941406 117.445312 50.792969 117.746094 51.75 117.75 C 51.21875 113.175781 50.917969 108.578125 50.851562 103.949219 C 50.851562 103.351562 50.851562 102.75 50.851562 102.148438 Z M 50.851562 102.148438 "/>
<path style=" stroke:none;fill-rule:evenodd;fill:rgb(62.745098%,65.882353%,74.509804%);fill-opacity:1;" d="M 49.050781 95.851562 C 48.910156 97.207031 48.910156 98.507812 49.050781 99.75 C 48.390625 103.589844 47.792969 107.441406 47.25 111.300781 C 47.296875 113.328125 47.695312 115.28125 48.449219 117.148438 C 46.988281 115.175781 46.191406 112.925781 46.050781 110.398438 C 46.832031 106.042969 47.632812 101.691406 48.449219 97.351562 C 48.648438 96.851562 48.851562 96.351562 49.050781 95.851562 Z M 49.050781 95.851562 "/>
<path style=" stroke:none;fill-rule:evenodd;fill:rgb(30.196078%,35.294118%,41.176471%);fill-opacity:1;" d="M 49.351562 99.449219 C 49.804688 100.964844 50.304688 102.464844 50.851562 103.949219 C 50.917969 108.578125 51.21875 113.175781 51.75 117.75 C 50.792969 117.746094 49.941406 117.445312 49.199219 116.851562 C 48.890625 116.949219 48.742188 117.152344 48.75 117.449219 C 48.550781 117.449219 48.449219 117.351562 48.449219 117.148438 C 47.695312 115.28125 47.296875 113.328125 47.25 111.300781 C 47.792969 107.441406 48.390625 103.589844 49.050781 99.75 C 49.25 99.75 49.351562 99.648438 49.351562 99.449219 Z M 49.351562 99.449219 "/>
<use xlink:href="#surface5" mask="url(#mask0)"/>
<use xlink:href="#surface8" mask="url(#mask1)"/>
<path style=" stroke:none;fill-rule:evenodd;fill:rgb(0.392157%,0.392157%,43.529412%);fill-opacity:1;" d="M 97.648438 124.351562 C 98.113281 124.445312 98.316406 124.746094 98.25 125.25 C 98.25 125.351562 98.25 125.449219 98.25 125.550781 C 97.851562 125.75 97.851562 125.949219 98.25 126.148438 C 91.050781 126.550781 83.753906 126.75 76.351562 126.75 C 69.050781 126.699219 61.75 126.648438 54.449219 126.601562 C 68.308594 126.351562 82.109375 126.003906 95.851562 125.550781 C 96.53125 125.269531 97.132812 124.867188 97.648438 124.351562 Z M 97.648438 124.351562 "/>
<path style=" stroke:none;fill-rule:evenodd;fill:rgb(69.803922%,69.803922%,83.137255%);fill-opacity:1;" d="M 38.25 126.148438 C 38.125 126.367188 37.925781 126.515625 37.648438 126.601562 C 38.605469 126.996094 39.605469 127.144531 40.648438 127.050781 C 64.199219 127.398438 87.800781 127.449219 111.449219 127.199219 C 111.726562 127.117188 111.925781 126.964844 112.050781 126.75 C 112.050781 126.648438 112.050781 126.550781 112.050781 126.449219 C 112.148438 126.449219 112.25 126.449219 112.351562 126.449219 C 113.386719 126.746094 114.488281 126.84375 115.648438 126.75 C 115.765625 127.847656 115.363281 128.148438 114.449219 127.648438 C 113.164062 128.445312 111.863281 128.445312 110.550781 127.648438 C 109.933594 128.105469 109.234375 128.355469 108.449219 128.398438 C 108.703125 128.898438 108.550781 128.949219 108 128.550781 C 105.769531 129.089844 103.519531 129.589844 101.25 130.050781 C 84.648438 130.65625 68.648438 130.65625 53.25 130.050781 C 51.398438 130.050781 49.597656 130.148438 47.851562 130.351562 C 43.074219 129.910156 38.324219 129.210938 33.601562 128.25 C 32.722656 127.753906 32.671875 127.203125 33.449219 126.601562 C 35.058594 126.503906 36.660156 126.351562 38.25 126.148438 Z M 38.25 126.148438 "/>
<path style=" stroke:none;fill-rule:evenodd;fill:rgb(53.333333%,54.117647%,77.254902%);fill-opacity:1;" d="M 112.050781 126.75 C 111.925781 126.964844 111.726562 127.117188 111.449219 127.199219 C 87.800781 127.449219 64.199219 127.398438 40.648438 127.050781 C 64.457031 127.148438 88.257812 127.046875 112.050781 126.75 Z M 112.050781 126.75 "/>
<use xlink:href="#surface11" mask="url(#mask2)"/>
</g>
</svg>
