<?xml version="1.0" encoding="UTF-8"?>
<svg xmlns="http://www.w3.org/2000/svg" xmlns:xlink="http://www.w3.org/1999/xlink" width="100px" height="100px" viewBox="0 0 100 100" version="1.1">
<g id="surface1">
<path style=" stroke:none;fill-rule:nonzero;fill:rgb(25.882353%,61.960784%,100%);fill-opacity:1;" d="M 16.566406 19.535156 C 16.199219 19.898438 16.265625 66.667969 16.667969 66.667969 C 16.898438 66.667969 17 59.066406 17 43.734375 L 17 20.832031 L 20.464844 28.832031 C 22.367188 33.234375 26.433594 42.601562 29.5 49.667969 C 32.566406 56.734375 35.464844 63.433594 35.933594 64.566406 C 36.433594 65.765625 36.964844 66.667969 37.265625 66.667969 C 37.601562 66.667969 37.667969 66.433594 37.535156 65.832031 C 37.234375 64.699219 37.867188 54 38.5 49.167969 C 40.101562 36.964844 43.066406 28.832031 47.5 24.332031 C 48.5 23.332031 49.933594 22.167969 50.667969 21.734375 L 52 20.964844 L 52 66.699219 L 64.765625 66.601562 C 76.367188 66.464844 77.699219 66.398438 79.898438 65.765625 C 82.964844 64.898438 84.933594 63.734375 86.601562 61.800781 C 88.535156 59.632812 89.167969 57.566406 89.132812 53.5 C 89.101562 46.800781 86.332031 43.132812 80.132812 41.535156 C 79 41.234375 77.464844 41 76.699219 41 C 75.066406 41 74.898438 40.464844 76.433594 40.167969 C 77.832031 39.832031 79.867188 38.800781 81.367188 37.632812 C 83.964844 35.566406 85.234375 31.367188 84.332031 27.632812 C 83.734375 25.199219 81.035156 22.433594 78.167969 21.367188 C 74 19.800781 72 19.535156 63.167969 19.535156 C 55.832031 19.5 54.601562 19.566406 52.898438 20.132812 C 44.964844 22.734375 39.867188 32.832031 37.734375 50.167969 L 37.167969 54.832031 L 36.535156 53.234375 C 36.199219 52.367188 32.800781 44.398438 29 35.566406 L 22.035156 19.5 L 19.433594 19.398438 C 17.964844 19.367188 16.699219 19.398438 16.566406 19.535156 Z M 73.132812 21 C 75.234375 21.800781 77.265625 23.433594 78.300781 25.101562 C 79.367188 26.867188 79.800781 29.933594 79.367188 32.535156 C 78.464844 37.632812 75.632812 40.332031 71.167969 40.332031 C 67.601562 40.332031 64.832031 38.398438 62.765625 34.433594 C 61.132812 31.332031 60.632812 29.234375 60.433594 24.367188 L 60.234375 19.933594 L 65.699219 20.066406 C 70.367188 20.199219 71.464844 20.332031 73.132812 21 Z M 21.398438 20.898438 C 21.898438 21.535156 25 28.300781 25.832031 30.632812 C 26.101562 31.398438 26.535156 32.433594 26.800781 32.933594 C 27.367188 34.035156 28.667969 36.933594 28.667969 37.167969 C 28.667969 37.300781 29.367188 38.933594 30.667969 41.832031 C 32.132812 45.132812 33.199219 47.566406 34.066406 49.667969 C 34.667969 51.035156 35.464844 52.832031 35.933594 53.632812 C 36.632812 54.898438 36.734375 55.464844 36.699219 58.433594 C 36.667969 60.265625 36.566406 61.867188 36.5 61.964844 C 36.167969 62.265625 35.464844 61.199219 34.667969 59.332031 C 34.265625 58.332031 33.667969 56.898438 33.332031 56.167969 C 33 55.398438 32 53.167969 31.167969 51.167969 C 30.300781 49.132812 29.332031 46.898438 29 46.167969 C 28.667969 45.433594 27.632812 43.035156 26.699219 40.832031 C 25.765625 38.632812 24.765625 36.367188 24.5 35.832031 C 24.035156 34.800781 23.734375 34.167969 21.167969 28.167969 C 20.300781 26.132812 19.234375 23.734375 18.765625 22.765625 C 18.300781 21.800781 18.035156 20.867188 18.167969 20.699219 C 18.5 20.101562 20.832031 20.265625 21.398438 20.898438 Z M 58.867188 20.601562 C 59.300781 20.867188 59.800781 26.933594 59.667969 30.667969 C 59.632812 32.035156 59.601562 40.300781 59.566406 49 C 59.535156 57.699219 59.367188 65.035156 59.234375 65.234375 C 58.933594 65.699219 53.5 65.867188 53.199219 65.398438 C 53.132812 65.265625 53 55.398438 52.964844 43.464844 C 52.832031 20.035156 52.765625 20.832031 54.601562 20.566406 C 56.199219 20.332031 58.5 20.332031 58.867188 20.601562 Z M 79.667969 23.234375 C 82.433594 25.066406 83.667969 27.167969 83.667969 30 C 83.667969 33.464844 82 36.433594 79.332031 37.832031 C 78.199219 38.433594 78.132812 38.332031 78.867188 36.933594 C 80.867188 33.035156 80.800781 27 78.667969 24 C 78.300781 23.5 78 22.964844 78 22.867188 C 78 22.5 78.867188 22.667969 79.667969 23.234375 Z M 62.132812 34.765625 C 63.035156 36.566406 65.535156 39.265625 67.132812 40.066406 C 68.132812 40.566406 69.5 40.832031 72.332031 41.035156 C 74.433594 41.167969 76.832031 41.535156 77.632812 41.832031 C 82 43.367188 84 47.101562 84 53.667969 C 84 59.898438 82.332031 63.167969 78.167969 65.066406 C 76.601562 65.800781 76.035156 65.832031 68.433594 65.933594 L 60.332031 66.066406 L 60.367188 47.765625 C 60.367188 29.832031 60.398438 29.535156 60.964844 31.5 C 61.265625 32.601562 61.800781 34.066406 62.132812 34.765625 Z M 84.699219 44.765625 C 87.398438 47.234375 88.367188 49.800781 88.199219 54.265625 C 88.066406 58.632812 86.601562 61.367188 83.265625 63.433594 C 82.132812 64.132812 82.101562 63.832031 83.167969 61.964844 C 85.5 57.765625 85.5 49.933594 83.199219 45.332031 C 82.464844 43.867188 82.433594 43.667969 82.933594 43.667969 C 83.234375 43.667969 84.035156 44.167969 84.699219 44.765625 Z M 84.699219 44.765625 "/>
</g>
</svg>
